mtllib model_2.mtl
o model_2
v 9.02194595336914 0.3444623351097107 -24.352678298950195 
v 9.452362060546875 0.3618951141834259 -24.82185935974121 
v 9.549843788146973 0.357890248298645 -23.88349723815918 
v 9.835339546203613 0.37555834650993347 -24.595279693603516 
v 9.959234237670898 0.37532272934913635 -24.110076904296875 
v 9.507616996765137 7.238328456878662 -19.543495178222656 
v 10.219358444213867 7.925029277801514 -19.170766830444336 
v 9.943941116333008 6.897922515869141 -19.31364631652832 
v 10.43343734741211 6.840442180633545 -19.66610336303711 
v 9.603535652160645 6.124294281005859 -19.748170852661133 
v 9.84506893157959 5.991665363311768 -19.904781341552734 
v 9.954193115234375 7.153285980224609 -19.967884063720703 
v 9.641763687133789 6.233836650848389 -20.04929542541504 
v 9.507616996765137 7.238328456878662 -19.543495178222656 
v 9.424384117126465 6.366936683654785 -19.835140228271484 
v 9.424384117126465 6.366936683654785 -19.835140228271484 
v 8.602995872497559 4.053825378417969 -17.02365493774414 
v 8.262763977050781 4.354418754577637 -16.96022605895996 
v 8.262763977050781 3.643453598022461 -17.11029815673828 
v 7.922358512878418 4.053825378417969 -17.02365493774414 
v 8.262763977050781 3.643453598022461 -17.11029815673828 
v 7.670920372009277 3.643453598022461 -17.131877899169922 
v 7.550501346588135 3.157697916030884 -17.273448944091797 
v 8.262763977050781 3.643453598022461 -17.11029815673828 
v 8.262763977050781 3.231668472290039 -17.273448944091797 
v 8.974853515625 3.157697916030884 -17.273448944091797 
v 8.262763977050781 3.643453598022461 -17.11029815673828 
v 8.8544340133667 3.643453598022461 -17.13187599182129 
v 9.71630859375 2.8434410095214844 -18.783979415893555 
v 10.711461067199707 3.0615837574005127 -19.711877822875977 
v 9.973481178283691 2.586899995803833 -19.24040985107422 
v 10.466452598571777 1.6514317989349365 -20.01104164123535 
v 10.469754219055176 1.6667442321777344 -20.589426040649414 
v 10.941873550415039 3.0907952785491943 -20.718246459960938 
v 10.800602912902832 4.189517021179199 -19.701087951660156 
v 10.220227241516113 4.01990270614624 -18.783979415893555 
v 9.983733177185059 5.138648509979248 -18.783979415893555 
v 9.353313446044922 4.698358535766602 -18.084623336791992 
v 9.590155601501465 3.861360549926758 -18.114376068115234 
v 9.23393726348877 3.0818428993225098 -18.225868225097656 
v 8.262764930725098 2.1687543392181396 -18.783981323242188 
v 8.262764930725098 1.7393014430999756 -20.336036682128906 
v 9.363044738769531 2.215869665145874 -20.327207565307617 
v 9.951761245727539 1.4043136835098267 -19.782827377319336 
v 10.29042911529541 0.241279736161232 -19.691608428955078 
v 10.291471481323242 0.24245785176753998 -20.18367576599121 
v 9.914227485656738 1.5195099115371704 -20.940576553344727 
v 9.889205932617188 0.22502519190311432 -20.414505004882812 
v 9.484854698181152 1.2443583011627197 -20.38965606689453 
v 9.474081039428711 0.2059435397386551 -19.996002197265625 
v 9.484854698181152 1.2443583011627197 -20.38965606689453 
v 9.931082725524902 0.22172699868679047 -19.461105346679688 
v 9.474081039428711 0.2059435397386551 -19.996002197265625 
v 9.363044738769531 2.215869665145874 -20.327207565307617 
v 10.28973388671875 2.8139946460723877 -21.204755783081055 
v 11.109557151794434 4.356539726257324 -21.04225730895996 
v 10.348640441894531 5.5850629806518555 -19.652372360229492 
v 9.20491886138916 5.900262355804443 -18.783979415893555 
v 8.918553352355957 5.133229732513428 -18.084623336791992 
v 8.602995872497559 3.9812681674957275 -17.719741821289062 
v 8.8544340133667 3.570896625518799 -17.719741821289062 
v 8.974853515625 3.2137649059295654 -17.719741821289062 
v 8.262764930725098 2.6309523582458496 -18.225868225097656 
v 7.291418075561523 3.0818428993225098 -18.225868225097656 
v 6.809046745300293 2.8434410095214844 -18.783981323242188 
v 7.162311553955078 2.215869665145874 -20.32720947265625 
v 6.55187463760376 2.586899995803833 -19.24040985107422 
v 6.5735955238342285 1.4043136835098267 -19.78282928466797 
v 6.058903694152832 1.6514317989349365 -20.011043548583984 
v 6.234927654266357 0.241279736161232 -19.691608428955078 
v 6.233885288238525 0.24245785176753998 -20.18367576599121 
v 7.040502071380615 1.2443583011627197 -20.389657974243164 
v 6.594273567199707 0.22172699868679047 -19.461105346679688 
v 7.051275253295898 0.2059435397386551 -19.996004104614258 
v 5.813894748687744 3.0615837574005127 -19.71187973022461 
v 7.051275253295898 0.2059435397386551 -19.996004104614258 
v 6.63615083694458 0.22502519190311432 -20.414506912231445 
v 7.040502071380615 1.2443583011627197 -20.389657974243164 
v 6.611129283905029 1.5195099115371704 -20.940576553344727 
v 7.162311553955078 2.215869665145874 -20.32720947265625 
v 6.235622882843018 2.8139946460723877 -21.204755783081055 
v 6.055602073669434 1.6667442321777344 -20.589427947998047 
v 5.58348274230957 3.0907952785491943 -20.718246459960938 
v 5.724753379821777 4.189517021179199 -19.70108985900879 
v 6.30512809753418 4.01990270614624 -18.783981323242188 
v 6.935199737548828 3.861360549926758 -18.114377975463867 
v 5.415799617767334 4.356539726257324 -21.042259216308594 
v 6.176716327667236 5.5850629806518555 -19.652374267578125 
v 6.541622161865234 5.138648509979248 -18.783981323242188 
v 7.172041416168213 4.698358535766602 -18.084623336791992 
v 5.559851169586182 4.3096604347229 -22.6417236328125 
v 6.132580757141113 2.9968011379241943 -22.675399780273438 
v 7.365443229675293 2.4674642086029053 -22.68978500366211 
v 8.262764930725098 1.7393014430999756 -20.336036682128906 
v 8.262765884399414 2.2611002922058105 -22.71136474609375 
v 9.15991497039795 2.4674642086029053 -22.68978500366211 
v 8.26276683807373 2.198202133178711 -24.600183486938477 
v 7.444854736328125 2.4057438373565674 -24.87253761291504 
v 6.628680229187012 2.927306652069092 -23.90834617614746 
v 6.845191478729248 1.6118558645248413 -24.27126693725586 
v 7.445202350616455 1.3041949272155762 -24.887903213500977 
v 6.975514888763428 0.357890248298645 -23.883499145507812 
v 7.503413200378418 0.3444623351097107 -24.352678298950195 
v 6.56612491607666 0.37532272934913635 -24.110078811645508 
v 6.424854278564453 1.7235186100006104 -24.57271957397461 
v 6.147003650665283 3.0714786052703857 -24.3660831451416 
v 6.589409828186035 1.724932074546814 -25.127561569213867 
v 6.690019607543945 0.37555834650993347 -24.595279693603516 
v 7.082902431488037 1.469333291053772 -25.38749122619629 
v 7.072997570037842 0.3618951141834259 -24.82185935974121 
v 7.445202350616455 1.3041949272155762 -24.887903213500977 
v 7.503413200378418 0.3444623351097107 -24.352678298950195 
v 7.444854736328125 2.4057438373565674 -24.87253761291504 
v 7.033553123474121 2.576535701751709 -25.70267677307129 
v 8.26276683807373 2.198202133178711 -24.600183486938477 
v 6.429719924926758 3.018003225326538 -25.338775634765625 
v 6.454741954803467 3.8820924758911133 -25.34269905090332 
v 6.018243789672852 4.046523571014404 -24.324234008789062 
v 6.324939250946045 5.23641300201416 -24.28696060180664 
v 6.002256870269775 5.62299108505249 -22.577312469482422 
v 5.9383111000061035 5.811215400695801 -21.042259216308594 
v 7.095932960510254 6.4517436027526855 -19.621639251708984 
v 7.320436954498291 5.900262355804443 -18.783981323242188 
v 7.606801509857178 5.133229732513428 -18.084623336791992 
v 7.922358512878418 3.9812681674957275 -17.719741821289062 
v 7.6709208488464355 3.570896625518799 -17.719741821289062 
v 7.550501823425293 3.2137649059295654 -17.719741821289062 
v 8.262763977050781 3.3049323558807373 -17.719741821289062 
v 8.974853515625 3.157697916030884 -17.273448944091797 
v 8.8544340133667 3.643453598022461 -17.13187599182129 
v 8.602995872497559 4.053825378417969 -17.02365493774414 
v 8.262763977050781 4.354418754577637 -16.96022605895996 
v 8.262763977050781 4.307068347930908 -17.719741821289062 
v 8.262764930725098 5.490832805633545 -18.084623336791992 
v 6.747883319854736 3.627671480178833 -25.725563049316406 
v 7.922358512878418 4.053825378417969 -17.02365493774414 
v 7.670920372009277 3.643453598022461 -17.131877899169922 
v 7.550501346588135 3.157697916030884 -17.273448944091797 
v 8.262763977050781 3.231668472290039 -17.273448944091797 
v 8.262764930725098 6.388373851776123 -18.783979415893555 
v 9.429423332214355 6.4517436027526855 -19.621639251708984 
v 10.587045669555664 5.811215400695801 -21.04225730895996 
v 8.262764930725098 7.081906795501709 -19.609540939331055 
v 9.579209327697754 6.848923206329346 -21.04225730895996 
v 6.946147918701172 6.848923206329346 -21.042259216308594 
v 7.029903411865234 6.588141918182373 -22.577312469482422 
v 7.180557727813721 6.067992687225342 -24.27159309387207 
v 6.717995643615723 4.790234088897705 -25.349563598632812 
v 7.157968997955322 4.285868167877197 -26.046632766723633 
v 7.5553693771362305 3.236617088317871 -25.90865707397461 
v 8.26276683807373 2.96759033203125 -25.65069007873535 
v 9.491806983947754 2.576535701751709 -25.702674865722656 
v 9.080504417419434 2.4057438373565674 -24.872535705566406 
v 9.44245719909668 1.469333291053772 -25.38749122619629 
v 9.080157279968262 1.3041949272155762 -24.887903213500977 
v 9.452362060546875 0.3618951141834259 -24.82185935974121 
v 9.02194595336914 0.3444623351097107 -24.352678298950195 
v 9.835339546203613 0.37555834650993347 -24.595279693603516 
v 9.935949325561523 1.724932074546814 -25.127561569213867 
v 9.02194595336914 0.3444623351097107 -24.352678298950195 
v 9.549843788146973 0.357890248298645 -23.88349723815918 
v 9.080157279968262 1.3041949272155762 -24.887903213500977 
v 9.680167198181152 1.6118558645248413 -24.27126693725586 
v 9.080504417419434 2.4057438373565674 -24.872535705566406 
v 9.896678924560547 2.927306652069092 -23.90834617614746 
v 10.392777442932129 2.9968011379241943 -22.675397872924805 
v 10.965506553649902 4.3096604347229 -22.641721725463867 
v 9.959234237670898 0.37532272934913635 -24.110076904296875 
v 10.100504875183105 1.7235186100006104 -24.572717666625977 
v 10.378355026245117 3.0714786052703857 -24.3660831451416 
v 10.095640182495117 3.018003225326538 -25.338773727416992 
v 10.507115364074707 4.046523571014404 -24.32423210144043 
v 10.07061767578125 3.8820924758911133 -25.342697143554688 
v 9.77747631072998 3.627671480178833 -25.725561141967773 
v 8.969990730285645 3.236617088317871 -25.90865707397461 
v 8.26276683807373 3.507528305053711 -25.952468872070312 
v 7.716102123260498 3.86112642288208 -26.14406394958496 
v 7.817233562469482 4.750186443328857 -26.2490177154541 
v 7.667969226837158 4.894829273223877 -26.12640953063965 
v 7.339553356170654 5.555381774902344 -25.354795455932617 
v 8.262765884399414 6.4823689460754395 -24.270938873291016 
v 8.262765884399414 7.193098545074463 -22.577312469482422 
v 8.262764930725098 7.507826328277588 -21.04225730895996 
v 9.495454788208008 6.588141918182373 -22.577312469482422 
v 10.200419425964355 5.23641300201416 -24.286958694458008 
v 10.523100852966309 5.62299108505249 -22.57731056213379 
v 9.807538032531738 4.790234088897705 -25.349563598632812 
v 9.34480094909668 6.067992687225342 -24.27159309387207 
v 9.185806274414062 5.555381774902344 -25.354795455932617 
v 8.26276683807373 5.917695999145508 -25.35544776916504 
v 8.26276683807373 5.508973598480225 -26.04009246826172 
v 8.857390403747559 4.894829273223877 -26.126407623291016 
v 9.367390632629395 4.285868167877197 -26.046630859375 
v 8.809257507324219 3.86112642288208 -26.14406394958496 
v 8.70812702178955 4.750186443328857 -26.24901580810547 
v 8.26276683807373 5.128048896789551 -26.328140258789062 
v 8.26276683807373 4.375622272491455 -27.142911911010742 
v 8.040000915527344 4.152532577514648 -27.080463409423828 
v 8.26276683807373 4.197762966156006 -26.21795654296875 
v 8.485360145568848 4.152532577514648 -27.080463409423828 
v 8.262767791748047 3.9534718990325928 -27.673559188842773 
v 8.26276683807373 3.8427515029907227 -26.9473934173584 
v 9.823868751525879 4.451475620269775 -17.337858200073242 
v 9.906580924987793 4.739348411560059 -17.251541137695312 
v 9.801627159118652 4.416139602661133 -17.151166915893555 
v 9.952802658081055 4.369495868682861 -17.044252395629883 
v 9.581814765930176 4.00623893737793 -17.241405487060547 
v 9.79015827178955 3.8585336208343506 -17.09493064880371 
v 10.126394271850586 4.357717037200928 -17.123374938964844 
v 10.050979614257812 3.81400990486145 -17.227346420288086 
v 10.148635864257812 4.39305305480957 -17.31006622314453 
v 9.63272762298584 4.106358528137207 -17.50918197631836 
v 9.320993423461914 3.995638370513916 -17.808673858642578 
v 9.213780403137207 3.822726249694824 -17.53730010986328 
v 9.048356056213379 3.8599472045898438 -18.083642959594727 
v 8.918206214904785 3.7313232421875 -17.989152908325195 
v 9.346883773803711 3.518834352493286 -17.46602439880371 
v 8.93106460571289 3.528728723526001 -18.022829055786133 
v 9.587374687194824 3.387854814529419 -17.66677474975586 
v 9.074247360229492 3.4545226097106934 -18.1509952545166 
v 10.09442138671875 3.8952832221984863 -17.508527755737305 
v 9.99746036529541 4.439697265625 -17.417308807373047 
v 9.823868751525879 4.451475620269775 -17.337858200073242 
v 9.880168914794922 4.041810989379883 -17.646831512451172 
v 9.63272762298584 4.106358528137207 -17.50918197631836 
v 9.694587707519531 3.5607669353485107 -17.938148498535156 
v 9.204570770263672 3.5829110145568848 -18.245159149169922 
v 9.561309814453125 3.8646585941314697 -18.009424209594727 
v 9.19153881072998 3.785741090774536 -18.211809158325195 
v 9.320993423461914 3.995638370513916 -17.808673858642578 
v 9.048356056213379 3.8599472045898438 -18.083642959594727 
v 9.474081039428711 0.2059435397386551 -19.996002197265625 
v 9.889205932617188 0.22502519190311432 -20.414505004882812 
v 9.931082725524902 0.22172699868679047 -19.461105346679688 
v 10.29042911529541 0.241279736161232 -19.691608428955078 
v 10.291471481323242 0.24245785176753998 -20.18367576599121 
v 7.503413200378418 0.3444623351097107 -24.352678298950195 
v 6.975514888763428 0.357890248298645 -23.883499145507812 
v 7.072997570037842 0.3618951141834259 -24.82185935974121 
v 6.690019607543945 0.37555834650993347 -24.595279693603516 
v 6.56612491607666 0.37532272934913635 -24.110078811645508 
v 7.0177388191223145 7.238328456878662 -19.54349708557129 
v 6.305997371673584 7.925029277801514 -19.17076873779297 
v 6.581414699554443 6.897922515869141 -19.313648223876953 
v 6.0919189453125 6.840442180633545 -19.666105270385742 
v 6.921820640563965 6.124294281005859 -19.748170852661133 
v 6.6802873611450195 5.991665363311768 -19.904783248901367 
v 6.571162700653076 7.153285980224609 -19.967884063720703 
v 6.883592128753662 6.233836650848389 -20.049297332763672 
v 7.0177388191223145 7.238328456878662 -19.54349708557129 
v 7.1009721755981445 6.366936683654785 -19.835140228271484 
v 7.1009721755981445 6.366936683654785 -19.835140228271484 
v 6.701485633850098 4.451475620269775 -17.337858200073242 
v 6.723727703094482 4.416139602661133 -17.151166915893555 
v 6.618773460388184 4.739348411560059 -17.251543045043945 
v 6.57255220413208 4.369495868682861 -17.044254302978516 
v 6.398960590362549 4.357717037200928 -17.123376846313477 
v 6.735196113586426 3.8585336208343506 -17.09493064880371 
v 6.474374771118164 3.81400990486145 -17.22734832763672 
v 6.376718997955322 4.39305305480957 -17.310068130493164 
v 6.892627239227295 4.106358528137207 -17.509183883666992 
v 6.943540096282959 4.00623893737793 -17.24140739440918 
v 7.204361915588379 3.995638370513916 -17.808673858642578 
v 7.311574459075928 3.822726249694824 -17.537302017211914 
v 7.476999282836914 3.8599472045898438 -18.083642959594727 
v 7.607149124145508 3.7313232421875 -17.989152908325195 
v 7.178470611572266 3.518834352493286 -17.46602439880371 
v 7.594290733337402 3.528728723526001 -18.022829055786133 
v 6.9379801750183105 3.387854814529419 -17.666776657104492 
v 7.451107978820801 3.4545226097106934 -18.1509952545166 
v 6.430933475494385 3.8952832221984863 -17.508529663085938 
v 6.527894496917725 4.439697265625 -17.417308807373047 
v 6.701485633850098 4.451475620269775 -17.337858200073242 
v 6.645185947418213 4.041810989379883 -17.646831512451172 
v 6.892627239227295 4.106358528137207 -17.509183883666992 
v 6.8309407234191895 3.5607669353485107 -17.938148498535156 
v 7.320784568786621 3.5829110145568848 -18.245159149169922 
v 6.96404504776001 3.8646585941314697 -18.009424209594727 
v 7.333817005157471 3.785741090774536 -18.211809158325195 
v 7.204361915588379 3.995638370513916 -17.808673858642578 
v 7.476999282836914 3.8599472045898438 -18.083642959594727 
v 7.051275253295898 0.2059435397386551 -19.996004104614258 
v 6.63615083694458 0.22502519190311432 -20.414506912231445 
v 6.594273567199707 0.22172699868679047 -19.461105346679688 
v 6.234927654266357 0.241279736161232 -19.691608428955078 
v 6.233885288238525 0.24245785176753998 -20.18367576599121 
vn -0.8279303908348083 -0.5324865579605103 0.17603787779808044 
vn -0.08106806129217148 -0.756856381893158 -0.6485339999198914 
vn -0.13394896686077118 -0.49020493030548096 0.861253023147583 
vn 0.5963613390922546 -0.7149559855461121 -0.36495357751846313 
vn 0.7334160804748535 -0.5487073659896851 0.40127429366111755 
vn -0.9097161889076233 0.39621883630752563 0.12420585751533508 
vn 0.27279603481292725 0.8591033220291138 0.43304017186164856 
vn -0.02442050166428089 -0.30429646372795105 0.9522643089294434 
vn 0.9716325402259827 -0.23200607299804688 -0.045862264931201935 
vn -0.00940104853361845 -0.45836564898490906 0.8887140154838562 
vn 0.8041514158248901 -0.5926526188850403 -0.04586237668991089 
vn 0.04899464175105095 0.40832677483558655 -0.9115200638771057 
vn 0.06153159961104393 0.07366019487380981 -0.9953833222389221 
vn -0.9097161889076233 0.39621883630752563 0.12420585751533508 
vn -0.9954202175140381 0.07162368297576904 0.06331351399421692 
vn -0.9954202175140381 0.07162368297576904 0.06331351399421692 
vn 0.6198330521583557 0.3665682375431061 0.6938549280166626 
vn -1.968546996522491e-7 0.7583447098731995 0.6518537402153015 
vn -2.913285470640403e-7 -0.2633884847164154 0.9646898508071899 
vn -0.6198335289955139 0.3665682375431061 0.693854570388794 
vn -0.03560633957386017 -0.25244972109794617 0.9669546484947205 
vn -0.7249090075492859 0.15356972813606262 0.6715081930160522 
vn -0.6538562774658203 -0.6311885714530945 0.41722050309181213 
vn -2.913285470640403e-7 -0.2633884847164154 0.9646898508071899 
vn -0.0018855119124054909 -0.8533792495727539 0.5212871432304382 
vn 0.6512309312820435 -0.6338966488838196 0.4172208905220032 
vn 0.031878575682640076 -0.2529473900794983 0.9669546484947205 
vn 0.7256811857223511 0.14987671375274658 0.6715086102485657 
vn 0.536994218826294 -0.6129205226898193 0.5796254873275757 
vn 0.8651403188705444 -0.2240004539489746 0.4487271010875702 
vn 0.24324004352092743 -0.6413719654083252 0.7276511788368225 
vn 0.873824954032898 -0.18728047609329224 0.4487271010875702 
vn 0.8614813685417175 -0.289442241191864 -0.4172205924987793 
vn 0.9302967190742493 -0.23917149007320404 -0.278109610080719 
vn 0.915189802646637 0.06786313652992249 0.39726847410202026 
vn 0.7718154191970825 -0.03013627789914608 0.6351320743560791 
vn 0.6781222224235535 0.37555405497550964 0.6317511200904846 
vn 0.4760463833808899 0.2733961343765259 0.8358435034751892 
vn 0.6298131942749023 -0.06771207600831985 0.773789644241333 
vn 0.49597036838531494 -0.5425736904144287 0.6779581308364868 
vn 0.003771538846194744 -0.8956131935119629 0.4448176622390747 
vn -0.0018882720032706857 -0.998945951461792 0.045862358063459396 
vn -0.2685261070728302 -0.9632501006126404 0.006553802639245987 
vn -0.24152705073356628 -0.01872667856514454 0.9702134132385254 
vn 0.6507540941238403 -0.5854341983795166 0.48351410031318665 
vn 0.6691349744796753 -0.6784778237342834 -0.30319342017173767 
vn -0.148787721991539 -0.23247355222702026 -0.9611546397209167 
vn -0.07733990997076035 -0.7310206890106201 -0.6779581904411316 
vn -0.9826079607009888 -0.10922130942344666 -0.1501740664243698 
vn -0.8066530823707581 -0.5860677361488342 0.07638952136039734 
vn -0.9826079607009888 -0.10922130942344666 -0.1501740664243698 
vn -0.18959921598434448 -0.48358163237571716 0.8545179963111877 
vn -0.8066530823707581 -0.5860677361488342 0.07638952136039734 
vn -0.2685261070728302 -0.9632501006126404 0.006553802639245987 
vn 0.6081957221031189 -0.6175422072410583 -0.49873805046081543 
vn 0.9994269013404846 0.03019949421286583 0.015292581170797348 
vn 0.7840409874916077 0.4802398383617401 0.39325493574142456 
vn 0.44268348813056946 0.6086601614952087 0.6584559082984924 
vn 0.3170749247074127 0.4114146828651428 0.8545182943344116 
vn 0.6524133682250977 0.5047747492790222 0.5652957558631897 
vn 0.8499702215194702 0.2091999351978302 0.48351430892944336 
vn 0.6192722320556641 -0.6125998497009277 0.49114492535591125 
vn -0.0018852066714316607 -0.7668218612670898 0.6418572664260864 
vn -0.498744934797287 -0.5400247573852539 0.6779578328132629 
vn -0.5398246645927429 -0.6104294061660767 0.5796251893043518 
vn 0.2685261070728302 -0.9632501006126404 0.00655396468937397 
vn -0.24324049055576324 -0.6413719654083252 0.727651059627533 
vn 0.24120773375034332 -0.022462112829089165 0.9702135324478149 
vn -0.873825192451477 -0.18728047609329224 0.4487265646457672 
vn -0.6532711982727051 -0.5826243758201599 0.4835137128829956 
vn -0.6718173623085022 -0.6758216023445129 -0.3031938374042511 
vn 0.9830178618431091 -0.10546966642141342 -0.15017347037792206 
vn 0.18608516454696655 -0.48494452238082886 0.8545181155204773 
vn 0.8066530823707581 -0.5860677361488342 0.07639001309871674 
vn -0.8651405572891235 -0.2240004539489746 0.4487265646457672 
vn 0.8066530823707581 -0.5860677361488342 0.07639001309871674 
vn 0.08109798282384872 -0.7306133508682251 -0.6779581904411316 
vn 0.9830178618431091 -0.10546966642141342 -0.15017347037792206 
vn 0.15196342766284943 -0.23041054606437683 -0.961154580116272 
vn 0.2685261070728302 -0.9632501006126404 0.00655396468937397 
vn -0.6108803749084473 -0.6148862838745117 -0.49873843789100647 
vn -0.8614811301231384 -0.289442241191864 -0.4172210991382599 
vn -0.9293490052223206 -0.24282746016979218 -0.27811017632484436 
vn -0.9151900410652161 0.06786313652992249 0.3972679078578949 
vn -0.7718157768249512 -0.03013627789914608 0.6351315975189209 
vn -0.6298136711120605 -0.06771207600831985 0.7737892866134644 
vn -0.9994269013404846 0.03019949421286583 0.015291977673768997 
vn -0.7840412259101868 0.4802398383617401 0.39325445890426636 
vn -0.6781225800514221 0.37555405497550964 0.631750762462616 
vn -0.4760468602180481 0.2733961343765259 0.8358432054519653 
vn -0.9849814176559448 -0.05659826844930649 -0.1631203144788742 
vn -0.7294761538505554 -0.6734209656715393 -0.119869664311409 
vn -0.3649425506591797 -0.9278908967971802 -0.07639012485742569 
vn -0.0018882720032706857 -0.998945951461792 0.045862358063459396 
vn -0.003775188233703375 -0.9973951578140259 -0.07203269004821777 
vn 0.36494261026382446 -0.9278908967971802 -0.07638990134000778 
vn -0.0018876506946980953 -0.9794286489486694 -0.20178188383579254 
vn 0.37397897243499756 -0.9263024926185608 0.045862484723329544 
vn -0.6726211905479431 -0.6632886528968811 0.32806846499443054 
vn 0.12666022777557373 0.08463168889284134 0.9883292317390442 
vn 0.9956838488578796 -0.06785999983549118 -0.06331351399421692 
vn 0.1339484602212906 -0.49020493030548096 0.8612530827522278 
vn 0.8258816003799438 -0.5356584787368774 0.17603838443756104 
vn -0.7356693744659424 -0.5456829071044922 0.4012738764286041 
vn -0.9603264331817627 -0.1614578664302826 0.2273862212896347 
vn -0.9548408389091492 -0.16900309920310974 0.24437035620212555 
vn -0.7871347069740295 -0.23828125 -0.5688945651054382 
vn -0.5934579968452454 -0.7173675894737244 -0.3649539351463318 
vn 0.18377257883548737 -0.30821508169174194 -0.933397650718689 
vn 0.08482373505830765 -0.7564446926116943 -0.6485339999198914 
vn 0.9956838488578796 -0.06785999983549118 -0.06331351399421692 
vn 0.8258816003799438 -0.5356584787368774 0.17603838443756104 
vn 0.37397897243499756 -0.9263024926185608 0.045862484723329544 
vn -0.12644816935062408 -0.40383410453796387 -0.9060512781143188 
vn -0.0018876506946980953 -0.9794286489486694 -0.20178188383579254 
vn -0.794986367225647 -0.12419188767671585 -0.5937785506248474 
vn -0.855408787727356 0.10928209125995636 -0.5062935948371887 
vn -0.966395378112793 4.188018110085068e-8 -0.25706037878990173 
vn -0.8023322224617004 0.47849133610725403 -0.3568039536476135 
vn -0.8301941156387329 0.5229202508926392 -0.1932152509689331 
vn -0.8397510647773743 0.5392675399780273 0.06331364065408707 
vn -0.5344874858856201 0.7350170016288757 0.4172207713127136 
vn -0.44572803378105164 0.6064344644546509 0.6584556102752686 
vn -0.32005205750465393 0.4091033637523651 0.8545180559158325 
vn -0.6547151803970337 0.5017860531806946 0.5652953386306763 
vn -0.8508641123771667 0.20553509891033173 0.48351380228996277 
vn -0.6166121363639832 -0.6152775287628174 0.4911445379257202 
vn -0.001886036479845643 -0.9641103744506836 0.2654951214790344 
vn 0.6512309312820435 -0.6338966488838196 0.4172208905220032 
vn 0.7256811857223511 0.14987671375274658 0.6715086102485657 
vn 0.6198330521583557 0.3665682375431061 0.6938549280166626 
vn -1.968546996522491e-7 0.7583447098731995 0.6518537402153015 
vn -0.0018863575533032417 0.656807005405426 0.7540563941001892 
vn -0.0018808351596817374 0.49683964252471924 0.8678402900695801 
vn -0.601572573184967 -0.03398619964718819 -0.7980948686599731 
vn -0.6198335289955139 0.3665682375431061 0.693854570388794 
vn -0.7249090075492859 0.15356972813606262 0.6715081930160522 
vn -0.6538562774658203 -0.6311885714530945 0.41722050309181213 
vn -0.0018855119124054909 -0.8533792495727539 0.5212871432304382 
vn -0.0018852285575121641 0.7140215635299683 0.7001211643218994 
vn 0.5375329852104187 0.7327924966812134 0.4172210693359375 
vn 0.8417837619781494 0.5360890030860901 0.06331414729356766 
vn -0.0018853017827495933 0.8916977047920227 0.4526275098323822 
vn 0.5787654519081116 0.8139458298683167 0.050227172672748566 
vn -0.5818384289741516 0.8117520213127136 0.05022681877017021 
vn -0.5523751378059387 0.8007652163505554 -0.2316393107175827 
vn -0.5143517851829529 0.77020663022995 -0.377126008272171 
vn -0.7430446743965149 0.3853849172592163 -0.5471408367156982 
vn -0.5207933187484741 0.1014246791601181 -0.847636342048645 
vn -0.07140373438596725 -0.4291077256202698 -0.9004266262054443 
vn -0.0018902755109593272 -0.6198198199272156 -0.7847418785095215 
vn 0.12644870579242706 -0.40383410453796387 -0.9060511589050293 
vn -0.3704744279384613 -0.927709698677063 0.04586225748062134 
vn -0.183772012591362 -0.30821508169174194 -0.9333977699279785 
vn -0.9954202175140381 -0.07162368297576904 -0.06331411749124527 
vn -0.08106806129217148 -0.756856381893158 -0.6485339999198914 
vn -0.8279303908348083 -0.5324865579605103 0.17603787779808044 
vn 0.5963613390922546 -0.7149559855461121 -0.36495357751846313 
vn 0.7871350646018982 -0.23828125 -0.56889408826828 
vn -0.8279303908348083 -0.5324865579605103 0.17603787779808044 
vn -0.13394896686077118 -0.49020493030548096 0.861253023147583 
vn -0.9954202175140381 -0.07162368297576904 -0.06331411749124527 
vn -0.12666082382202148 0.08463168889284134 0.9883291721343994 
vn -0.3704744279384613 -0.927709698677063 0.04586225748062134 
vn 0.6699678301811218 -0.6659683585166931 0.3280688524246216 
vn 0.729476273059845 -0.6734209656715393 -0.11986922472715378 
vn 0.9847577214241028 -0.0603669174015522 -0.16311971843242645 
vn 0.7334160804748535 -0.5487073659896851 0.40127429366111755 
vn 0.9596936702728271 -0.16517668962478638 0.22738680243492126 
vn 0.9554914236068726 -0.16528469324111938 0.2443709373474121 
vn 0.7955611944198608 -0.12045731395483017 -0.5937780737876892 
vn 0.9663954973220825 4.188038360553037e-8 -0.257059782743454 
vn 0.8549221158027649 0.11302907764911652 -0.5062930583953857 
vn 0.6013481020927429 -0.0377577543258667 -0.7980945110321045 
vn 0.07140427082777023 -0.4291077256202698 -0.9004265666007996 
vn 2.80434079513725e-7 -0.37104761600494385 -0.9286138415336609 
vn -0.12230618298053741 -0.2521059215068817 -0.9599394798278809 
vn -0.5494720935821533 0.21072031557559967 -0.8085031509399414 
vn -0.45534104108810425 0.44999510049819946 -0.7682245373725891 
vn -0.5129485130310059 0.6674534678459167 -0.5398052334785461 
vn -0.0018881758442148566 0.9124144911766052 -0.4092629849910736 
vn 8.271854312624782e-8 0.9617553353309631 -0.2739100456237793 
vn -0.0018878765404224396 0.9987360239028931 0.050227027386426926 
vn 0.5492615103721619 0.8029042482376099 -0.23163898289203644 
vn 0.8042605519294739 0.4752434194087982 -0.35680344700813293 
vn 0.8301942348480225 0.5229202508926392 -0.19321474432945251 
vn 0.7430450320243835 0.3853849172592163 -0.54714035987854 
vn 0.5112093687057495 0.7722960114479065 -0.37712571024894714 
vn 0.5129488706588745 0.6674534678459167 -0.5398049354553223 
vn 0.003778402926400304 0.8346335887908936 -0.5507926940917969 
vn 0.0018888447666540742 0.6985570192337036 -0.7155519127845764 
vn 0.45534151792526245 0.44999510049819946 -0.7682242393493652 
vn 0.5215030908584595 0.09771210700273514 -0.8476360440254211 
vn 0.11889654397964478 -0.2537320554256439 -0.9599394202232361 
vn 0.5508149862289429 0.20718589425086975 -0.8085028529167175 
vn 0.003777532372623682 0.6468584537506104 -0.7626007199287415 
vn -0.001887603895738721 0.74392169713974 -0.6682641506195068 
vn -0.9678068161010742 -0.07541081309318542 -0.24013173580169678 
vn 0.003777532372623682 -0.6468582153320312 -0.7626009583473206 
vn 0.9678069353103638 -0.07541081309318542 -0.24013115465641022 
vn 0.0018935354892164469 -0.27600404620170593 -0.9611546397209167 
vn 0.001887595746666193 -0.9866044521331787 0.163119837641716 
vn -0.7220920920372009 0.49100756645202637 -0.4873342216014862 
vn -0.1355079710483551 0.9907160401344299 -0.010923141613602638 
vn -0.773684561252594 0.3546488881111145 0.5250108242034912 
vn 0.009363189339637756 0.18224558234214783 0.9832084774971008 
vn -0.7331885099411011 0.29808107018470764 0.611213743686676 
vn -0.11644864827394485 -0.36082327365875244 0.9253357648849487 
vn 0.7931920886039734 0.13517872989177704 0.5937785506248474 
vn 0.6875782608985901 -0.5517728328704834 0.47199884057044983 
vn 0.9230293035507202 0.2899852991104126 -0.2528347373008728 
vn -0.4929167330265045 0.8285803198814392 -0.26549527049064636 
vn -0.3008756935596466 0.9455404281616211 -0.12420600652694702 
vn -0.7597864270210266 0.3335982859134674 0.5580652356147766 
vn -0.34206637740135193 0.9330742359161377 -0.11118904501199722 
vn -0.8254798650741577 0.2781364321708679 0.4911446273326874 
vn -0.43221989274024963 -0.6231157183647156 0.6518533825874329 
vn -0.6150169968605042 -0.6563594937324524 0.4369739890098572 
vn 0.2629425823688507 -0.960655689239502 0.08945272862911224 
vn -0.028319118544459343 -0.9912998676300049 -0.12854059040546417 
vn 0.9004177451133728 -0.21685028076171875 -0.37712574005126953 
vn 0.2405335009098053 0.4770693778991699 -0.8453096151351929 
vn -0.7220920920372009 0.49100756645202637 -0.4873342216014862 
vn 0.3719275891780853 0.495833158493042 -0.7847415804862976 
vn -0.4929167330265045 0.8285803198814392 -0.26549527049064636 
vn 0.651885449886322 -0.4344407916069031 -0.6215356588363647 
vn 0.45604631304740906 -0.46807652711868286 -0.7569188475608826 
vn 0.3909943699836731 0.5439425706863403 -0.7424620389938354 
vn 0.322856068611145 0.5566835403442383 -0.7654197812080383 
vn -0.3008756935596466 0.9455404281616211 -0.12420600652694702 
vn -0.34206637740135193 0.9330742359161377 -0.11118904501199722 
vn -0.8066530823707581 -0.5860677361488342 0.07638952136039734 
vn -0.07733990997076035 -0.7310206890106201 -0.6779581904411316 
vn -0.18959921598434448 -0.48358163237571716 0.8545179963111877 
vn 0.6507540941238403 -0.5854341983795166 0.48351410031318665 
vn 0.6691349744796753 -0.6784778237342834 -0.30319342017173767 
vn 0.8258816003799438 -0.5356584787368774 0.17603838443756104 
vn 0.1339484602212906 -0.49020493030548096 0.8612530827522278 
vn 0.08482373505830765 -0.7564446926116943 -0.6485339999198914 
vn -0.5934579968452454 -0.7173675894737244 -0.3649539351463318 
vn -0.7356693744659424 -0.5456829071044922 0.4012738764286041 
vn 0.9097160696983337 0.39621883630752563 0.12420640885829926 
vn -0.26920008659362793 0.8602370023727417 0.4330400228500366 
vn 0.020669247955083847 -0.30457422137260437 0.9522643089294434 
vn -0.9707484841346741 -0.23567765951156616 -0.04586285352706909 
vn 0.013159938156604767 -0.45827311277389526 0.8887140154838562 
vn -0.8019051551818848 -0.5956884622573853 -0.04586286097764969 
vn -0.04899409040808678 0.40832677483558655 -0.9115200638771057 
vn -0.05855388566851616 0.07604822516441345 -0.9953833818435669 
vn 0.9097160696983337 0.39621883630752563 0.12420640885829926 
vn 0.9956838488578796 0.06785999983549118 0.06331411749124527 
vn 0.9956838488578796 0.06785999983549118 0.06331411749124527 
vn 0.72209233045578 0.49100756645202637 -0.4873337745666504 
vn 0.7721051573753357 0.3580735921859741 0.5250113010406494 
vn 0.1355079710483551 0.9907160401344299 -0.010923059657216072 
vn -0.013103649951517582 0.18201492726802826 0.983208417892456 
vn -0.793192446231842 0.13517872989177704 0.5937780737876892 
vn 0.11286652833223343 -0.3619595766067505 0.9253358840942383 
vn -0.6875784993171692 -0.5517728328704834 0.4719984233379364 
vn -0.9218904376029968 0.29358527064323425 -0.25283530354499817 
vn 0.49291691184043884 0.8285803198814392 -0.2654949724674225 
vn 0.734600841999054 0.29458242654800415 0.6112142205238342 
vn 0.3008757531642914 0.9455404281616211 -0.1242058202624321 
vn 0.7612949013710022 0.33014053106307983 0.5580657124519348 
vn 0.338519424200058 0.9343669414520264 -0.1111888438463211 
vn 0.8242666721343994 0.28171080350875854 0.49114513397216797 
vn 0.4322194755077362 -0.6231157183647156 0.651853621006012 
vn 0.617764413356781 -0.653774082660675 0.4369743764400482 
vn -0.25930026173591614 -0.961645245552063 0.08945256471633911 
vn 0.024544140323996544 -0.9914004802703857 -0.12854057550430298 
vn -0.9012936353683472 -0.2131795585155487 -0.3771262764930725 
vn -0.2405329942703247 0.4770693778991699 -0.8453097939491272 
vn 0.72209233045578 0.49100756645202637 -0.4873337745666504 
vn -0.37494486570358276 0.49355512857437134 -0.7847418189048767 
vn 0.49291691184043884 0.8285803198814392 -0.2654949724674225 
vn -0.6518850922584534 -0.4344407916069031 -0.6215360164642334 
vn -0.4587462842464447 -0.46543020009994507 -0.7569191455841064 
vn -0.3940556049346924 0.541728675365448 -0.7424622774124146 
vn -0.31958112120628357 0.5585697889328003 -0.7654199600219727 
vn 0.3008757531642914 0.9455404281616211 -0.1242058202624321 
vn 0.338519424200058 0.9343669414520264 -0.1111888438463211 
vn 0.8066530823707581 -0.5860677361488342 0.07639001309871674 
vn 0.08109798282384872 -0.7306133508682251 -0.6779581904411316 
vn 0.18608516454696655 -0.48494452238082886 0.8545181155204773 
vn -0.6532711982727051 -0.5826243758201599 0.4835137128829956 
vn -0.6718173623085022 -0.6758216023445129 -0.3031938374042511 
vt 0.04583396762609482 0.970363438129425 
vt 0.027154715731739998 0.9884393811225891 
vt 0.028126871213316917 0.9476214647293091 
vt 0.011878004297614098 0.976626992225647 
vt 0.009239299222826958 0.9550619721412659 
vt 0.5762136578559875 0.8239065408706665 
vt 0.5601730942726135 0.7675349116325378 
vt 0.5509375929832458 0.8196607828140259 
vt 0.5310084819793701 0.8123463988304138 
vt 0.5268420577049255 0.858292818069458 
vt 0.5066351294517517 0.8524076342582703 
vt 0.5145512819290161 0.7965404391288757 
vt 0.49142786860466003 0.8353826403617859 
vt 0.500802218914032 0.7755219340324402 
vt 0.4806647300720215 0.8200811743736267 
vt 0.5442019701004028 0.8596800565719604 
vt 0.3310224115848541 0.9846980571746826 
vt 0.3070657551288605 0.974777340888977 
vt 0.34421592950820923 0.9571217894554138 
vt 0.3310224115848541 0.9846980571746826 
vt 0.34428536891937256 0.9570797681808472 
vt 0.35886767506599426 0.9873043894767761 
vt 0.38775455951690674 0.9812089800834656 
vt 0.34428536891937256 0.9570797681808472 
vt 0.36692267656326294 0.9463603496551514 
vt 0.38775455951690674 0.9812089800834656 
vt 0.34428536891937256 0.9570797681808472 
vt 0.35886767506599426 0.9873043894767761 
vt 0.08117872476577759 0.8286567330360413 
vt 0.13457778096199036 0.8076382279396057 
vt 0.0939556136727333 0.802972137928009 
vt 0.11909274756908417 0.7538308501243591 
vt 0.14478540420532227 0.7458438277244568 
vt 0.17582489550113678 0.7880069613456726 
vt 0.15603461861610413 0.8429493308067322 
vt 0.11666236072778702 0.8622863292694092 
vt 0.13756367564201355 0.8999094367027283 
vt 0.10013573616743088 0.9123523831367493 
vt 0.08360911160707474 0.8828004002571106 
vt 0.0594441294670105 0.8598482012748718 
vt 0.024654891341924667 0.816339910030365 
vt 0.023127218708395958 0.7573619484901428 
vt 0.06673528999090195 0.7639617919921875 
vt 0.09999685734510422 0.7481138110160828 
vt 0.11305150389671326 0.7023775577545166 
vt 0.12228696793317795 0.7043533325195312 
vt 0.16068707406520844 0.7254138588905334 
vt 0.12346743792295456 0.6999814510345459 
vt 0.15360422432422638 0.6953153610229492 
vt 0.11735675483942032 0.6849322319030762 
vt 0.07756786793470383 0.7348301410675049 
vt 0.10832960903644562 0.6993929743766785 
vt 0.0913863480091095 0.6984681487083435 
vt 0.18318550288677216 0.6948109269142151 
vt 0.19915661215782166 0.7561008930206299 
vt 0.20887814462184906 0.8231078386306763 
vt 0.17506106197834015 0.8934777975082397 
vt 0.14610475301742554 0.9401808977127075 
vt 0.1052742674946785 0.9354307055473328 
vt 0.05909693241119385 0.9207177758216858 
vt 0.05118081718683243 0.8988164663314819 
vt 0.04097319766879082 0.8820857405662537 
vt 0.026043683290481567 0.8400487303733826 
vt 0.0594441294670105 0.8598482012748718 
vt 0.08117872476577759 0.8286567330360413 
vt 0.06673528999090195 0.7639617919921875 
vt 0.0939556136727333 0.802972137928009 
vt 0.09999685734510422 0.7481138110160828 
vt 0.11909274756908417 0.7538308501243591 
vt 0.11305150389671326 0.7023775577545166 
vt 0.12228696793317795 0.7043533325195312 
vt 0.07756786793470383 0.7348301410675049 
vt 0.10832960903644562 0.6993929743766785 
vt 0.0913863480091095 0.6984681487083435 
vt 0.13457778096199036 0.8076382279396057 
vt 0.11735675483942032 0.6849322319030762 
vt 0.12346743792295456 0.6999814510345459 
vt 0.15360422432422638 0.6953153610229492 
vt 0.16068707406520844 0.7254138588905334 
vt 0.18318550288677216 0.6948109269142151 
vt 0.19915661215782166 0.7561008930206299 
vt 0.14478540420532227 0.7458438277244568 
vt 0.17582489550113678 0.7880069613456726 
vt 0.15603461861610413 0.8429493308067322 
vt 0.11666236072778702 0.8622863292694092 
vt 0.08360911160707474 0.8828004002571106 
vt 0.20887814462184906 0.8231078386306763 
vt 0.17506106197834015 0.8934777975082397 
vt 0.13756367564201355 0.8999094367027283 
vt 0.10013573616743088 0.9123523831367493 
vt 0.27060994505882263 0.8062930703163147 
vt 0.2668602168560028 0.753326416015625 
vt 0.270054429769516 0.698930561542511 
vt 0.1892961859703064 0.6471830010414124 
vt 0.27554017305374146 0.6623583436012268 
vt 0.270054429769516 0.698930561542511 
vt 0.34497976303100586 0.6656792759895325 
vt 0.3410911560058594 0.698005735874176 
vt 0.3263005018234253 0.7371001243591309 
vt 0.3733111321926117 0.7027559280395508 
vt 0.3708112835884094 0.6763566732406616 
vt 0.41532209515571594 0.6692103743553162 
vt 0.4033784568309784 0.6582387089729309 
vt 0.41691920161247253 0.6755159497261047 
vt 0.38428258895874023 0.7155771851539612 
vt 0.3533819615840912 0.7570677399635315 
vt 0.4056699872016907 0.7257501482963562 
vt 0.421016126871109 0.6818214654922485 
vt 0.4327514171600342 0.7224292159080505 
vt 0.4268490672111511 0.6817374229431152 
vt 0.44893085956573486 0.7027559280395508 
vt 0.4340013265609741 0.6658474206924438 
vt 0.4758734107017517 0.7317614555358887 
vt 0.4358067512512207 0.7582447528839111 
vt 0.5034409165382385 0.7523175477981567 
vt 0.39636507630348206 0.7679973244667053 
vt 0.3869212865829468 0.7964143753051758 
vt 0.3394940495491028 0.7914960384368896 
vt 0.34060508012771606 0.8397965431213379 
vt 0.278178870677948 0.8582087159156799 
vt 0.22547420859336853 0.8783444762229919 
vt 0.1844354122877121 0.9392560720443726 
vt 0.14610475301742554 0.9401808977127075 
vt 0.1052742674946785 0.9354307055473328 
vt 0.05909693241119385 0.9207177758216858 
vt 0.05118081718683243 0.8988164663314819 
vt 0.04097319766879082 0.8820857405662537 
vt 0.015627743676304817 0.8645142912864685 
vt 0.025627044960856438 0.893561840057373 
vt 0.030973894521594048 0.9114275574684143 
vt 0.03361259773373604 0.9300499558448792 
vt 0.03562634810805321 0.9476214647293091 
vt 0.06381882727146149 0.9407694339752197 
vt 0.10673249512910843 0.964394211769104 
vt 0.40928083658218384 0.7935558557510376 
vt 0.03361259773373604 0.9300499558448792 
vt 0.030973894521594048 0.9114275574684143 
vt 0.025627044960856438 0.893561840057373 
vt 0.007433869875967503 0.8746031522750854 
vt 0.15006281435489655 0.9800739884376526 
vt 0.1844354122877121 0.9392560720443726 
vt 0.22547420859336853 0.8783444762229919 
vt 0.19367088377475739 0.9881030917167664 
vt 0.23811222612857819 0.9298818111419678 
vt 0.23811222612857819 0.9298818111419678 
vt 0.29123350977897644 0.9101244211196899 
vt 0.3504655063152313 0.8836831450462341 
vt 0.3853241801261902 0.8305904269218445 
vt 0.42136332392692566 0.8228556513786316 
vt 0.44566717743873596 0.7894362211227417 
vt 0.4764983654022217 0.7897304892539978 
vt 0.4358067512512207 0.7582447528839111 
vt 0.4758734107017517 0.7317614555358887 
vt 0.4327514171600342 0.7224292159080505 
vt 0.44893085956573486 0.7027559280395508 
vt 0.4268490672111511 0.6817374229431152 
vt 0.4340013265609741 0.6658474206924438 
vt 0.421016126871109 0.6818214654922485 
vt 0.4056699872016907 0.7257501482963562 
vt 0.4033784568309784 0.6582387089729309 
vt 0.41532209515571594 0.6692103743553162 
vt 0.3708112835884094 0.6763566732406616 
vt 0.3733111321926117 0.7027559280395508 
vt 0.3410911560058594 0.698005735874176 
vt 0.3263005018234253 0.7371001243591309 
vt 0.2668602168560028 0.753326416015625 
vt 0.27060994505882263 0.8062930703163147 
vt 0.41691920161247253 0.6755159497261047 
vt 0.38428258895874023 0.7155771851539612 
vt 0.3533819615840912 0.7570677399635315 
vt 0.39636507630348206 0.7679973244667053 
vt 0.3394940495491028 0.7914960384368896 
vt 0.3869212865829468 0.7964143753051758 
vt 0.40928083658218384 0.7935558557510376 
vt 0.44566717743873596 0.7894362211227417 
vt 0.46858224272727966 0.8081846833229065 
vt 0.44518110156059265 0.8155832290649414 
vt 0.4401814639568329 0.8506420850753784 
vt 0.42900168895721436 0.8516930341720581 
vt 0.39074045419692993 0.8653550148010254 
vt 0.36643660068511963 0.9231138825416565 
vt 0.30748239159584045 0.9585930705070496 
vt 0.2522779107093811 0.9823019504547119 
vt 0.29123350977897644 0.9101244211196899 
vt 0.34060508012771606 0.8397965431213379 
vt 0.278178870677948 0.8582087159156799 
vt 0.3853241801261902 0.8305904269218445 
vt 0.3504655063152313 0.8836831450462341 
vt 0.39074045419692993 0.8653550148010254 
vt 0.40372565388679504 0.8983120322227478 
vt 0.4274740219116211 0.8832207322120667 
vt 0.42900168895721436 0.8516930341720581 
vt 0.42136332392692566 0.8228556513786316 
vt 0.44518110156059265 0.8155832290649414 
vt 0.4401814639568329 0.8506420850753784 
vt 0.4406675398349762 0.8748553991317749 
vt 0.4804564118385315 0.8687600493431091 
vt 0.48101192712783813 0.8570317029953003 
vt 0.46108278632164 0.832482099533081 
vt 0.48101192712783813 0.8570317029953003 
vt 0.5051074624061584 0.8651028275489807 
vt 0.4874003827571869 0.8454294800758362 
vt 0.40421172976493835 0.9651508927345276 
vt 0.3876851201057434 0.9438801407814026 
vt 0.40837812423706055 0.9571217894554138 
vt 0.4092113971710205 0.9497653245925903 
vt 0.4376122057437897 0.9645203351974487 
vt 0.436292827129364 0.9522875547409058 
vt 0.4090030789375305 0.9421986937522888 
vt 0.43476516008377075 0.9405592083930969 
vt 0.40837812423706055 0.9347161054611206 
vt 0.4349040389060974 0.979191243648529 
vt 0.46767953038215637 0.9881030917167664 
vt 0.46851280331611633 0.9699010252952576 
vt 0.4948998689651489 0.9862954616546631 
vt 0.500593900680542 0.9728856682777405 
vt 0.47087377309799194 0.9534645676612854 
vt 0.5085794925689697 0.9546416401863098 
vt 0.47247087955474854 0.9377847909927368 
vt 0.509273886680603 0.9319836497306824 
vt 0.4355289936065674 0.9286206960678101 
vt 0.406364381313324 0.9277799725532532 
vt 0.4008091986179352 0.9205916523933411 
vt 0.43448740243911743 0.9158414602279663 
vt 0.42782121896743774 0.9018011093139648 
vt 0.47066545486450195 0.9220629334449768 
vt 0.5002467036247253 0.9115116596221924 
vt 0.46511027216911316 0.9057525992393494 
vt 0.48865029215812683 0.8964203596115112 
vt 0.4573330283164978 0.8885594606399536 
vt 0.4833034574985504 0.8838933706283569 
vt 0.07131829857826233 0.9598541855812073 
vt 0.09263625741004944 0.9711201190948486 
vt 0.0469450019299984 0.9773415923118591 
vt 0.05930525064468384 0.9898265600204468 
vt 0.08333135396242142 0.9915080666542053 
vt 0.04583396762609482 0.970363438129425 
vt 0.028126871213316917 0.9476214647293091 
vt 0.027154715731739998 0.9884393811225891 
vt 0.011878004297614098 0.976626992225647 
vt 0.009239299222826958 0.9550619721412659 
vt 0.5762136578559875 0.8239065408706665 
vt 0.5601730942726135 0.7675349116325378 
vt 0.5509375929832458 0.8196607828140259 
vt 0.5310084819793701 0.8123463988304138 
vt 0.5268420577049255 0.858292818069458 
vt 0.5066351294517517 0.8524076342582703 
vt 0.5145512819290161 0.7965404391288757 
vt 0.49142786860466003 0.8353826403617859 
vt 0.500802218914032 0.7755219340324402 
vt 0.4806647300720215 0.8200811743736267 
vt 0.5442019701004028 0.8596800565719604 
vt 0.40421172976493835 0.9651508927345276 
vt 0.40837812423706055 0.9571217894554138 
vt 0.3876851201057434 0.9438801407814026 
vt 0.4092113971710205 0.9497653245925903 
vt 0.4090030789375305 0.9421986937522888 
vt 0.436292827129364 0.9522875547409058 
vt 0.43476516008377075 0.9405592083930969 
vt 0.40837812423706055 0.9347161054611206 
vt 0.4349040389060974 0.979191243648529 
vt 0.4376122057437897 0.9645203351974487 
vt 0.46767953038215637 0.9881030917167664 
vt 0.46851280331611633 0.9699010252952576 
vt 0.4948998689651489 0.9862954616546631 
vt 0.500593900680542 0.9728856682777405 
vt 0.47087377309799194 0.9534645676612854 
vt 0.5085794925689697 0.9546416401863098 
vt 0.47247087955474854 0.9377847909927368 
vt 0.509273886680603 0.9319836497306824 
vt 0.4355289936065674 0.9286206960678101 
vt 0.406364381313324 0.9277799725532532 
vt 0.4008091986179352 0.9205916523933411 
vt 0.43448740243911743 0.9158414602279663 
vt 0.42782121896743774 0.9018011093139648 
vt 0.47066545486450195 0.9220629334449768 
vt 0.5002467036247253 0.9115116596221924 
vt 0.46511027216911316 0.9057525992393494 
vt 0.48865029215812683 0.8964203596115112 
vt 0.4573330283164978 0.8885594606399536 
vt 0.4833034574985504 0.8838933706283569 
vt 0.07131829857826233 0.9598541855812073 
vt 0.09263625741004944 0.9711201190948486 
vt 0.0469450019299984 0.9773415923118591 
vt 0.05930525064468384 0.9898265600204468 
vt 0.08333135396242142 0.9915080666542053 
s on 
f 1/1/1 2/2/2 3/3/3 
f 2/2/2 4/4/4 3/3/3 
f 3/3/3 4/4/4 5/5/5 
f 4/4/4 5/5/5 5/5/5 
f 5/5/5 5/5/5 6/6/6 
f 5/5/5 6/6/6 6/6/6 
f 6/6/6 6/6/6 7/7/7 
f 6/6/6 8/8/8 7/7/7 
f 7/7/7 8/8/8 9/9/9 
f 8/8/8 10/10/10 9/9/9 
f 9/9/9 10/10/10 9/9/9 
f 10/10/10 11/11/11 9/9/9 
f 9/9/9 11/11/11 12/12/12 
f 11/11/11 13/13/13 12/12/12 
f 12/12/12 13/13/13 14/14/14 
f 13/13/13 15/15/15 14/14/14 
f 14/14/14 15/15/15 15/15/15 
f 15/15/15 9/9/9 15/15/15 
f 15/15/15 9/9/9 9/9/9 
f 9/9/9 12/12/12 9/9/9 
f 9/9/9 12/12/12 7/7/7 
f 12/12/12 14/14/14 7/7/7 
f 7/7/7 14/14/14 14/14/14 
f 14/14/14 6/6/6 14/14/14 
f 14/14/14 6/6/6 6/6/6 
f 6/6/6 16/16/16 6/6/6 
f 6/6/6 16/16/16 8/8/8 
f 16/16/16 10/10/10 8/8/8 
f 8/8/8 10/10/10 10/10/10 
f 10/10/10 17/17/17 10/10/10 
f 10/10/10 17/17/17 17/17/17 
f 17/17/17 18/18/18 17/17/17 
f 17/17/17 18/18/18 19/19/19 
f 18/18/18 20/20/20 19/19/19 
f 19/19/19 20/20/20 21/21/21 
f 20/20/20 22/22/22 21/21/21 
f 21/21/21 22/22/22 21/21/21 
f 22/22/22 23/23/23 21/21/21 
f 21/21/21 23/23/23 24/24/24 
f 23/23/23 25/25/25 24/24/24 
f 24/24/24 25/25/25 24/24/24 
f 25/25/25 26/26/26 24/24/24 
f 24/24/24 26/26/26 27/27/27 
f 26/26/26 28/28/28 27/27/27 
f 27/27/27 28/28/28 27/27/27 
f 28/28/28 17/17/17 27/27/27 
f 27/27/27 17/17/17 19/19/19 
f 17/17/17 19/19/19 19/19/19 
f 19/19/19 19/19/19 29/29/29 
f 19/19/19 29/29/29 29/29/29 
f 29/29/29 29/29/29 30/30/30 
f 29/29/29 31/31/31 30/30/30 
f 30/30/30 31/31/31 30/30/30 
f 31/31/31 32/32/32 30/30/30 
f 30/30/30 32/32/32 30/30/30 
f 32/32/32 33/33/33 30/30/30 
f 30/30/30 33/33/33 30/30/30 
f 33/33/33 34/34/34 30/30/30 
f 30/30/30 34/34/34 30/30/30 
f 34/34/34 35/35/35 30/30/30 
f 30/30/30 35/35/35 36/36/36 
f 35/35/35 37/37/37 36/36/36 
f 36/36/36 37/37/37 36/36/36 
f 37/37/37 38/38/38 36/36/36 
f 36/36/36 38/38/38 36/36/36 
f 38/38/38 39/39/39 36/36/36 
f 36/36/36 39/39/39 29/29/29 
f 39/39/39 40/40/40 29/29/29 
f 29/29/29 40/40/40 29/29/29 
f 40/40/40 41/41/41 29/29/29 
f 29/29/29 41/41/41 29/29/29 
f 41/41/41 42/42/42 29/29/29 
f 29/29/29 42/42/42 29/29/29 
f 42/42/42 43/43/43 29/29/29 
f 29/29/29 43/43/43 31/31/31 
f 43/43/43 44/44/44 31/31/31 
f 31/31/31 44/44/44 32/32/32 
f 44/44/44 45/45/45 32/32/32 
f 32/32/32 45/45/45 32/32/32 
f 45/45/45 46/46/46 32/32/32 
f 32/32/32 46/46/46 33/33/33 
f 46/46/46 46/46/46 33/33/33 
f 33/33/33 46/46/46 47/47/47 
f 46/46/46 48/48/48 47/47/47 
f 47/47/47 48/48/48 49/49/49 
f 48/48/48 50/50/50 49/49/49 
f 49/49/49 50/50/50 50/50/50 
f 50/50/50 30/30/30 50/50/50 
f 50/50/50 30/30/30 30/30/30 
f 30/30/30 36/36/36 30/30/30 
f 30/30/30 36/36/36 29/29/29 
f 36/36/36 29/29/29 29/29/29 
f 29/29/29 29/29/29 43/43/43 
f 29/29/29 43/43/43 43/43/43 
f 43/43/43 43/43/43 44/44/44 
f 43/43/43 51/51/51 44/44/44 
f 44/44/44 51/51/51 52/52/52 
f 51/51/51 53/53/53 52/52/52 
f 52/52/52 53/53/53 53/53/53 
f 53/53/53 44/44/44 53/53/53 
f 53/53/53 44/44/44 44/44/44 
f 44/44/44 52/52/52 44/44/44 
f 44/44/44 52/52/52 45/45/45 
f 52/52/52 45/45/45 45/45/45 
f 45/45/45 45/45/45 49/49/49 
f 45/45/45 49/49/49 49/49/49 
f 49/49/49 49/49/49 47/47/47 
f 49/49/49 54/54/54 47/47/47 
f 47/47/47 54/54/54 47/47/47 
f 54/54/54 55/55/55 47/47/47 
f 47/47/47 55/55/55 33/33/33 
f 55/55/55 55/55/55 33/33/33 
f 33/33/33 55/55/55 34/34/34 
f 55/55/55 56/56/56 34/34/34 
f 34/34/34 56/56/56 35/35/35 
f 56/56/56 57/57/57 35/35/35 
f 35/35/35 57/57/57 37/37/37 
f 57/57/57 58/58/58 37/37/37 
f 37/37/37 58/58/58 37/37/37 
f 58/58/58 59/59/59 37/37/37 
f 37/37/37 59/59/59 38/38/38 
f 59/59/59 60/60/60 38/38/38 
f 38/38/38 60/60/60 39/39/39 
f 60/60/60 61/61/61 39/39/39 
f 39/39/39 61/61/61 40/40/40 
f 61/61/61 62/62/62 40/40/40 
f 40/40/40 62/62/62 40/40/40 
f 62/62/62 63/63/63 40/40/40 
f 40/40/40 63/63/63 41/41/41 
f 63/63/63 64/64/64 41/41/41 
f 41/41/41 64/64/64 41/41/41 
f 64/64/64 65/65/65 41/41/41 
f 41/41/41 65/65/65 42/42/42 
f 65/65/65 65/65/65 42/42/42 
f 42/42/42 65/65/65 66/66/66 
f 65/65/65 67/67/67 66/66/66 
f 66/66/66 67/67/67 68/68/68 
f 67/67/67 69/69/69 68/68/68 
f 68/68/68 69/69/69 70/70/70 
f 69/69/69 71/71/71 70/70/70 
f 70/70/70 71/71/71 71/71/71 
f 71/71/71 66/66/66 71/71/71 
f 71/71/71 66/66/66 66/66/66 
f 66/66/66 68/68/68 66/66/66 
f 66/66/66 68/68/68 72/72/72 
f 68/68/68 73/73/73 72/72/72 
f 72/72/72 73/73/73 74/74/74 
f 73/73/73 74/74/74 74/74/74 
f 74/74/74 74/74/74 68/68/68 
f 74/74/74 68/68/68 68/68/68 
f 68/68/68 68/68/68 73/73/73 
f 68/68/68 70/70/70 73/73/73 
f 73/73/73 70/70/70 70/70/70 
f 70/70/70 69/69/69 70/70/70 
f 70/70/70 69/69/69 69/69/69 
f 69/69/69 67/67/67 69/69/69 
f 69/69/69 67/67/67 75/75/75 
f 67/67/67 65/65/65 75/75/75 
f 75/75/75 65/65/65 65/65/65 
f 65/65/65 76/76/76 65/65/65 
f 65/65/65 76/76/76 76/76/76 
f 76/76/76 77/77/77 76/76/76 
f 76/76/76 77/77/77 78/78/78 
f 77/77/77 79/79/79 78/78/78 
f 78/78/78 79/79/79 80/80/80 
f 79/79/79 79/79/79 80/80/80 
f 80/80/80 79/79/79 81/81/81 
f 79/79/79 82/82/82 81/81/81 
f 81/81/81 82/82/82 83/83/83 
f 82/82/82 75/75/75 83/83/83 
f 83/83/83 75/75/75 84/84/84 
f 75/75/75 75/75/75 84/84/84 
f 84/84/84 75/75/75 85/85/85 
f 75/75/75 65/65/65 85/85/85 
f 85/85/85 65/65/65 86/86/86 
f 65/65/65 64/64/64 86/86/86 
f 86/86/86 64/64/64 64/64/64 
f 64/64/64 75/75/75 64/64/64 
f 64/64/64 75/75/75 75/75/75 
f 75/75/75 82/82/82 75/75/75 
f 75/75/75 82/82/82 69/69/69 
f 82/82/82 82/82/82 69/69/69 
f 69/69/69 82/82/82 71/71/71 
f 82/82/82 79/79/79 71/71/71 
f 71/71/71 79/79/79 77/77/77 
f 79/79/79 77/77/77 77/77/77 
f 77/77/77 77/77/77 83/83/83 
f 77/77/77 83/83/83 83/83/83 
f 83/83/83 83/83/83 87/87/87 
f 83/83/83 84/84/84 87/87/87 
f 87/87/87 84/84/84 88/88/88 
f 84/84/84 84/84/84 88/88/88 
f 88/88/88 84/84/84 89/89/89 
f 84/84/84 85/85/85 89/89/89 
f 89/89/89 85/85/85 90/90/90 
f 85/85/85 86/86/86 90/90/90 
f 90/90/90 86/86/86 86/86/86 
f 86/86/86 83/83/83 86/86/86 
f 86/86/86 83/83/83 83/83/83 
f 83/83/83 87/87/87 83/83/83 
f 83/83/83 87/87/87 81/81/81 
f 87/87/87 91/91/91 81/81/81 
f 81/81/81 91/91/91 81/81/81 
f 91/91/91 92/92/92 81/81/81 
f 81/81/81 92/92/92 80/80/80 
f 92/92/92 93/93/93 80/80/80 
f 80/80/80 93/93/93 94/94/94 
f 93/93/93 95/95/95 94/94/94 
f 94/94/94 95/95/95 96/96/96 
f 95/95/95 95/95/95 96/96/96 
f 96/96/96 95/95/95 97/97/97 
f 95/95/95 93/93/93 97/97/97 
f 97/97/97 93/93/93 98/98/98 
f 93/93/93 99/99/99 98/98/98 
f 98/98/98 99/99/99 98/98/98 
f 99/99/99 100/100/100 98/98/98 
f 98/98/98 100/100/100 101/101/101 
f 100/100/100 102/102/102 101/101/101 
f 101/101/101 102/102/102 103/103/103 
f 102/102/102 103/103/103 103/103/103 
f 103/103/103 103/103/103 96/96/96 
f 103/103/103 96/96/96 96/96/96 
f 96/96/96 96/96/96 94/94/94 
f 96/96/96 54/54/54 94/94/94 
f 94/94/94 54/54/54 54/54/54 
f 54/54/54 93/93/93 54/54/54 
f 54/54/54 93/93/93 93/93/93 
f 93/93/93 92/92/92 93/93/93 
f 93/93/93 92/92/92 99/99/99 
f 92/92/92 99/99/99 99/99/99 
f 99/99/99 99/99/99 102/102/102 
f 99/99/99 102/102/102 102/102/102 
f 102/102/102 102/102/102 104/104/104 
f 102/102/102 100/100/100 104/104/104 
f 104/104/104 100/100/100 105/105/105 
f 100/100/100 99/99/99 105/105/105 
f 105/105/105 99/99/99 105/105/105 
f 99/99/99 106/106/106 105/105/105 
f 105/105/105 106/106/106 105/105/105 
f 106/106/106 107/107/107 105/105/105 
f 105/105/105 107/107/107 108/108/108 
f 107/107/107 109/109/109 108/108/108 
f 108/108/108 109/109/109 110/110/110 
f 109/109/109 111/111/111 110/110/110 
f 110/110/110 111/111/111 112/112/112 
f 111/111/111 112/112/112 112/112/112 
f 112/112/112 112/112/112 105/105/105 
f 112/112/112 105/105/105 105/105/105 
f 105/105/105 105/105/105 104/104/104 
f 105/105/105 108/108/108 104/104/104 
f 104/104/104 108/108/108 108/108/108 
f 108/108/108 111/111/111 108/108/108 
f 108/108/108 111/111/111 111/111/111 
f 111/111/111 109/109/109 111/111/111 
f 111/111/111 109/109/109 113/113/113 
f 109/109/109 114/114/114 113/113/113 
f 113/113/113 114/114/114 115/115/115 
f 114/114/114 115/115/115 115/115/115 
f 115/115/115 115/115/115 109/109/109 
f 115/115/115 109/109/109 109/109/109 
f 109/109/109 109/109/109 114/114/114 
f 109/109/109 107/107/107 114/114/114 
f 114/114/114 107/107/107 116/116/116 
f 107/107/107 106/106/106 116/116/116 
f 116/116/116 106/106/106 117/117/117 
f 106/106/106 106/106/106 117/117/117 
f 117/117/117 106/106/106 118/118/118 
f 106/106/106 99/99/99 118/118/118 
f 118/118/118 99/99/99 118/118/118 
f 99/99/99 92/92/92 118/118/118 
f 118/118/118 92/92/92 118/118/118 
f 92/92/92 91/91/91 118/118/118 
f 118/118/118 91/91/91 119/119/119 
f 91/91/91 91/91/91 119/119/119 
f 119/119/119 91/91/91 120/120/120 
f 91/91/91 87/87/87 120/120/120 
f 120/120/120 87/87/87 121/121/121 
f 87/87/87 88/88/88 121/121/121 
f 121/121/121 88/88/88 122/122/122 
f 88/88/88 88/88/88 122/122/122 
f 122/122/122 88/88/88 123/123/123 
f 88/88/88 89/89/89 123/123/123 
f 123/123/123 89/89/89 124/124/124 
f 89/89/89 90/90/90 124/124/124 
f 124/124/124 90/90/90 125/125/125 
f 90/90/90 86/86/86 125/125/125 
f 125/125/125 86/86/86 126/126/126 
f 86/86/86 64/64/64 126/126/126 
f 126/126/126 64/64/64 127/127/127 
f 64/64/64 63/63/63 127/127/127 
f 127/127/127 63/63/63 128/128/128 
f 63/63/63 62/62/62 128/128/128 
f 128/128/128 62/62/62 129/129/129 
f 62/62/62 62/62/62 129/129/129 
f 129/129/129 62/62/62 130/130/130 
f 62/62/62 61/61/61 130/130/130 
f 130/130/130 61/61/61 131/131/131 
f 61/61/61 60/60/60 131/131/131 
f 131/131/131 60/60/60 132/132/132 
f 60/60/60 60/60/60 132/132/132 
f 132/132/132 60/60/60 133/133/133 
f 60/60/60 59/59/59 133/133/133 
f 133/133/133 59/59/59 134/134/134 
f 59/59/59 58/58/58 134/134/134 
f 134/134/134 58/58/58 58/58/58 
f 58/58/58 119/119/119 58/58/58 
f 58/58/58 119/119/119 119/119/119 
f 119/119/119 117/117/117 119/119/119 
f 119/119/119 117/117/117 118/118/118 
f 117/117/117 118/118/118 118/118/118 
f 118/118/118 118/118/118 114/114/114 
f 118/118/118 114/114/114 114/114/114 
f 114/114/114 114/114/114 135/135/135 
f 114/114/114 116/116/116 135/135/135 
f 135/135/135 116/116/116 117/117/117 
f 116/116/116 117/117/117 117/117/117 
f 117/117/117 117/117/117 132/132/132 
f 117/117/117 132/132/132 132/132/132 
f 132/132/132 132/132/132 125/125/125 
f 132/132/132 133/133/133 125/125/125 
f 125/125/125 133/133/133 124/124/124 
f 133/133/133 134/134/134 124/124/124 
f 124/124/124 134/134/134 134/134/134 
f 134/134/134 132/132/132 134/134/134 
f 134/134/134 132/132/132 132/132/132 
f 132/132/132 125/125/125 132/132/132 
f 132/132/132 125/125/125 136/136/136 
f 125/125/125 126/126/126 136/136/136 
f 136/136/136 126/126/126 137/137/137 
f 126/126/126 127/127/127 137/137/137 
f 137/137/137 127/127/127 138/138/138 
f 127/127/127 128/128/128 138/138/138 
f 138/138/138 128/128/128 139/139/139 
f 128/128/128 129/129/129 139/139/139 
f 139/139/139 129/129/129 129/129/129 
f 129/129/129 124/124/124 129/129/129 
f 129/129/129 124/124/124 124/124/124 
f 124/124/124 134/134/134 124/124/124 
f 124/124/124 134/134/134 123/123/123 
f 134/134/134 140/140/140 123/123/123 
f 123/123/123 140/140/140 122/122/122 
f 140/140/140 122/122/122 122/122/122 
f 122/122/122 122/122/122 134/134/134 
f 122/122/122 134/134/134 134/134/134 
f 134/134/134 134/134/134 140/140/140 
f 134/134/134 58/58/58 140/140/140 
f 140/140/140 58/58/58 141/141/141 
f 58/58/58 57/57/57 141/141/141 
f 141/141/141 57/57/57 142/142/142 
f 57/57/57 56/56/56 142/142/142 
f 142/142/142 56/56/56 56/56/56 
f 56/56/56 140/140/140 56/56/56 
f 56/56/56 140/140/140 140/140/140 
f 140/140/140 141/141/141 140/140/140 
f 140/140/140 141/141/141 143/143/143 
f 141/141/141 141/141/141 143/143/143 
f 143/143/143 141/141/141 144/144/144 
f 141/141/141 142/142/142 144/144/144 
f 144/144/144 142/142/142 142/142/142 
f 142/142/142 140/140/140 142/142/142 
f 142/142/142 140/140/140 140/140/140 
f 140/140/140 143/143/143 140/140/140 
f 140/140/140 143/143/143 122/122/122 
f 143/143/143 145/145/145 122/122/122 
f 122/122/122 145/145/145 121/121/121 
f 145/145/145 145/145/145 121/121/121 
f 121/121/121 145/145/145 120/120/120 
f 145/145/145 146/146/146 120/120/120 
f 120/120/120 146/146/146 119/119/119 
f 146/146/146 147/147/147 119/119/119 
f 119/119/119 147/147/147 119/119/119 
f 147/147/147 148/148/148 119/119/119 
f 119/119/119 148/148/148 117/117/117 
f 148/148/148 149/149/149 117/117/117 
f 117/117/117 149/149/149 135/135/135 
f 149/149/149 150/150/150 135/135/135 
f 135/135/135 150/150/150 114/114/114 
f 150/150/150 151/151/151 114/114/114 
f 114/114/114 151/151/151 115/115/115 
f 151/151/151 152/152/152 115/115/115 
f 115/115/115 152/152/152 153/153/153 
f 152/152/152 154/154/154 153/153/153 
f 153/153/153 154/154/154 155/155/155 
f 154/154/154 156/156/156 155/155/155 
f 155/155/155 156/156/156 157/157/157 
f 156/156/156 157/157/157 157/157/157 
f 157/157/157 157/157/157 156/156/156 
f 157/157/157 156/156/156 156/156/156 
f 156/156/156 156/156/156 158/158/158 
f 156/156/156 154/154/154 158/158/158 
f 158/158/158 154/154/154 159/159/159 
f 154/154/154 152/152/152 159/159/159 
f 159/159/159 152/152/152 152/152/152 
f 152/152/152 160/160/160 152/152/152 
f 152/152/152 160/160/160 160/160/160 
f 160/160/160 161/161/161 160/160/160 
f 160/160/160 161/161/161 162/162/162 
f 161/161/161 163/163/163 162/162/162 
f 162/162/162 163/163/163 164/164/164 
f 163/163/163 165/165/165 164/164/164 
f 164/164/164 165/165/165 96/96/96 
f 165/165/165 166/166/166 96/96/96 
f 96/96/96 166/166/166 54/54/54 
f 166/166/166 166/166/166 54/54/54 
f 54/54/54 166/166/166 55/55/55 
f 166/166/166 167/167/167 55/55/55 
f 55/55/55 167/167/167 56/56/56 
f 167/167/167 56/56/56 56/56/56 
f 56/56/56 56/56/56 161/161/161 
f 56/56/56 161/161/161 161/161/161 
f 161/161/161 161/161/161 163/163/163 
f 161/161/161 168/168/168 163/163/163 
f 163/163/163 168/168/168 169/169/169 
f 168/168/168 158/158/158 169/169/169 
f 169/169/169 158/158/158 169/169/169 
f 158/158/158 159/159/159 169/169/169 
f 169/169/169 159/159/159 170/170/170 
f 159/159/159 159/159/159 170/170/170 
f 170/170/170 159/159/159 171/171/171 
f 159/159/159 152/152/152 171/171/171 
f 171/171/171 152/152/152 152/152/152 
f 152/152/152 163/163/163 152/152/152 
f 152/152/152 163/163/163 163/163/163 
f 163/163/163 169/169/169 163/163/163 
f 163/163/163 169/169/169 165/165/165 
f 169/169/169 170/170/170 165/165/165 
f 165/165/165 170/170/170 172/172/172 
f 170/170/170 170/170/170 172/172/172 
f 172/172/172 170/170/170 173/173/173 
f 170/170/170 171/171/171 173/173/173 
f 173/173/173 171/171/171 174/174/174 
f 171/171/171 152/152/152 174/174/174 
f 174/174/174 152/152/152 175/175/175 
f 152/152/152 151/151/151 175/175/175 
f 175/175/175 151/151/151 176/176/176 
f 151/151/151 150/150/150 176/176/176 
f 176/176/176 150/150/150 177/177/177 
f 150/150/150 149/149/149 177/177/177 
f 177/177/177 149/149/149 178/178/178 
f 149/149/149 149/149/149 178/178/178 
f 178/178/178 149/149/149 179/179/179 
f 149/149/149 148/148/148 179/179/179 
f 179/179/179 148/148/148 180/180/180 
f 148/148/148 147/147/147 180/180/180 
f 180/180/180 147/147/147 181/181/181 
f 147/147/147 146/146/146 181/181/181 
f 181/181/181 146/146/146 182/182/182 
f 146/146/146 145/145/145 182/182/182 
f 182/182/182 145/145/145 183/183/183 
f 145/145/145 143/143/143 183/183/183 
f 183/183/183 143/143/143 183/183/183 
f 143/143/143 144/144/144 183/183/183 
f 183/183/183 144/144/144 182/182/182 
f 144/144/144 184/184/184 182/182/182 
f 182/182/182 184/184/184 181/181/181 
f 184/184/184 181/181/181 181/181/181 
f 181/181/181 181/181/181 97/97/97 
f 181/181/181 97/97/97 97/97/97 
f 97/97/97 97/97/97 96/96/96 
f 97/97/97 164/164/164 96/96/96 
f 96/96/96 164/164/164 164/164/164 
f 164/164/164 165/165/165 164/164/164 
f 164/164/164 165/165/165 165/165/165 
f 165/165/165 172/172/172 165/165/165 
f 165/165/165 172/172/172 166/166/166 
f 172/172/172 172/172/172 166/166/166 
f 166/166/166 172/172/172 167/167/167 
f 172/172/172 185/185/185 167/167/167 
f 167/167/167 185/185/185 186/186/186 
f 185/185/185 184/184/184 186/186/186 
f 186/186/186 184/184/184 186/186/186 
f 184/184/184 144/144/144 186/186/186 
f 186/186/186 144/144/144 186/186/186 
f 144/144/144 142/142/142 186/186/186 
f 186/186/186 142/142/142 186/186/186 
f 142/142/142 56/56/56 186/186/186 
f 186/186/186 56/56/56 167/167/167 
f 56/56/56 167/167/167 167/167/167 
f 167/167/167 167/167/167 172/172/172 
f 167/167/167 172/172/172 172/172/172 
f 172/172/172 172/172/172 185/185/185 
f 172/172/172 173/173/173 185/185/185 
f 185/185/185 173/173/173 185/185/185 
f 173/173/173 187/187/187 185/185/185 
f 185/185/185 187/187/187 188/188/188 
f 187/187/187 189/189/189 188/188/188 
f 188/188/188 189/189/189 181/181/181 
f 189/189/189 190/190/190 181/181/181 
f 181/181/181 190/190/190 180/180/180 
f 190/190/190 190/190/190 180/180/180 
f 180/180/180 190/190/190 179/179/179 
f 190/190/190 191/191/191 179/179/179 
f 179/179/179 191/191/191 178/178/178 
f 191/191/191 178/178/178 178/178/178 
f 178/178/178 178/178/178 185/185/185 
f 178/178/178 185/185/185 185/185/185 
f 185/185/185 185/185/185 184/184/184 
f 185/185/185 188/188/188 184/184/184 
f 184/184/184 188/188/188 181/181/181 
f 188/188/188 181/181/181 181/181/181 
f 181/181/181 181/181/181 191/191/191 
f 181/181/181 191/191/191 191/191/191 
f 191/191/191 191/191/191 192/192/192 
f 191/191/191 190/190/190 192/192/192 
f 192/192/192 190/190/190 192/192/192 
f 190/190/190 189/189/189 192/192/192 
f 192/192/192 189/189/189 192/192/192 
f 189/189/189 187/187/187 192/192/192 
f 192/192/192 187/187/187 193/193/193 
f 187/187/187 173/173/173 193/193/193 
f 193/193/193 173/173/173 193/193/193 
f 173/173/173 174/174/174 193/193/193 
f 193/193/193 174/174/174 193/193/193 
f 174/174/174 175/175/175 193/193/193 
f 193/193/193 175/175/175 194/194/194 
f 175/175/175 176/176/176 194/194/194 
f 194/194/194 176/176/176 176/176/176 
f 176/176/176 194/194/194 176/176/176 
f 176/176/176 194/194/194 194/194/194 
f 194/194/194 195/195/195 194/194/194 
f 194/194/194 195/195/195 193/193/193 
f 195/195/195 195/195/195 193/193/193 
f 193/193/193 195/195/195 192/192/192 
f 195/195/195 195/195/195 192/192/192 
f 192/192/192 195/195/195 191/191/191 
f 195/195/195 196/196/196 191/191/191 
f 191/191/191 196/196/196 178/178/178 
f 196/196/196 197/197/197 178/178/178 
f 178/178/178 197/197/197 178/178/178 
f 197/197/197 198/198/198 178/178/178 
f 178/178/178 198/198/198 178/178/178 
f 198/198/198 199/199/199 178/178/178 
f 178/178/178 199/199/199 177/177/177 
f 199/199/199 199/199/199 177/177/177 
f 177/177/177 199/199/199 176/176/176 
f 199/199/199 199/199/199 176/176/176 
f 176/176/176 199/199/199 194/194/194 
f 199/199/199 199/199/199 194/194/194 
f 194/194/194 199/199/199 195/195/195 
f 199/199/199 200/200/200 195/195/195 
f 195/195/195 200/200/200 197/197/197 
f 200/200/200 201/201/201 197/197/197 
f 197/197/197 201/201/201 198/198/198 
f 201/201/201 202/202/202 198/198/198 
f 198/198/198 202/202/202 199/199/199 
f 202/202/202 202/202/202 199/199/199 
f 199/199/199 202/202/202 200/200/200 
f 202/202/202 201/201/201 200/200/200 
f 200/200/200 201/201/201 201/201/201 
f 201/201/201 195/195/195 201/201/201 
f 201/201/201 195/195/195 195/195/195 
f 195/195/195 197/197/197 195/195/195 
f 195/195/195 197/197/197 196/196/196 
f 197/197/197 196/196/196 196/196/196 
f 196/196/196 196/196/196 203/203/203 
f 196/196/196 203/203/203 203/203/203 
f 203/203/203 203/203/203 204/204/204 
f 203/203/203 205/205/205 204/204/204 
f 204/204/204 205/205/205 206/206/206 
f 205/205/205 207/207/207 206/206/206 
f 206/206/206 207/207/207 206/206/206 
f 207/207/207 208/208/208 206/206/206 
f 206/206/206 208/208/208 209/209/209 
f 208/208/208 210/210/210 209/209/209 
f 209/209/209 210/210/210 209/209/209 
f 210/210/210 211/211/211 209/209/209 
f 209/209/209 211/211/211 209/209/209 
f 211/211/211 204/204/204 209/209/209 
f 209/209/209 204/204/204 206/206/206 
f 204/204/204 206/206/206 206/206/206 
f 206/206/206 206/206/206 203/203/203 
f 206/206/206 203/203/203 203/203/203 
f 203/203/203 203/203/203 205/205/205 
f 203/203/203 212/212/212 205/205/205 
f 205/205/205 212/212/212 207/207/207 
f 212/212/212 213/213/213 207/207/207 
f 207/207/207 213/213/213 214/214/214 
f 213/213/213 215/215/215 214/214/214 
f 214/214/214 215/215/215 214/214/214 
f 215/215/215 216/216/216 214/214/214 
f 214/214/214 216/216/216 217/217/217 
f 216/216/216 218/218/218 217/217/217 
f 217/217/217 218/218/218 219/219/219 
f 218/218/218 220/220/220 219/219/219 
f 219/219/219 220/220/220 220/220/220 
f 220/220/220 207/207/207 220/220/220 
f 220/220/220 207/207/207 207/207/207 
f 207/207/207 214/214/214 207/207/207 
f 207/207/207 214/214/214 208/208/208 
f 214/214/214 217/217/217 208/208/208 
f 208/208/208 217/217/217 210/210/210 
f 217/217/217 219/219/219 210/210/210 
f 210/210/210 219/219/219 210/210/210 
f 219/219/219 221/221/221 210/210/210 
f 210/210/210 221/221/221 211/211/211 
f 221/221/221 222/222/222 211/211/211 
f 211/211/211 222/222/222 204/204/204 
f 222/222/222 222/222/222 204/204/204 
f 204/204/204 222/222/222 223/223/223 
f 222/222/222 224/224/224 223/223/223 
f 223/223/223 224/224/224 225/225/225 
f 224/224/224 225/225/225 225/225/225 
f 225/225/225 225/225/225 222/222/222 
f 225/225/225 222/222/222 222/222/222 
f 222/222/222 222/222/222 224/224/224 
f 222/222/222 221/221/221 224/224/224 
f 224/224/224 221/221/221 226/226/226 
f 221/221/221 219/219/219 226/226/226 
f 226/226/226 219/219/219 226/226/226 
f 219/219/219 220/220/220 226/226/226 
f 226/226/226 220/220/220 226/226/226 
f 220/220/220 227/227/227 226/226/226 
f 226/226/226 227/227/227 228/228/228 
f 227/227/227 229/229/229 228/228/228 
f 228/228/228 229/229/229 230/230/230 
f 229/229/229 231/231/231 230/230/230 
f 230/230/230 231/231/231 231/231/231 
f 231/231/231 226/226/226 231/231/231 
f 231/231/231 226/226/226 226/226/226 
f 226/226/226 228/228/228 226/226/226 
f 226/226/226 228/228/228 224/224/224 
f 228/228/228 228/228/228 224/224/224 
f 224/224/224 228/228/228 225/225/225 
f 228/228/228 230/230/230 225/225/225 
f 225/225/225 230/230/230 230/230/230 
f 230/230/230 232/232/232 230/230/230 
f 230/230/230 232/232/232 232/232/232 
f 232/232/232 233/233/233 232/232/232 
f 232/232/232 233/233/233 234/234/234 
f 233/233/233 233/233/233 234/234/234 
f 234/234/234 233/233/233 235/235/235 
f 233/233/233 236/236/236 235/235/235 
f 235/235/235 236/236/236 236/236/236 
f 236/236/236 237/237/237 236/236/236 
f 236/236/236 237/237/237 237/237/237 
f 237/237/237 238/238/238 237/237/237 
f 237/237/237 238/238/238 239/239/239 
f 238/238/238 238/238/238 239/239/239 
f 239/239/239 238/238/238 240/240/240 
f 238/238/238 241/241/241 240/240/240 
f 240/240/240 241/241/241 241/241/241 
f 241/241/241 242/242/242 241/241/241 
f 241/241/241 242/242/242 242/242/242 
f 242/242/242 243/243/243 242/242/242 
f 242/242/242 243/243/243 244/244/244 
f 243/243/243 245/245/245 244/244/244 
f 244/244/244 245/245/245 246/246/246 
f 245/245/245 245/245/245 246/246/246 
f 246/246/246 245/245/245 247/247/247 
f 245/245/245 248/248/248 247/247/247 
f 247/247/247 248/248/248 249/249/249 
f 248/248/248 250/250/250 249/249/249 
f 249/249/249 250/250/250 251/251/251 
f 250/250/250 251/251/251 251/251/251 
f 251/251/251 251/251/251 245/245/245 
f 251/251/251 245/245/245 245/245/245 
f 245/245/245 245/245/245 248/248/248 
f 245/245/245 243/243/243 248/248/248 
f 248/248/248 243/243/243 250/250/250 
f 243/243/243 250/250/250 250/250/250 
f 250/250/250 250/250/250 242/242/242 
f 250/250/250 242/242/242 242/242/242 
f 242/242/242 242/242/242 252/252/252 
f 242/242/242 244/244/244 252/252/252 
f 252/252/252 244/244/244 246/246/246 
f 244/244/244 246/246/246 246/246/246 
f 246/246/246 246/246/246 253/253/253 
f 246/246/246 253/253/253 253/253/253 
f 253/253/253 253/253/253 254/254/254 
f 253/253/253 255/255/255 254/254/254 
f 254/254/254 255/255/255 256/256/256 
f 255/255/255 257/257/257 256/256/256 
f 256/256/256 257/257/257 258/258/258 
f 257/257/257 257/257/257 258/258/258 
f 258/258/258 257/257/257 259/259/259 
f 257/257/257 257/257/257 259/259/259 
f 259/259/259 257/257/257 260/260/260 
f 257/257/257 255/255/255 260/260/260 
f 260/260/260 255/255/255 255/255/255 
f 255/255/255 253/253/253 255/255/255 
f 255/255/255 253/253/253 253/253/253 
f 253/253/253 254/254/254 253/253/253 
f 253/253/253 254/254/254 261/261/261 
f 254/254/254 262/262/262 261/261/261 
f 261/261/261 262/262/262 263/263/263 
f 262/262/262 264/264/264 263/263/263 
f 263/263/263 264/264/264 265/265/265 
f 264/264/264 264/264/264 265/265/265 
f 265/265/265 264/264/264 266/266/266 
f 264/264/264 267/267/267 266/266/266 
f 266/266/266 267/267/267 268/268/268 
f 267/267/267 269/269/269 268/268/268 
f 268/268/268 269/269/269 270/270/270 
f 269/269/269 270/270/270 270/270/270 
f 270/270/270 270/270/270 254/254/254 
f 270/270/270 254/254/254 254/254/254 
f 254/254/254 254/254/254 262/262/262 
f 254/254/254 256/256/256 262/262/262 
f 262/262/262 256/256/256 262/262/262 
f 256/256/256 258/258/258 262/262/262 
f 262/262/262 258/258/258 264/264/264 
f 258/258/258 258/258/258 264/264/264 
f 264/264/264 258/258/258 267/267/267 
f 258/258/258 259/259/259 267/267/267 
f 267/267/267 259/259/259 269/269/269 
f 259/259/259 259/259/259 269/269/269 
f 269/269/269 259/259/259 271/271/271 
f 259/259/259 260/260/260 271/271/271 
f 271/271/271 260/260/260 272/272/272 
f 260/260/260 255/255/255 272/272/272 
f 272/272/272 255/255/255 272/272/272 
f 255/255/255 273/273/273 272/272/272 
f 272/272/272 273/273/273 274/274/274 
f 273/273/273 275/275/275 274/274/274 
f 274/274/274 275/275/275 275/275/275 
f 275/275/275 272/272/272 275/275/275 
f 275/275/275 272/272/272 272/272/272 
f 272/272/272 274/274/274 272/272/272 
f 272/272/272 274/274/274 271/271/271 
f 274/274/274 276/276/276 271/271/271 
f 271/271/271 276/276/276 269/269/269 
f 276/276/276 276/276/276 269/269/269 
f 269/269/269 276/276/276 270/270/270 
f 276/276/276 276/276/276 270/270/270 
f 270/270/270 276/276/276 277/277/277 
f 276/276/276 278/278/278 277/277/277 
f 277/277/277 278/278/278 279/279/279 
f 278/278/278 280/280/280 279/279/279 
f 279/279/279 280/280/280 281/281/281 
f 280/280/280 281/281/281 281/281/281 
f 281/281/281 281/281/281 276/276/276 
f 281/281/281 276/276/276 276/276/276 
f 276/276/276 276/276/276 278/278/278 
f 276/276/276 274/274/274 278/278/278 
f 278/278/278 274/274/274 278/278/278 
f 274/274/274 275/275/275 278/278/278 
f 278/278/278 275/275/275 280/280/280 
f 275/275/275 280/280/280 280/280/280 
f 280/280/280 280/280/280 282/282/282 
f 280/280/280 282/282/282 282/282/282 
f 282/282/282 282/282/282 283/283/283 
f 282/282/282 284/284/284 283/283/283 
f 283/283/283 284/284/284 283/283/283 
f 284/284/284 285/285/285 283/283/283 
f 283/283/283 285/285/285 286/286/286 

