mtllib model_10.mtl
o model_10
v 108.82077026367188 18.698436737060547 18.644296646118164 
v 111.13320922851562 18.698436737060547 20.419618606567383 
v 108.54248809814453 20.752552032470703 18.92282485961914 
v 110.93443298339844 20.752553939819336 20.761117935180664 
v 108.82077026367188 22.95772933959961 18.6442928314209 
v 111.13320922851562 22.95772933959961 20.419614791870117 
v 109.63575744628906 25.14089012145996 17.828081130981445 
v 111.70966339111328 25.140892028808594 19.419330596923828 
v 113.82994842529297 22.95772933959961 21.536155700683594 
v 114.12811279296875 25.140892028808594 20.419614791870117 
v 116.71883392333984 22.957731246948242 21.91640853881836 
v 116.71883392333984 25.140892028808594 20.761117935180664 
v 113.82994842529297 18.698436737060547 21.536157608032227 
v 113.72393035888672 20.752553939819336 21.91640853881836 
v 116.71883392333984 18.69843864440918 21.916412353515625 
v 116.71883392333984 20.752553939819336 22.311195373535156 
v 119.60772705078125 18.698436737060547 21.536161422729492 
v 119.71373748779297 20.752553939819336 21.916412353515625 
v 122.3044662475586 18.698436737060547 20.41962432861328 
v 119.60772705078125 22.95772933959961 21.536157608032227 
v 119.30956268310547 25.140892028808594 20.419618606567383 
v 122.3044662475586 22.95772933959961 20.419620513916016 
v 121.72801208496094 25.140892028808594 19.419336318969727 
v 124.61689758300781 22.95772933959961 18.64430046081543 
v 123.80191802978516 25.14089012145996 17.828088760375977 
v 124.89518737792969 20.752552032470703 18.922832489013672 
v 122.50324249267578 20.752553939819336 20.761123657226562 
v 124.61689758300781 18.698436737060547 18.644304275512695 
v 113.98896789550781 5.975968837738037 13.405537605285645 
v 113.88957977294922 6.629550933837891 13.502416610717773 
v 114.7840805053711 5.975969314575195 14.020724296569824 
v 114.71781921386719 6.629551410675049 14.13940143585205 
v 115.71833038330078 5.975969314575195 14.405820846557617 
v 115.68519592285156 6.629551410675049 14.539030075073242 
v 116.71884155273438 5.9759697914123535 14.539031028747559 
v 113.98896789550781 7.352970600128174 13.405536651611328 
v 114.7840805053711 7.352971076965332 14.020723342895508 
v 114.26725769042969 8.111308097839355 13.124585151672363 
v 114.98285675048828 8.111308097839355 13.674378395080566 
v 115.71833038330078 7.352971076965332 14.405820846557617 
v 115.8243408203125 8.111308097839355 14.020723342895508 
v 116.71884155273438 7.352971076965332 14.539031028747559 
v 116.71884155273438 8.111309051513672 14.13940143585205 
v 116.71884155273438 6.629551410675049 14.674662590026855 
v 117.75247955322266 6.629551410675049 14.539031028747559 
v 117.71934509277344 7.352971076965332 14.405821800231934 
v 117.61333465576172 8.111308097839355 14.020724296569824 
v 118.64697265625 7.352971076965332 14.02072525024414 
v 118.44819641113281 8.111308097839355 13.674379348754883 
v 119.4487075805664 7.352970600128174 13.405539512634277 
v 119.17041778564453 8.111308097839355 13.124588012695312 
v 117.71934509277344 5.975969314575195 14.405821800231934 
v 118.64697265625 5.975969314575195 14.020726203918457 
v 118.71985626220703 6.629551410675049 14.139403343200684 
v 119.4487075805664 5.975968837738037 13.405540466308594 
v 119.548095703125 6.629550933837891 13.502419471740723 
v 114.83707427978516 0.8239911198616028 34.15232849121094 
v 115.38702392578125 0.8239913582801819 34.573753356933594 
v 114.77081298828125 1.2733763456344604 34.21772003173828 
v 115.34064483642578 1.2733765840530396 34.65610122680664 
v 114.83707427978516 1.770584225654602 34.15232467651367 
v 115.38702392578125 1.7705844640731812 34.573753356933594 
v 115.03585052490234 2.292083978652954 33.95856857299805 
v 115.52616882324219 2.292084217071533 34.336395263671875 
v 116.02973937988281 1.7705847024917603 34.840171813964844 
v 116.10262298583984 2.2920844554901123 34.573753356933594 
v 116.71882629394531 1.7705847024917603 34.929786682128906 
v 116.71882629394531 2.2920844554901123 34.65610122680664 
v 116.02973937988281 0.8239915370941162 34.840171813964844 
v 116.00323486328125 1.2733768224716187 34.929786682128906 
v 116.71882629394531 0.823991596698761 34.929786682128906 
v 116.71882629394531 1.2733768224716187 35.02424240112305 
v 117.40792083740234 0.8239915370941162 34.840171813964844 
v 117.42780303955078 1.2733768224716187 34.929786682128906 
v 118.04400634765625 0.8239913582801819 34.57375717163086 
v 117.40792083740234 1.7705847024917603 34.840171813964844 
v 117.33503723144531 2.2920844554901123 34.573753356933594 
v 118.04400634765625 1.7705844640731812 34.57375717163086 
v 117.91149139404297 2.292084217071533 34.33639907836914 
v 118.59395599365234 1.770584225654602 34.15232849121094 
v 118.40180969238281 2.292083978652954 33.95856857299805 
v 118.66021728515625 1.2733763456344604 34.21772384643555 
v 118.09038543701172 1.2733765840530396 34.656105041503906 
v 118.59395599365234 0.8239911198616028 34.15232849121094 
v 95.9466781616211 10.396177291870117 -7.1014814376831055 
v 95.85391235351562 11.04900074005127 -7.007024765014648 
v 96.74840545654297 10.396177291870117 -6.488717079162598 
v 96.6821517944336 11.04900074005127 -6.370039939880371 
v 97.68265533447266 10.396177291870117 -6.101197719573975 
v 97.64290618896484 11.04900074005127 -5.97041130065918 
v 98.67654418945312 10.396178245544434 -5.970410346984863 
v 95.9466781616211 11.773179054260254 -7.101482391357422 
v 96.74840545654297 11.773179054260254 -6.488717555999756 
v 96.2315902709961 12.530757904052734 -7.3848557472229 
v 96.94718170166016 12.530757904052734 -6.8350629806518555 
v 97.68265533447266 11.773179054260254 -6.101198196411133 
v 97.78204345703125 12.530757904052734 -6.488717555999756 
v 98.67654418945312 11.773179054260254 -5.97041130065918 
v 98.67654418945312 12.530757904052734 -6.370039939880371 
v 98.67654418945312 11.04900074005127 -5.834779739379883 
v 99.71680450439453 11.04900074005127 -5.970410346984863 
v 99.67705535888672 11.773179054260254 -6.101197242736816 
v 99.57766723632812 12.530757904052734 -6.4887166023254395 
v 100.6113052368164 11.773179054260254 -6.488715648651123 
v 100.41252899169922 12.530757904052734 -6.835061550140381 
v 101.41304016113281 11.773179054260254 -7.101479530334473 
v 101.12812042236328 12.530757904052734 -7.384853363037109 
v 99.67705535888672 10.396177291870117 -6.101196765899658 
v 100.6113052368164 10.396177291870117 -6.488715171813965 
v 100.67755889892578 11.04900074005127 -6.370038032531738 
v 101.41304016113281 10.396177291870117 -7.1014790534973145 
v 101.50579833984375 11.04900074005127 -7.007021903991699 
v 95.71475982666016 1.4654133319854736 9.886377334594727 
v 96.51649475097656 1.4654136896133423 10.499141693115234 
v 95.61537170410156 2.1182363033294678 9.980834007263184 
v 96.44361114501953 2.118236780166626 10.617818832397461 
v 95.71475982666016 2.842414140701294 9.88637638092041 
v 96.51649475097656 2.842414617538452 10.499140739440918 
v 95.99304962158203 3.6007516384124756 9.603002548217773 
v 96.71527099609375 3.600752115249634 10.152795791625977 
v 97.44412231445312 2.8424148559570312 10.884238243103027 
v 97.55013275146484 3.600752353668213 10.499140739440918 
v 98.44462585449219 2.8424148559570312 11.017447471618652 
v 98.44462585449219 3.600752353668213 10.617818832397461 
v 97.44412231445312 1.4654139280319214 10.884238243103027 
v 97.4109878540039 2.118237018585205 11.017447471618652 
v 98.44462585449219 1.465414047241211 11.017448425292969 
v 98.44462585449219 2.118237018585205 11.153079986572266 
v 99.44513702392578 1.4654139280319214 10.884239196777344 
v 99.47826385498047 2.118237018585205 11.017448425292969 
v 100.37938690185547 1.4654136896133423 10.499143600463867 
v 99.44513702392578 2.8424148559570312 10.884239196777344 
v 99.33912658691406 3.600752353668213 10.499141693115234 
v 100.37938690185547 2.842414617538452 10.49914264678955 
v 100.18061065673828 3.600752115249634 10.152796745300293 
v 101.17449951171875 2.842414140701294 9.886378288269043 
v 100.89620971679688 3.6007516384124756 9.603005409240723 
v 101.27388763427734 2.1182363033294678 9.980836868286133 
v 100.44564819335938 2.118236780166626 10.617820739746094 
v 101.17449951171875 1.4654133319854736 9.88637924194336 
v -19.191484451293945 1.482893466949463 45.10935592651367 
v -19.284255981445312 2.1357178688049316 45.206233978271484 
v -18.389760971069336 1.4828938245773315 45.72454071044922 
v -18.45602035522461 2.1357181072235107 45.84321594238281 
v -17.45550537109375 1.4828940629959106 46.10963821411133 
v -17.495264053344727 2.13571834564209 46.24284744262695 
v -16.461620330810547 1.4828940629959106 46.24284744262695 
v -19.191484451293945 2.859895706176758 45.109352111816406 
v -18.389760971069336 2.859896183013916 45.72454071044922 
v -18.906570434570312 3.6182332038879395 44.82840347290039 
v -18.190980911254883 3.6182334423065186 45.378196716308594 
v -17.45550537109375 2.859896421432495 46.10963821411133 
v -17.356117248535156 3.6182336807250977 45.72454071044922 
v -16.461620330810547 2.859896421432495 46.24284744262695 
v -16.461620330810547 3.6182339191436768 45.84321594238281 
v -16.461620330810547 2.135718584060669 46.37847900390625 
v -15.421359062194824 2.13571834564209 46.24284744262695 
v -15.461106300354004 2.859896421432495 46.10963821411133 
v -15.560495376586914 3.6182336807250977 45.72454071044922 
v -14.526863098144531 2.859896183013916 45.72454071044922 
v -14.725642204284668 3.6182334423065186 45.378196716308594 
v -13.725127220153809 2.859895706176758 45.10935592651367 
v -14.010040283203125 3.6182332038879395 44.82840347290039 
v -15.461106300354004 1.4828940629959106 46.10963821411133 
v -14.526863098144531 1.4828938245773315 45.724544525146484 
v -14.460602760314941 2.1357181072235107 45.84321975708008 
v -13.725127220153809 1.482893466949463 45.10935592651367 
v -13.632366180419922 2.1357178688049316 45.20623779296875 
v -35.68994903564453 7.707469463348389 15.236491203308105 
v -34.888214111328125 7.707469940185547 15.849255561828613 
v -35.782711029052734 8.361052513122559 15.333370208740234 
v -34.95447540283203 8.361052513122559 15.96793270111084 
v -35.68994903564453 9.084471702575684 15.236490249633789 
v -34.888214111328125 9.084471702575684 15.849254608154297 
v -35.40503692626953 9.842809677124023 14.953117370605469 
v -34.68943405151367 9.842809677124023 15.502909660339355 
v -33.95396041870117 9.084471702575684 16.236774444580078 
v -33.85457229614258 9.842809677124023 15.849254608154297 
v -32.95345687866211 9.084471702575684 16.36756134033203 
v -32.95345687866211 9.842809677124023 15.96793270111084 
v -33.95396041870117 7.707469940185547 16.236774444580078 
v -33.99372100830078 8.361052513122559 16.36756134033203 
v -32.95345687866211 7.707469940185547 16.367563247680664 
v -32.95345687866211 8.361052513122559 16.50319480895996 
v -31.952943801879883 7.707469940185547 16.23677635192871 
v -31.919815063476562 8.361052513122559 16.367563247680664 
v -31.025318145751953 7.707469940185547 15.849257469177246 
v -31.952943801879883 9.084471702575684 16.236774444580078 
v -32.0589599609375 9.842809677124023 15.849255561828613 
v -31.025318145751953 9.084471702575684 15.84925651550293 
v -31.224096298217773 9.842809677124023 15.502911567687988 
v -30.223583221435547 9.084471702575684 15.236493110656738 
v -30.508495330810547 9.842809677124023 14.953119277954102 
v -30.12419319152832 8.361052513122559 15.333373069763184 
v -30.95905876159668 8.361052513122559 15.967934608459473 
v -30.223583221435547 7.707469463348389 15.236494064331055 
v 73.76314544677734 1.3591766357421875 70.70743560791016 
v 73.6703872680664 2.0119996070861816 70.80431365966797 
v 74.56488037109375 1.3591769933700562 71.32261657714844 
v 74.49862670898438 2.01200008392334 71.44129943847656 
v 75.49250793457031 1.3591772317886353 71.70771789550781 
v 75.4593734741211 2.012000322341919 71.84092712402344 
v 76.49301147460938 1.3591773509979248 71.84092712402344 
v 73.76314544677734 2.736178159713745 70.70743560791016 
v 74.56488037109375 2.7361786365509033 71.32261657714844 
v 74.04806518554688 3.4937567710876465 70.42648315429688 
v 74.76365661621094 3.4937572479248047 70.97627258300781 
v 75.49250793457031 2.7361788749694824 71.70771789550781 
v 75.59851837158203 3.4937572479248047 71.32261657714844 
v 76.49301147460938 2.7361788749694824 71.84092712402344 
v 76.4930191040039 3.493757486343384 71.44129943847656 
v 76.49301147460938 2.012000322341919 71.9765625 
v 77.53327941894531 2.012000322341919 71.84092712402344 
v 77.4935302734375 2.7361788749694824 71.70771789550781 
v 77.39413452148438 3.4937572479248047 71.32261657714844 
v 78.42778015136719 2.7361786365509033 71.32261657714844 
v 78.22899627685547 3.4937572479248047 70.97628021240234 
v 79.22950744628906 2.736178159713745 70.70743560791016 
v 78.94459533691406 3.4937567710876465 70.42648315429688 
v 77.4935302734375 1.3591772317886353 71.70771789550781 
v 78.42778015136719 1.3591769933700562 71.32262420654297 
v 78.49403381347656 2.01200008392334 71.44129943847656 
v 79.22950744628906 1.3591766357421875 70.70744323730469 
v 79.32227325439453 2.0119996070861816 70.80431365966797 
v 24.300891876220703 1.2467904090881348 5.190100193023682 
v 25.102624893188477 1.246790885925293 5.805286407470703 
v 24.2081298828125 1.899613380432129 5.286979675292969 
v 25.036365509033203 1.899613857269287 5.923964023590088 
v 24.300891876220703 2.623791456222534 5.190099716186523 
v 25.102624893188477 2.6237916946411133 5.805285453796387 
v 24.585803985595703 3.3813700675964355 4.9091477394104 
v 25.30139923095703 3.3813703060150146 5.458940505981445 
v 26.036874771118164 2.6237919330596924 6.190382957458496 
v 26.13626480102539 3.3813705444335938 5.805285453796387 
v 27.037382125854492 2.6237919330596924 6.3235931396484375 
v 27.037384033203125 3.3813705444335938 5.923964023590088 
v 26.036874771118164 1.246791124343872 6.1903839111328125 
v 25.997116088867188 1.8996140956878662 6.323592662811279 
v 27.037382125854492 1.246791124343872 6.323593616485596 
v 27.037382125854492 1.8996142148971558 6.459225177764893 
v 28.037891387939453 1.246791124343872 6.190384864807129 
v 28.071022033691406 1.8996140956878662 6.323594093322754 
v 28.965517044067383 1.246790885925293 5.805288314819336 
v 28.037891387939453 2.6237919330596924 6.1903839111328125 
v 27.9318790435791 3.3813705444335938 5.805286407470703 
v 28.965517044067383 2.6237916946411133 5.8052873611450195 
v 28.76674461364746 3.3813703060150146 5.458942413330078 
v 29.767253875732422 2.623791456222534 5.1901021003723145 
v 29.48233985900879 3.3813700675964355 4.909150123596191 
v 29.866641998291016 1.899613380432129 5.286982536315918 
v 29.038406372070312 1.899613857269287 5.923965930938721 
v 29.767253875732422 1.2467904090881348 5.190103054046631 
v -64.15478515625 1.3280127048492432 4.1510233879089355 
v -64.24091339111328 1.9193484783172607 4.23821496963501 
v -63.425933837890625 1.3280130624771118 4.7080817222595215 
v -63.492183685302734 1.9193488359451294 4.8146491050720215 
v -62.584442138671875 1.328013300895691 5.056849002838135 
v -62.61757278442383 1.9193490743637085 5.1755266189575195 
v -61.67668914794922 1.328013300895691 5.175527572631836 
v -64.15478515625 2.575209140777588 4.151022434234619 
v -63.425933837890625 2.575209379196167 4.708080768585205 
v -63.89636993408203 3.2621915340423584 3.8942906856536865 
v -63.24702835083008 3.2621917724609375 4.393221378326416 
v -62.584442138671875 2.575209617614746 5.056848526000977 
v -62.49168014526367 3.2621920108795166 4.708080768585205 
v -61.67668914794922 2.575209617614746 5.1755266189575195 
v -61.67668914794922 3.2621920108795166 4.8146491050720215 
v -61.67668914794922 1.9193490743637085 5.29904842376709 
v -60.735816955566406 1.9193490743637085 5.175527572631836 
v -60.76894760131836 2.575209617614746 5.056849479675293 
v -60.86170959472656 3.2621920108795166 4.7080817222595215 
v -59.92745590209961 2.575209379196167 4.708082675933838 
v -60.106361389160156 3.2621917724609375 4.393223285675049 
v -59.1986083984375 2.575209140777588 4.15102481842041 
v -59.4570198059082 3.2621915340423584 3.8942928314208984 
v -60.76894760131836 1.328013300895691 5.056849956512451 
v -59.92745590209961 1.3280130624771118 4.708083152770996 
v -59.86782455444336 1.9193488359451294 4.814651012420654 
v -59.1986083984375 1.3280127048492432 4.151025772094727 
v -59.11247634887695 1.9193484783172607 4.238217353820801 
v -9.140023231506348 0.2675950229167938 69.2323989868164 
v -8.344916343688965 0.26759541034698486 69.84516906738281 
v -9.239412307739258 0.9204180240631104 69.32685852050781 
v -8.411176681518555 0.920418381690979 69.9638442993164 
v -9.140023231506348 1.6445958614349365 69.2323989868164 
v -8.344916343688965 1.6445963382720947 69.84516906738281 
v -8.861738204956055 2.402933359146118 68.94902801513672 
v -8.146137237548828 2.4029338359832764 69.49882507324219 
v -7.410662651062012 1.6445965766906738 70.23026275634766 
v -7.304644584655762 2.4029340744018555 69.84516906738281 
v -6.410148620605469 1.6445965766906738 70.36347198486328 
v -6.4101481437683105 2.4029340744018555 69.9638442993164 
v -7.410662651062012 0.26759564876556396 70.23026275634766 
v -7.443792343139648 0.9204186201095581 70.36347198486328 
v -6.410148620605469 0.26759573817253113 70.36347198486328 
v -6.410148620605469 0.9204187393188477 70.49910736083984 
v -5.409645080566406 0.26759564876556396 70.23026275634766 
v -5.3765153884887695 0.9204186201095581 70.36347198486328 
v -4.482018947601318 0.26759541034698486 69.84516906738281 
v -5.409645080566406 1.6445965766906738 70.23026275634766 
v -5.515663146972656 2.4029340744018555 69.84516906738281 
v -4.482018947601318 1.6445963382720947 69.84516906738281 
v -4.680798053741455 2.4029338359832764 69.49882507324219 
v -3.680283784866333 1.6445958614349365 69.2323989868164 
v -3.9585683345794678 2.402933359146118 68.94903564453125 
v -3.5808942317962646 0.9204180240631104 69.32686614990234 
v -4.409131050109863 0.920418381690979 69.9638442993164 
v -3.680283784866333 0.2675950229167938 69.23240661621094 
v -92.11605072021484 1.3591341972351074 2.094738721847534 
v -92.21543884277344 2.0119571685791016 2.191617727279663 
v -91.32093048095703 1.359134554862976 2.7099249362945557 
v -91.38719177246094 2.0119574069976807 2.828601837158203 
v -90.38668060302734 1.3591347932815552 3.095021963119507 
v -90.41980743408203 2.011957883834839 3.228231430053711 
v -89.38618469238281 1.3591349124908447 3.2282321453094482 
v -92.11605072021484 2.736135721206665 2.094738006591797 
v -91.32093048095703 2.7361361980438232 2.7099239826202393 
v -91.83775329589844 3.4937143325805664 1.8137860298156738 
v -91.12215423583984 3.4937145709991455 2.3635787963867188 
v -90.38668060302734 2.7361364364624023 3.0950212478637695 
v -90.28067016601562 3.4937148094177246 2.7099239826202393 
v -89.38618469238281 2.7361364364624023 3.228231430053711 
v -89.38618469238281 3.4937150478363037 2.828601837158203 
v -89.38618469238281 2.011957883834839 3.363863706588745 
v -88.35254669189453 2.011957883834839 3.2282323837280273 
v -88.38567352294922 2.7361364364624023 3.095022201538086 
v -88.49168395996094 3.4937148094177246 2.7099249362945557 
v -87.45803833007812 2.7361361980438232 2.709925889968872 
v -87.65681457519531 3.4937145709991455 2.3635804653167725 
v -86.65630340576172 2.736135721206665 2.094740629196167 
v -86.9345932006836 3.4937143325805664 1.8137884140014648 
v -88.38567352294922 1.3591347932815552 3.0950229167938232 
v -87.45803833007812 1.359134554862976 2.7099268436431885 
v -87.38516235351562 2.0119574069976807 2.828603744506836 
v -86.65630340576172 1.3591341972351074 2.0947413444519043 
v -86.55691528320312 2.0119571685791016 2.191620349884033 
vn -0.20603877305984497 -0.06534776091575623 0.2700343132019043 
vn -0.16907672584056854 -0.06534774601459503 0.29459047317504883 
vn -0.21125110983848572 -0.002266816096380353 0.2738771140575409 
vn -0.17218758165836334 -0.002266799798235297 0.2999785244464874 
vn -0.19860054552555084 0.11061661690473557 0.2606964111328125 
vn -0.16386358439922333 0.11061663180589676 0.2838194966316223 
vn -0.18571892380714417 0.16058941185474396 0.24363979697227478 
vn -0.1520703285932541 0.16192646324634552 0.26513251662254333 
vn -0.08450695872306824 0.11061664670705795 0.3166438341140747 
vn -0.07994750142097473 0.1619264781475067 0.29500678181648254 
vn 0.0006523049087263644 0.11061665415763855 0.32772597670555115 
vn -1.457438543184253e-7 0.1619264930486679 0.3056478202342987 
vn -0.08717511594295502 -0.06534772366285324 0.32828488945961 
vn -0.09036228805780411 -0.0022667788434773684 0.3338716924190521 
vn 0.0006528859958052635 -0.06534771621227264 0.3396616578102112 
vn -1.6492984400429123e-7 -0.0022667713928967714 0.34588387608528137 
vn 0.08843650668859482 -0.06534772366285324 0.32794731855392456 
vn 0.09036196768283844 -0.0022667788434773684 0.3338717818260193 
vn 0.17020797729492188 -0.06534774601459503 0.2939383387565613 
vn 0.08576677739620209 0.11061664670705795 0.31630492210388184 
vn 0.07994721829891205 0.1619264781475067 0.2950068414211273 
vn 0.16273191571235657 0.11061663180589676 0.284469872713089 
vn 0.1520700752735138 0.16192646324634552 0.2651326656341553 
vn 0.19963675737380981 0.11061661690473557 0.25990375876426697 
vn 0.18571870028972626 0.16058941185474396 0.2436399757862091 
vn 0.21125084161758423 -0.002266816096380353 0.2738772928714752 
vn 0.17218729853630066 -0.002266799798235297 0.29997867345809937 
vn 0.2070753574371338 -0.06534776091575623 0.26924023032188416 
vn -0.20696739852428436 -0.06979437172412872 0.26820528507232666 
vn -0.21124304831027985 -0.0037780916318297386 0.2738666534423828 
vn -0.16847963631153107 -0.07127393037080765 0.2935565412044525 
vn -0.17218101024627686 -0.003778075333684683 0.29996708035469055 
vn -0.08655030280351639 -0.07127390801906586 0.327215313911438 
vn -0.09035883843898773 -0.003778054378926754 0.3338589668273926 
vn -0.0013064604718238115 -0.07127390056848526 0.3384658098220825 
vn -0.19903893768787384 0.11204753071069717 0.25974929332733154 
vn -0.1643730103969574 0.11204753816127777 0.2829623222351074 
vn -0.18571892380714417 0.16058941185474396 0.24363979697227478 
vn -0.1520703285932541 0.16192646324634552 0.26513251662254333 
vn -0.0851162001490593 0.11204756051301956 0.3159768283367157 
vn -0.07994750142097473 0.1619264781475067 0.29500678181648254 
vn -1.560398601441193e-7 0.11204756796360016 0.3272401690483093 
vn -1.457438543184253e-7 0.1619264930486679 0.3056478202342987 
vn -1.6492353438479768e-7 -0.003778046928346157 0.34587064385414124 
vn 0.09035851806402206 -0.003778054378926754 0.33385902643203735 
vn 0.08511589467525482 0.11204756051301956 0.31597691774368286 
vn 0.07994721829891205 0.1619264781475067 0.2950068414211273 
vn 0.1643727421760559 0.11204753816127777 0.28296250104904175 
vn 0.1520700752735138 0.16192646324634552 0.2651326656341553 
vn 0.19903868436813354 0.11204753071069717 0.25974947214126587 
vn 0.18571870028972626 0.16058941185474396 0.2436399757862091 
vn 0.08654998987913132 -0.07127390801906586 0.32721540331840515 
vn 0.16847935318946838 -0.07127393037080765 0.29355672001838684 
vn 0.17218072712421417 -0.003778075333684683 0.2999672293663025 
vn 0.20593175292015076 -0.06979437172412872 0.269001305103302 
vn 0.21124278008937836 -0.0037780916318297386 0.2738668620586395 
vn -0.20696739852428436 -0.06979437172412872 0.26820528507232666 
vn -0.16847963631153107 -0.07127393037080765 0.2935565412044525 
vn -0.21124304831027985 -0.0037780916318297386 0.2738666534423828 
vn -0.17218101024627686 -0.003778075333684683 0.29996708035469055 
vn -0.19903893768787384 0.11204753071069717 0.25974929332733154 
vn -0.1643730103969574 0.11204753816127777 0.2829623222351074 
vn -0.18571892380714417 0.16058941185474396 0.24363979697227478 
vn -0.1520703285932541 0.16192646324634552 0.26513251662254333 
vn -0.0851162001490593 0.11204756051301956 0.3159768283367157 
vn -0.07994750142097473 0.1619264781475067 0.29500678181648254 
vn -1.560398601441193e-7 0.11204756796360016 0.3272401690483093 
vn -1.457438543184253e-7 0.1619264930486679 0.3056478202342987 
vn -0.08655030280351639 -0.07127390801906586 0.327215313911438 
vn -0.09035883843898773 -0.003778054378926754 0.3338589668273926 
vn -0.0013064604718238115 -0.07127390056848526 0.3384658098220825 
vn -1.6492353438479768e-7 -0.003778046928346157 0.34587064385414124 
vn 0.08654998987913132 -0.07127390801906586 0.32721540331840515 
vn 0.09035851806402206 -0.003778054378926754 0.33385902643203735 
vn 0.16847935318946838 -0.07127393037080765 0.29355672001838684 
vn 0.08511589467525482 0.11204756051301956 0.31597691774368286 
vn 0.07994721829891205 0.1619264781475067 0.2950068414211273 
vn 0.1643727421760559 0.11204753816127777 0.28296250104904175 
vn 0.1520700752735138 0.16192646324634552 0.2651326656341553 
vn 0.19903868436813354 0.11204753071069717 0.25974947214126587 
vn 0.18571870028972626 0.16058941185474396 0.2436399757862091 
vn 0.21124278008937836 -0.0037780916318297386 0.2738668620586395 
vn 0.17218072712421417 -0.003778075333684683 0.2999672293663025 
vn 0.20593175292015076 -0.06979437172412872 0.269001305103302 
vn -0.20696739852428436 -0.06979437172412872 0.26820528507232666 
vn -0.21124304831027985 -0.0037780916318297386 0.2738666534423828 
vn -0.16847963631153107 -0.07127393037080765 0.2935565412044525 
vn -0.17218101024627686 -0.003778075333684683 0.29996708035469055 
vn -0.08655030280351639 -0.07127390801906586 0.327215313911438 
vn -0.09035883843898773 -0.003778054378926754 0.3338589668273926 
vn -0.0013064604718238115 -0.07127390056848526 0.3384658098220825 
vn -0.19903893768787384 0.11204753071069717 0.25974929332733154 
vn -0.1643730103969574 0.11204753816127777 0.2829623222351074 
vn -0.18571892380714417 0.16058941185474396 0.24363979697227478 
vn -0.1520703285932541 0.16192646324634552 0.26513251662254333 
vn -0.0851162001490593 0.11204756051301956 0.3159768283367157 
vn -0.07994750142097473 0.1619264781475067 0.29500678181648254 
vn -1.560398601441193e-7 0.11204756796360016 0.3272401690483093 
vn -1.457438543184253e-7 0.1619264930486679 0.3056478202342987 
vn -1.6492353438479768e-7 -0.003778046928346157 0.34587064385414124 
vn 0.09035851806402206 -0.003778054378926754 0.33385902643203735 
vn 0.08511589467525482 0.11204756051301956 0.31597691774368286 
vn 0.07994721829891205 0.1619264781475067 0.2950068414211273 
vn 0.1643727421760559 0.11204753816127777 0.28296250104904175 
vn 0.1520700752735138 0.16192646324634552 0.2651326656341553 
vn 0.19903868436813354 0.11204753071069717 0.25974947214126587 
vn 0.18571870028972626 0.16058941185474396 0.2436399757862091 
vn 0.08654998987913132 -0.07127390801906586 0.32721540331840515 
vn 0.16847935318946838 -0.07127393037080765 0.29355672001838684 
vn 0.17218072712421417 -0.003778075333684683 0.2999672293663025 
vn 0.20593175292015076 -0.06979437172412872 0.269001305103302 
vn 0.21124278008937836 -0.0037780916318297386 0.2738668620586395 
vn -0.20696739852428436 -0.06979437172412872 0.26820528507232666 
vn -0.16847963631153107 -0.07127393037080765 0.2935565412044525 
vn -0.21124304831027985 -0.0037780916318297386 0.2738666534423828 
vn -0.17218101024627686 -0.003778075333684683 0.29996708035469055 
vn -0.19903893768787384 0.11204753071069717 0.25974929332733154 
vn -0.1643730103969574 0.11204753816127777 0.2829623222351074 
vn -0.18571892380714417 0.16058941185474396 0.24363979697227478 
vn -0.1520703285932541 0.16192646324634552 0.26513251662254333 
vn -0.0851162001490593 0.11204756051301956 0.3159768283367157 
vn -0.07994750142097473 0.1619264781475067 0.29500678181648254 
vn -1.560398601441193e-7 0.11204756796360016 0.3272401690483093 
vn -1.457438543184253e-7 0.1619264930486679 0.3056478202342987 
vn -0.08655030280351639 -0.07127390801906586 0.327215313911438 
vn -0.09035883843898773 -0.003778054378926754 0.3338589668273926 
vn -0.0013064604718238115 -0.07127390056848526 0.3384658098220825 
vn -1.6492353438479768e-7 -0.003778046928346157 0.34587064385414124 
vn 0.08654998987913132 -0.07127390801906586 0.32721540331840515 
vn 0.09035851806402206 -0.003778054378926754 0.33385902643203735 
vn 0.16847935318946838 -0.07127393037080765 0.29355672001838684 
vn 0.08511589467525482 0.11204756051301956 0.31597691774368286 
vn 0.07994721829891205 0.1619264781475067 0.2950068414211273 
vn 0.1643727421760559 0.11204753816127777 0.28296250104904175 
vn 0.1520700752735138 0.16192646324634552 0.2651326656341553 
vn 0.19903868436813354 0.11204753071069717 0.25974947214126587 
vn 0.18571870028972626 0.16058941185474396 0.2436399757862091 
vn 0.21124278008937836 -0.0037780916318297386 0.2738668620586395 
vn 0.17218072712421417 -0.003778075333684683 0.2999672293663025 
vn 0.20593175292015076 -0.06979437172412872 0.269001305103302 
vn -0.20696739852428436 -0.06979437172412872 0.26820528507232666 
vn -0.21124304831027985 -0.0037780916318297386 0.2738666534423828 
vn -0.16847963631153107 -0.07127393037080765 0.2935565412044525 
vn -0.17218101024627686 -0.003778075333684683 0.29996708035469055 
vn -0.08655030280351639 -0.07127390801906586 0.327215313911438 
vn -0.09035883843898773 -0.003778054378926754 0.3338589668273926 
vn 0.0013061377685517073 -0.07127390056848526 0.3384658098220825 
vn -0.19903893768787384 0.11204753071069717 0.25974929332733154 
vn -0.1643730103969574 0.11204753816127777 0.2829623222351074 
vn -0.18571892380714417 0.16058941185474396 0.24363979697227478 
vn -0.1520703285932541 0.16192646324634552 0.26513251662254333 
vn -0.0851162001490593 0.11204756051301956 0.3159768283367157 
vn -0.07994750142097473 0.1619264781475067 0.29500678181648254 
vn -1.560398601441193e-7 0.11204756796360016 0.3272401690483093 
vn -1.457438543184253e-7 0.1619264930486679 0.3056478202342987 
vn -1.6492353438479768e-7 -0.003778046928346157 0.34587064385414124 
vn 0.09035851806402206 -0.003778054378926754 0.33385902643203735 
vn 0.08511589467525482 0.11204756051301956 0.31597691774368286 
vn 0.07994721829891205 0.1619264781475067 0.2950068414211273 
vn 0.1643727421760559 0.11204753816127777 0.28296250104904175 
vn 0.1520700752735138 0.16192646324634552 0.2651326656341553 
vn 0.19903868436813354 0.11204753071069717 0.25974947214126587 
vn 0.18571870028972626 0.16058941185474396 0.2436399757862091 
vn 0.08654998987913132 -0.07127390801906586 0.32721540331840515 
vn 0.16847935318946838 -0.07127393037080765 0.29355672001838684 
vn 0.17218072712421417 -0.003778075333684683 0.2999672293663025 
vn 0.20593175292015076 -0.06979437172412872 0.269001305103302 
vn 0.21124278008937836 -0.0037780916318297386 0.2738668620586395 
vn -0.20696739852428436 -0.06979437172412872 0.26820528507232666 
vn -0.16847963631153107 -0.07127393037080765 0.2935565412044525 
vn -0.21124304831027985 -0.0037780916318297386 0.2738666534423828 
vn -0.17218101024627686 -0.003778075333684683 0.29996708035469055 
vn -0.19903893768787384 0.11204753071069717 0.25974929332733154 
vn -0.1643730103969574 0.11204753816127777 0.2829623222351074 
vn -0.18571892380714417 0.16058941185474396 0.24363979697227478 
vn -0.1520703285932541 0.16192646324634552 0.26513251662254333 
vn -0.0851162001490593 0.11204756051301956 0.3159768283367157 
vn -0.07994750142097473 0.1619264781475067 0.29500678181648254 
vn -1.560398601441193e-7 0.11204756796360016 0.3272401690483093 
vn -1.457438543184253e-7 0.1619264930486679 0.3056478202342987 
vn -0.08655030280351639 -0.07127390801906586 0.327215313911438 
vn -0.09035883843898773 -0.003778054378926754 0.3338589668273926 
vn -0.0013064604718238115 -0.07127390056848526 0.3384658098220825 
vn -1.6492353438479768e-7 -0.003778046928346157 0.34587064385414124 
vn 0.08654998987913132 -0.07127390801906586 0.32721540331840515 
vn 0.09035851806402206 -0.003778054378926754 0.33385902643203735 
vn 0.16847935318946838 -0.07127393037080765 0.29355672001838684 
vn 0.08511589467525482 0.11204756051301956 0.31597691774368286 
vn 0.07994721829891205 0.1619264781475067 0.2950068414211273 
vn 0.1643727421760559 0.11204753816127777 0.28296250104904175 
vn 0.1520700752735138 0.16192646324634552 0.2651326656341553 
vn 0.19903868436813354 0.11204753071069717 0.25974947214126587 
vn 0.18571870028972626 0.16058941185474396 0.2436399757862091 
vn 0.21124278008937836 -0.0037780916318297386 0.2738668620586395 
vn 0.17218072712421417 -0.003778075333684683 0.2999672293663025 
vn 0.20593175292015076 -0.06979437172412872 0.269001305103302 
vn -0.20696739852428436 -0.06979437172412872 0.26820528507232666 
vn -0.21124304831027985 -0.0037780916318297386 0.2738666534423828 
vn -0.16847963631153107 -0.07127393037080765 0.2935565412044525 
vn -0.17218101024627686 -0.003778075333684683 0.29996708035469055 
vn -0.08655030280351639 -0.07127390801906586 0.327215313911438 
vn -0.09035883843898773 -0.003778054378926754 0.3338589668273926 
vn -0.0013064604718238115 -0.07127390056848526 0.3384658098220825 
vn -0.19903893768787384 0.11204753071069717 0.25974929332733154 
vn -0.1643730103969574 0.11204753816127777 0.2829623222351074 
vn -0.18571892380714417 0.16058941185474396 0.24363979697227478 
vn -0.1520703285932541 0.16192646324634552 0.26513251662254333 
vn -0.0851162001490593 0.11204756051301956 0.3159768283367157 
vn -0.07994750142097473 0.1619264781475067 0.29500678181648254 
vn -1.560398601441193e-7 0.11204756796360016 0.3272401690483093 
vn -1.457438543184253e-7 0.1619264930486679 0.3056478202342987 
vn -1.6492353438479768e-7 -0.003778046928346157 0.34587064385414124 
vn 0.09035851806402206 -0.003778054378926754 0.33385902643203735 
vn 0.08511589467525482 0.11204756051301956 0.31597691774368286 
vn 0.07994721829891205 0.1619264781475067 0.2950068414211273 
vn 0.1643727421760559 0.11204753816127777 0.28296250104904175 
vn 0.1520700752735138 0.16192646324634552 0.2651326656341553 
vn 0.19903868436813354 0.11204753071069717 0.25974947214126587 
vn 0.18571870028972626 0.16058941185474396 0.2436399757862091 
vn 0.08654998987913132 -0.07127390801906586 0.32721540331840515 
vn 0.16847935318946838 -0.07127393037080765 0.29355672001838684 
vn 0.17218072712421417 -0.003778075333684683 0.2999672293663025 
vn 0.20593175292015076 -0.06979437172412872 0.269001305103302 
vn 0.21124278008937836 -0.0037780916318297386 0.2738668620586395 
vn -0.20696739852428436 -0.06979437172412872 0.26820528507232666 
vn -0.16847963631153107 -0.07127393037080765 0.2935565412044525 
vn -0.21124304831027985 -0.0037780916318297386 0.2738666534423828 
vn -0.17218101024627686 -0.003778075333684683 0.29996708035469055 
vn -0.19903893768787384 0.11204753071069717 0.25974929332733154 
vn -0.1643730103969574 0.11204753816127777 0.2829623222351074 
vn -0.18571892380714417 0.16058941185474396 0.24363979697227478 
vn -0.1520703285932541 0.16192646324634552 0.26513251662254333 
vn -0.0851162001490593 0.11204756051301956 0.3159768283367157 
vn -0.07994750142097473 0.1619264781475067 0.29500678181648254 
vn -1.560398601441193e-7 0.11204756796360016 0.3272401690483093 
vn -1.457438543184253e-7 0.1619264930486679 0.3056478202342987 
vn -0.08655030280351639 -0.07127390801906586 0.327215313911438 
vn -0.09035883843898773 -0.003778054378926754 0.3338589668273926 
vn -0.0013064604718238115 -0.07127390056848526 0.3384658098220825 
vn -1.6492353438479768e-7 -0.003778046928346157 0.34587064385414124 
vn 0.08654998987913132 -0.07127390801906586 0.32721540331840515 
vn 0.09035851806402206 -0.003778054378926754 0.33385902643203735 
vn 0.16847935318946838 -0.07127393037080765 0.29355672001838684 
vn 0.08511589467525482 0.11204756051301956 0.31597691774368286 
vn 0.07994721829891205 0.1619264781475067 0.2950068414211273 
vn 0.1643727421760559 0.11204753816127777 0.28296250104904175 
vn 0.1520700752735138 0.16192646324634552 0.2651326656341553 
vn 0.19903868436813354 0.11204753071069717 0.25974947214126587 
vn 0.18571870028972626 0.16058941185474396 0.2436399757862091 
vn 0.21124278008937836 -0.0037780916318297386 0.2738668620586395 
vn 0.17218072712421417 -0.003778075333684683 0.2999672293663025 
vn 0.20593175292015076 -0.06979437172412872 0.269001305103302 
vn -0.20696739852428436 -0.06979437172412872 0.26820528507232666 
vn -0.21124304831027985 -0.0037780916318297386 0.2738666534423828 
vn -0.16847963631153107 -0.07127393037080765 0.2935565412044525 
vn -0.17218101024627686 -0.003778075333684683 0.29996708035469055 
vn -0.08655030280351639 -0.07127390801906586 0.327215313911438 
vn -0.09035883843898773 -0.003778054378926754 0.3338589668273926 
vn -0.0013064604718238115 -0.07127390056848526 0.3384658098220825 
vn -0.19903893768787384 0.11204753071069717 0.25974929332733154 
vn -0.1643730103969574 0.11204753816127777 0.2829623222351074 
vn -0.18571892380714417 0.16058941185474396 0.24363979697227478 
vn -0.1520703285932541 0.16192646324634552 0.26513251662254333 
vn -0.0851162001490593 0.11204756051301956 0.3159768283367157 
vn -0.07994750142097473 0.1619264781475067 0.29500678181648254 
vn -1.560398601441193e-7 0.11204756796360016 0.3272401690483093 
vn -1.457438543184253e-7 0.1619264930486679 0.3056478202342987 
vn -1.6492353438479768e-7 -0.003778046928346157 0.34587064385414124 
vn 0.09035851806402206 -0.003778054378926754 0.33385902643203735 
vn 0.08511589467525482 0.11204756051301956 0.31597691774368286 
vn 0.07994721829891205 0.1619264781475067 0.2950068414211273 
vn 0.1643727421760559 0.11204753816127777 0.28296250104904175 
vn 0.1520700752735138 0.16192646324634552 0.2651326656341553 
vn 0.19903868436813354 0.11204753071069717 0.25974947214126587 
vn 0.18571870028972626 0.16058941185474396 0.2436399757862091 
vn 0.08654998987913132 -0.07127390801906586 0.32721540331840515 
vn 0.16847935318946838 -0.07127393037080765 0.29355672001838684 
vn 0.17218072712421417 -0.003778075333684683 0.2999672293663025 
vn 0.20593175292015076 -0.06979437172412872 0.269001305103302 
vn 0.21124278008937836 -0.0037780916318297386 0.2738668620586395 
vn -0.20696739852428436 -0.06979437172412872 0.26820528507232666 
vn -0.16847963631153107 -0.07127393037080765 0.2935565412044525 
vn -0.21124304831027985 -0.0037780916318297386 0.2738666534423828 
vn -0.17218101024627686 -0.003778075333684683 0.29996708035469055 
vn -0.19903893768787384 0.11204753071069717 0.25974929332733154 
vn -0.1643730103969574 0.11204753816127777 0.2829623222351074 
vn -0.18571892380714417 0.16058941185474396 0.24363979697227478 
vn -0.1520703285932541 0.16192646324634552 0.26513251662254333 
vn -0.0851162001490593 0.11204756051301956 0.3159768283367157 
vn -0.07994750142097473 0.1619264781475067 0.29500678181648254 
vn -1.560398601441193e-7 0.11204756796360016 0.3272401690483093 
vn -1.457438543184253e-7 0.1619264930486679 0.3056478202342987 
vn -0.08655030280351639 -0.07127390801906586 0.327215313911438 
vn -0.09035883843898773 -0.003778054378926754 0.3338589668273926 
vn -0.0013064604718238115 -0.07127390056848526 0.3384658098220825 
vn -1.6492353438479768e-7 -0.003778046928346157 0.34587064385414124 
vn 0.08654998987913132 -0.07127390801906586 0.32721540331840515 
vn 0.09035851806402206 -0.003778054378926754 0.33385902643203735 
vn 0.16847935318946838 -0.07127393037080765 0.29355672001838684 
vn 0.08511589467525482 0.11204756051301956 0.31597691774368286 
vn 0.07994721829891205 0.1619264781475067 0.2950068414211273 
vn 0.1643727421760559 0.11204753816127777 0.28296250104904175 
vn 0.1520700752735138 0.16192646324634552 0.2651326656341553 
vn 0.19903868436813354 0.11204753071069717 0.25974947214126587 
vn 0.18571870028972626 0.16058941185474396 0.2436399757862091 
vn 0.21124278008937836 -0.0037780916318297386 0.2738668620586395 
vn 0.17218072712421417 -0.003778075333684683 0.2999672293663025 
vn 0.20593175292015076 -0.06979437172412872 0.269001305103302 
vn -0.20696739852428436 -0.06979437172412872 0.26820528507232666 
vn -0.21124304831027985 -0.0037780916318297386 0.2738666534423828 
vn -0.16847963631153107 -0.07127393037080765 0.2935565412044525 
vn -0.17218101024627686 -0.003778075333684683 0.29996708035469055 
vn -0.08655030280351639 -0.07127390801906586 0.327215313911438 
vn -0.09035883843898773 -0.003778054378926754 0.3338589668273926 
vn -0.0013064604718238115 -0.07127390056848526 0.3384658098220825 
vn -0.19903893768787384 0.11204753071069717 0.25974929332733154 
vn -0.1643730103969574 0.11204753816127777 0.2829623222351074 
vn -0.18571892380714417 0.16058941185474396 0.24363979697227478 
vn -0.1520703285932541 0.16192646324634552 0.26513251662254333 
vn -0.0851162001490593 0.11204756051301956 0.3159768283367157 
vn -0.07994750142097473 0.1619264781475067 0.29500678181648254 
vn -1.560398601441193e-7 0.11204756796360016 0.3272401690483093 
vn -1.457438543184253e-7 0.1619264930486679 0.3056478202342987 
vn -1.6492353438479768e-7 -0.003778046928346157 0.34587064385414124 
vn 0.09035851806402206 -0.003778054378926754 0.33385902643203735 
vn 0.08511589467525482 0.11204756051301956 0.31597691774368286 
vn 0.07994721829891205 0.1619264781475067 0.2950068414211273 
vn 0.1643727421760559 0.11204753816127777 0.28296250104904175 
vn 0.1520700752735138 0.16192646324634552 0.2651326656341553 
vn 0.19903868436813354 0.11204753071069717 0.25974947214126587 
vn 0.18571870028972626 0.16058941185474396 0.2436399757862091 
vn 0.08654998987913132 -0.07127390801906586 0.32721540331840515 
vn 0.16847935318946838 -0.07127393037080765 0.29355672001838684 
vn 0.17218072712421417 -0.003778075333684683 0.2999672293663025 
vn 0.20593175292015076 -0.06979437172412872 0.269001305103302 
vn 0.21124278008937836 -0.0037780916318297386 0.2738668620586395 
vt 0.0653361976146698 0.7730295062065125 
vt 0.1271105259656906 0.7745558023452759 
vt 0.06266430020332336 0.8379254341125488 
vt 0.12614864110946655 0.8356077671051025 
vt 0.06907685846090317 0.9101702570915222 
vt 0.13010305166244507 0.9031040668487549 
vt 0.08553576469421387 0.9868809580802917 
vt 0.1400425285100937 0.9769882559776306 
vt 0.19038112461566925 0.8994296789169312 
vt 0.19508366286754608 0.9726355075836182 
vt 0.2500179409980774 0.8982990980148315 
vt 0.2500179409980774 0.9714483618736267 
vt 0.18867109715938568 0.7732555866241455 
vt 0.18845735490322113 0.8332900404930115 
vt 0.2500179409980774 0.7725207209587097 
vt 0.2500179409980774 0.8323855400085449 
vt 0.3114716410636902 0.7732555866241455 
vt 0.31157851219177246 0.8332900404930115 
vt 0.37303221225738525 0.7745558023452759 
vt 0.3097616136074066 0.8994296789169312 
vt 0.3050590753555298 0.9726355075836182 
vt 0.3700396716594696 0.9031040668487549 
vt 0.3599933385848999 0.9769882559776306 
vt 0.4310658574104309 0.9101702570915222 
vt 0.4146069586277008 0.9868809580802917 
vt 0.4374784231185913 0.8379254341125488 
vt 0.37388721108436584 0.8356077671051025 
vt 0.4348065257072449 0.7730295062065125 
vt 0.0653361976146698 0.7730295062065125 
vt 0.06266430020332336 0.8379254341125488 
vt 0.1271105259656906 0.7745558023452759 
vt 0.12614864110946655 0.8356077671051025 
vt 0.18867109715938568 0.7732555866241455 
vt 0.18845735490322113 0.8332900404930115 
vt 0.2500179409980774 0.7725207209587097 
vt 0.06907685846090317 0.9101702570915222 
vt 0.13010305166244507 0.9031040668487549 
vt 0.08553576469421387 0.9868809580802917 
vt 0.1400425285100937 0.9769882559776306 
vt 0.19038112461566925 0.8994296789169312 
vt 0.19508366286754608 0.9726355075836182 
vt 0.2500179409980774 0.8982990980148315 
vt 0.2500179409980774 0.9714483618736267 
vt 0.2500179409980774 0.8323855400085449 
vt 0.31157851219177246 0.8332900404930115 
vt 0.3097616136074066 0.8994296789169312 
vt 0.3050590753555298 0.9726355075836182 
vt 0.3700396716594696 0.9031040668487549 
vt 0.3599933385848999 0.9769882559776306 
vt 0.4310658574104309 0.9101702570915222 
vt 0.4146069586277008 0.9868809580802917 
vt 0.3114716410636902 0.7732555866241455 
vt 0.37303221225738525 0.7745558023452759 
vt 0.37388721108436584 0.8356077671051025 
vt 0.4348065257072449 0.7730295062065125 
vt 0.4374784231185913 0.8379254341125488 
vt 0.0653361976146698 0.7730295062065125 
vt 0.1271105259656906 0.7745558023452759 
vt 0.06266430020332336 0.8379254341125488 
vt 0.12614864110946655 0.8356077671051025 
vt 0.06907685846090317 0.9101702570915222 
vt 0.13010305166244507 0.9031040668487549 
vt 0.08553576469421387 0.9868809580802917 
vt 0.1400425285100937 0.9769882559776306 
vt 0.19038112461566925 0.8994296789169312 
vt 0.19508366286754608 0.9726355075836182 
vt 0.2500179409980774 0.8982990980148315 
vt 0.2500179409980774 0.9714483618736267 
vt 0.18867109715938568 0.7732555866241455 
vt 0.18845735490322113 0.8332900404930115 
vt 0.2500179409980774 0.7725207209587097 
vt 0.2500179409980774 0.8323855400085449 
vt 0.3114716410636902 0.7732555866241455 
vt 0.31157851219177246 0.8332900404930115 
vt 0.37303221225738525 0.7745558023452759 
vt 0.3097616136074066 0.8994296789169312 
vt 0.3050590753555298 0.9726355075836182 
vt 0.3700396716594696 0.9031040668487549 
vt 0.3599933385848999 0.9769882559776306 
vt 0.4310658574104309 0.9101702570915222 
vt 0.4146069586277008 0.9868809580802917 
vt 0.4374784231185913 0.8379254341125488 
vt 0.37388721108436584 0.8356077671051025 
vt 0.4348065257072449 0.7730295062065125 
vt 0.0653361976146698 0.7730295062065125 
vt 0.06266430020332336 0.8379254341125488 
vt 0.1271105259656906 0.7745558023452759 
vt 0.12614864110946655 0.8356077671051025 
vt 0.18867109715938568 0.7732555866241455 
vt 0.18845735490322113 0.8332900404930115 
vt 0.2500179409980774 0.7725207209587097 
vt 0.06907685846090317 0.9101702570915222 
vt 0.13010305166244507 0.9031040668487549 
vt 0.08553576469421387 0.9868809580802917 
vt 0.1400425285100937 0.9769882559776306 
vt 0.19038112461566925 0.8994296789169312 
vt 0.19508366286754608 0.9726355075836182 
vt 0.2500179409980774 0.8982990980148315 
vt 0.2500179409980774 0.9714483618736267 
vt 0.2500179409980774 0.8323855400085449 
vt 0.31157851219177246 0.8332900404930115 
vt 0.3097616136074066 0.8994296789169312 
vt 0.3050590753555298 0.9726355075836182 
vt 0.3700396716594696 0.9031040668487549 
vt 0.3599933385848999 0.9769882559776306 
vt 0.4310658574104309 0.9101702570915222 
vt 0.4146069586277008 0.9868809580802917 
vt 0.3114716410636902 0.7732555866241455 
vt 0.37303221225738525 0.7745558023452759 
vt 0.37388721108436584 0.8356077671051025 
vt 0.4348065257072449 0.7730295062065125 
vt 0.4374784231185913 0.8379254341125488 
vt 0.0653361976146698 0.7730295062065125 
vt 0.1271105259656906 0.7745558023452759 
vt 0.06266430020332336 0.8379254341125488 
vt 0.12614864110946655 0.8356077671051025 
vt 0.06907685846090317 0.9101702570915222 
vt 0.13010305166244507 0.9031040668487549 
vt 0.08553576469421387 0.9868809580802917 
vt 0.1400425285100937 0.9769882559776306 
vt 0.19038112461566925 0.8994296789169312 
vt 0.19508366286754608 0.9726355075836182 
vt 0.2500179409980774 0.8982990980148315 
vt 0.2500179409980774 0.9714483618736267 
vt 0.18867109715938568 0.7732555866241455 
vt 0.18845735490322113 0.8332900404930115 
vt 0.2500179409980774 0.7725207209587097 
vt 0.2500179409980774 0.8323855400085449 
vt 0.3114716410636902 0.7732555866241455 
vt 0.31157851219177246 0.8332900404930115 
vt 0.37303221225738525 0.7745558023452759 
vt 0.3097616136074066 0.8994296789169312 
vt 0.3050590753555298 0.9726355075836182 
vt 0.3700396716594696 0.9031040668487549 
vt 0.3599933385848999 0.9769882559776306 
vt 0.4310658574104309 0.9101702570915222 
vt 0.4146069586277008 0.9868809580802917 
vt 0.4374784231185913 0.8379254341125488 
vt 0.37388721108436584 0.8356077671051025 
vt 0.4348065257072449 0.7730295062065125 
vt 0.5659433603286743 0.7677721977233887 
vt 0.5632714629173279 0.8326681852340698 
vt 0.6277177333831787 0.7692984938621521 
vt 0.6268627047538757 0.8303505182266235 
vt 0.6892783045768738 0.7679983377456665 
vt 0.6891714334487915 0.8280327916145325 
vt 0.7507320046424866 0.7672634720802307 
vt 0.5696840286254883 0.9049130082130432 
vt 0.630710244178772 0.8978468179702759 
vt 0.5861429572105408 0.9816237092018127 
vt 0.6407566070556641 0.9717310070991516 
vt 0.690988302230835 0.8941724300384521 
vt 0.6956908702850342 0.9674347639083862 
vt 0.7507320046424866 0.8930417895317078 
vt 0.7507320046424866 0.9661911129951477 
vt 0.7507320046424866 0.8271282911300659 
vt 0.8122925758361816 0.8280327916145325 
vt 0.8103687763214111 0.8941724300384521 
vt 0.8056662678718567 0.9674347639083862 
vt 0.8706468343734741 0.8978468179702759 
vt 0.8607074022293091 0.9717310070991516 
vt 0.9316730499267578 0.9049130082130432 
vt 0.9152141809463501 0.9816237092018127 
vt 0.8120788335800171 0.7679983377456665 
vt 0.8736394047737122 0.7692984938621521 
vt 0.8746012449264526 0.8303505182266235 
vt 0.9354137182235718 0.7677721977233887 
vt 0.9380856156349182 0.8326681852340698 
vt 0.5659433603286743 0.7677721977233887 
vt 0.6277177333831787 0.7692984938621521 
vt 0.5632714629173279 0.8326681852340698 
vt 0.6268627047538757 0.8303505182266235 
vt 0.5696840286254883 0.9049130082130432 
vt 0.630710244178772 0.8978468179702759 
vt 0.5861429572105408 0.9816237092018127 
vt 0.6407566070556641 0.9717310070991516 
vt 0.690988302230835 0.8941724300384521 
vt 0.6956908702850342 0.9674347639083862 
vt 0.7507320046424866 0.8930417895317078 
vt 0.7507320046424866 0.9661911129951477 
vt 0.6892783045768738 0.7679983377456665 
vt 0.6891714334487915 0.8280327916145325 
vt 0.7507320046424866 0.7672634720802307 
vt 0.7507320046424866 0.8271282911300659 
vt 0.8120788335800171 0.7679983377456665 
vt 0.8122925758361816 0.8280327916145325 
vt 0.8736394047737122 0.7692984938621521 
vt 0.8103687763214111 0.8941724300384521 
vt 0.8056662678718567 0.9674347639083862 
vt 0.8706468343734741 0.8978468179702759 
vt 0.8607074022293091 0.9717310070991516 
vt 0.9316730499267578 0.9049130082130432 
vt 0.9152141809463501 0.9816237092018127 
vt 0.9380856156349182 0.8326681852340698 
vt 0.8746012449264526 0.8303505182266235 
vt 0.9354137182235718 0.7677721977233887 
vt 0.0653361976146698 0.7730295062065125 
vt 0.06266430020332336 0.8379254341125488 
vt 0.1271105259656906 0.7745558023452759 
vt 0.12614864110946655 0.8356077671051025 
vt 0.18867109715938568 0.7732555866241455 
vt 0.18845735490322113 0.8332900404930115 
vt 0.2500179409980774 0.7725207209587097 
vt 0.06907685846090317 0.9101702570915222 
vt 0.13010305166244507 0.9031040668487549 
vt 0.08553576469421387 0.9868809580802917 
vt 0.1400425285100937 0.9769882559776306 
vt 0.19038112461566925 0.8994296789169312 
vt 0.19508366286754608 0.9726355075836182 
vt 0.2500179409980774 0.8982990980148315 
vt 0.2500179409980774 0.9714483618736267 
vt 0.2500179409980774 0.8323855400085449 
vt 0.31157851219177246 0.8332900404930115 
vt 0.3097616136074066 0.8994296789169312 
vt 0.3050590753555298 0.9726355075836182 
vt 0.3700396716594696 0.9031040668487549 
vt 0.3599933385848999 0.9769882559776306 
vt 0.4310658574104309 0.9101702570915222 
vt 0.4146069586277008 0.9868809580802917 
vt 0.3114716410636902 0.7732555866241455 
vt 0.37303221225738525 0.7745558023452759 
vt 0.37388721108436584 0.8356077671051025 
vt 0.4348065257072449 0.7730295062065125 
vt 0.4374784231185913 0.8379254341125488 
vt 0.0653361976146698 0.7730295062065125 
vt 0.1271105259656906 0.7745558023452759 
vt 0.06266430020332336 0.8379254341125488 
vt 0.12614864110946655 0.8356077671051025 
vt 0.06907685846090317 0.9101702570915222 
vt 0.13010305166244507 0.9031040668487549 
vt 0.08553576469421387 0.9868809580802917 
vt 0.1400425285100937 0.9769882559776306 
vt 0.19038112461566925 0.8994296789169312 
vt 0.19508366286754608 0.9726355075836182 
vt 0.2500179409980774 0.8982990980148315 
vt 0.2500179409980774 0.9714483618736267 
vt 0.18867109715938568 0.7732555866241455 
vt 0.18845735490322113 0.8332900404930115 
vt 0.2500179409980774 0.7725207209587097 
vt 0.2500179409980774 0.8323855400085449 
vt 0.3114716410636902 0.7732555866241455 
vt 0.31157851219177246 0.8332900404930115 
vt 0.37303221225738525 0.7745558023452759 
vt 0.3097616136074066 0.8994296789169312 
vt 0.3050590753555298 0.9726355075836182 
vt 0.3700396716594696 0.9031040668487549 
vt 0.3599933385848999 0.9769882559776306 
vt 0.4310658574104309 0.9101702570915222 
vt 0.4146069586277008 0.9868809580802917 
vt 0.4374784231185913 0.8379254341125488 
vt 0.37388721108436584 0.8356077671051025 
vt 0.4348065257072449 0.7730295062065125 
vt 0.0653361976146698 0.7730295062065125 
vt 0.06266430020332336 0.8379254341125488 
vt 0.1271105259656906 0.7745558023452759 
vt 0.12614864110946655 0.8356077671051025 
vt 0.18867109715938568 0.7732555866241455 
vt 0.18845735490322113 0.8332900404930115 
vt 0.2500179409980774 0.7725207209587097 
vt 0.06907685846090317 0.9101702570915222 
vt 0.13010305166244507 0.9031040668487549 
vt 0.08553576469421387 0.9868809580802917 
vt 0.1400425285100937 0.9769882559776306 
vt 0.19038112461566925 0.8994296789169312 
vt 0.19508366286754608 0.9726355075836182 
vt 0.2500179409980774 0.8982990980148315 
vt 0.2500179409980774 0.9714483618736267 
vt 0.2500179409980774 0.8323855400085449 
vt 0.31157851219177246 0.8332900404930115 
vt 0.3097616136074066 0.8994296789169312 
vt 0.3050590753555298 0.9726355075836182 
vt 0.3700396716594696 0.9031040668487549 
vt 0.3599933385848999 0.9769882559776306 
vt 0.4310658574104309 0.9101702570915222 
vt 0.4146069586277008 0.9868809580802917 
vt 0.3114716410636902 0.7732555866241455 
vt 0.37303221225738525 0.7745558023452759 
vt 0.37388721108436584 0.8356077671051025 
vt 0.4348065257072449 0.7730295062065125 
vt 0.4374784231185913 0.8379254341125488 
vt 0.06565682590007782 0.5243557691574097 
vt 0.12743115425109863 0.5258820652961731 
vt 0.06298492848873138 0.5892517566680908 
vt 0.12646926939487457 0.5869340300559998 
vt 0.06939748674631119 0.6614965796470642 
vt 0.1304236799478531 0.6544303894042969 
vt 0.08585639297962189 0.738207221031189 
vt 0.1403631567955017 0.7283145785331726 
vt 0.19070175290107727 0.6507559418678284 
vt 0.1954042911529541 0.7240183353424072 
vt 0.2504454255104065 0.6496253609657288 
vt 0.2504454255104065 0.7227746844291687 
vt 0.1889917254447937 0.5245819091796875 
vt 0.18877798318862915 0.5846163034439087 
vt 0.2504454255104065 0.5238469839096069 
vt 0.2504454255104065 0.5837118625640869 
vt 0.311792254447937 0.5245819091796875 
vt 0.31200599670410156 0.5846163034439087 
vt 0.3733528256416321 0.5258820652961731 
vt 0.31008222699165344 0.6507559418678284 
vt 0.3053796887397766 0.7240183353424072 
vt 0.3703603148460388 0.6544303894042969 
vt 0.360420823097229 0.7283145785331726 
vt 0.4313865005970001 0.6614965796470642 
vt 0.41492760181427 0.738207221031189 
vt 0.4377990663051605 0.5892517566680908 
vt 0.37431472539901733 0.5869340300559998 
vt 0.4351271688938141 0.5243557691574097 
vt 0.0653361976146698 0.7730295062065125 
vt 0.06266430020332336 0.8379254341125488 
vt 0.1271105259656906 0.7745558023452759 
vt 0.12614864110946655 0.8356077671051025 
vt 0.18867109715938568 0.7732555866241455 
vt 0.18845735490322113 0.8332900404930115 
vt 0.2500179409980774 0.7725207209587097 
vt 0.06907685846090317 0.9101702570915222 
vt 0.13010305166244507 0.9031040668487549 
vt 0.08553576469421387 0.9868809580802917 
vt 0.1400425285100937 0.9769882559776306 
vt 0.19038112461566925 0.8994296789169312 
vt 0.19508366286754608 0.9726355075836182 
vt 0.2500179409980774 0.8982990980148315 
vt 0.2500179409980774 0.9714483618736267 
vt 0.2500179409980774 0.8323855400085449 
vt 0.31157851219177246 0.8332900404930115 
vt 0.3097616136074066 0.8994296789169312 
vt 0.3050590753555298 0.9726355075836182 
vt 0.3700396716594696 0.9031040668487549 
vt 0.3599933385848999 0.9769882559776306 
vt 0.4310658574104309 0.9101702570915222 
vt 0.4146069586277008 0.9868809580802917 
vt 0.3114716410636902 0.7732555866241455 
vt 0.37303221225738525 0.7745558023452759 
vt 0.37388721108436584 0.8356077671051025 
vt 0.4348065257072449 0.7730295062065125 
vt 0.4374784231185913 0.8379254341125488 
s on 
f 1/1/1 2/2/2 3/3/3 
f 2/2/2 4/4/4 3/3/3 
f 3/3/3 4/4/4 5/5/5 
f 4/4/4 6/6/6 5/5/5 
f 5/5/5 6/6/6 7/7/7 
f 6/6/6 6/6/6 7/7/7 
f 7/7/7 6/6/6 8/8/8 
f 6/6/6 9/9/9 8/8/8 
f 8/8/8 9/9/9 10/10/10 
f 9/9/9 11/11/11 10/10/10 
f 10/10/10 11/11/11 12/12/12 
f 11/11/11 12/12/12 12/12/12 
f 12/12/12 12/12/12 2/2/2 
f 12/12/12 2/2/2 2/2/2 
f 2/2/2 2/2/2 4/4/4 
f 2/2/2 13/13/13 4/4/4 
f 4/4/4 13/13/13 14/14/14 
f 13/13/13 15/15/15 14/14/14 
f 14/14/14 15/15/15 16/16/16 
f 15/15/15 17/17/17 16/16/16 
f 16/16/16 17/17/17 18/18/18 
f 17/17/17 19/19/19 18/18/18 
f 18/18/18 19/19/19 19/19/19 
f 19/19/19 4/4/4 19/19/19 
f 19/19/19 4/4/4 4/4/4 
f 4/4/4 14/14/14 4/4/4 
f 4/4/4 14/14/14 6/6/6 
f 14/14/14 14/14/14 6/6/6 
f 6/6/6 14/14/14 9/9/9 
f 14/14/14 16/16/16 9/9/9 
f 9/9/9 16/16/16 11/11/11 
f 16/16/16 18/18/18 11/11/11 
f 11/11/11 18/18/18 11/11/11 
f 18/18/18 20/20/20 11/11/11 
f 11/11/11 20/20/20 12/12/12 
f 20/20/20 20/20/20 12/12/12 
f 12/12/12 20/20/20 21/21/21 
f 20/20/20 22/22/22 21/21/21 
f 21/21/21 22/22/22 23/23/23 
f 22/22/22 24/24/24 23/23/23 
f 23/23/23 24/24/24 25/25/25 
f 24/24/24 25/25/25 25/25/25 
f 25/25/25 25/25/25 24/24/24 
f 25/25/25 24/24/24 24/24/24 
f 24/24/24 24/24/24 26/26/26 
f 24/24/24 22/22/22 26/26/26 
f 26/26/26 22/22/22 27/27/27 
f 22/22/22 20/20/20 27/27/27 
f 27/27/27 20/20/20 27/27/27 
f 20/20/20 18/18/18 27/27/27 
f 27/27/27 18/18/18 27/27/27 
f 18/18/18 19/19/19 27/27/27 
f 27/27/27 19/19/19 27/27/27 
f 19/19/19 28/28/28 27/27/27 
f 27/27/27 28/28/28 26/26/26 
f 28/28/28 26/26/26 26/26/26 
f 26/26/26 26/26/26 29/29/29 
f 26/26/26 29/29/29 29/29/29 
f 29/29/29 29/29/29 30/30/30 
f 29/29/29 31/31/31 30/30/30 
f 30/30/30 31/31/31 32/32/32 
f 31/31/31 33/33/33 32/32/32 
f 32/32/32 33/33/33 34/34/34 
f 33/33/33 35/35/35 34/34/34 
f 34/34/34 35/35/35 35/35/35 
f 35/35/35 30/30/30 35/35/35 
f 35/35/35 30/30/30 30/30/30 
f 30/30/30 32/32/32 30/30/30 
f 30/30/30 32/32/32 36/36/36 
f 32/32/32 37/37/37 36/36/36 
f 36/36/36 37/37/37 38/38/38 
f 37/37/37 37/37/37 38/38/38 
f 38/38/38 37/37/37 39/39/39 
f 37/37/37 40/40/40 39/39/39 
f 39/39/39 40/40/40 41/41/41 
f 40/40/40 42/42/42 41/41/41 
f 41/41/41 42/42/42 43/43/43 
f 42/42/42 43/43/43 43/43/43 
f 43/43/43 43/43/43 32/32/32 
f 43/43/43 32/32/32 32/32/32 
f 32/32/32 32/32/32 37/37/37 
f 32/32/32 34/34/34 37/37/37 
f 37/37/37 34/34/34 40/40/40 
f 34/34/34 44/44/44 40/40/40 
f 40/40/40 44/44/44 42/42/42 
f 44/44/44 45/45/45 42/42/42 
f 42/42/42 45/45/45 42/42/42 
f 45/45/45 46/46/46 42/42/42 
f 42/42/42 46/46/46 43/43/43 
f 46/46/46 46/46/46 43/43/43 
f 43/43/43 46/46/46 47/47/47 
f 46/46/46 48/48/48 47/47/47 
f 47/47/47 48/48/48 49/49/49 
f 48/48/48 50/50/50 49/49/49 
f 49/49/49 50/50/50 51/51/51 
f 50/50/50 51/51/51 51/51/51 
f 51/51/51 51/51/51 34/34/34 
f 51/51/51 34/34/34 34/34/34 
f 34/34/34 34/34/34 44/44/44 
f 34/34/34 35/35/35 44/44/44 
f 44/44/44 35/35/35 44/44/44 
f 35/35/35 52/52/52 44/44/44 
f 44/44/44 52/52/52 45/45/45 
f 52/52/52 53/53/53 45/45/45 
f 45/45/45 53/53/53 54/54/54 
f 53/53/53 55/55/55 54/54/54 
f 54/54/54 55/55/55 54/54/54 
f 55/55/55 56/56/56 54/54/54 
f 54/54/54 56/56/56 48/48/48 
f 56/56/56 50/50/50 48/48/48 
f 48/48/48 50/50/50 50/50/50 
f 50/50/50 48/48/48 50/50/50 
f 50/50/50 48/48/48 48/48/48 
f 48/48/48 46/46/46 48/48/48 
f 48/48/48 46/46/46 54/54/54 
f 46/46/46 45/45/45 54/54/54 
f 54/54/54 45/45/45 45/45/45 
f 45/45/45 57/57/57 45/45/45 
f 45/45/45 57/57/57 57/57/57 
f 57/57/57 58/58/58 57/57/57 
f 57/57/57 58/58/58 59/59/59 
f 58/58/58 60/60/60 59/59/59 
f 59/59/59 60/60/60 61/61/61 
f 60/60/60 62/62/62 61/61/61 
f 61/61/61 62/62/62 63/63/63 
f 62/62/62 62/62/62 63/63/63 
f 63/63/63 62/62/62 64/64/64 
f 62/62/62 65/65/65 64/64/64 
f 64/64/64 65/65/65 66/66/66 
f 65/65/65 67/67/67 66/66/66 
f 66/66/66 67/67/67 68/68/68 
f 67/67/67 68/68/68 68/68/68 
f 68/68/68 68/68/68 58/58/58 
f 68/68/68 58/58/58 58/58/58 
f 58/58/58 58/58/58 60/60/60 
f 58/58/58 69/69/69 60/60/60 
f 60/60/60 69/69/69 70/70/70 
f 69/69/69 71/71/71 70/70/70 
f 70/70/70 71/71/71 72/72/72 
f 71/71/71 73/73/73 72/72/72 
f 72/72/72 73/73/73 74/74/74 
f 73/73/73 75/75/75 74/74/74 
f 74/74/74 75/75/75 75/75/75 
f 75/75/75 60/60/60 75/75/75 
f 75/75/75 60/60/60 60/60/60 
f 60/60/60 70/70/70 60/60/60 
f 60/60/60 70/70/70 62/62/62 
f 70/70/70 70/70/70 62/62/62 
f 62/62/62 70/70/70 65/65/65 
f 70/70/70 72/72/72 65/65/65 
f 65/65/65 72/72/72 67/67/67 
f 72/72/72 74/74/74 67/67/67 
f 67/67/67 74/74/74 67/67/67 
f 74/74/74 76/76/76 67/67/67 
f 67/67/67 76/76/76 68/68/68 
f 76/76/76 76/76/76 68/68/68 
f 68/68/68 76/76/76 77/77/77 
f 76/76/76 78/78/78 77/77/77 
f 77/77/77 78/78/78 79/79/79 
f 78/78/78 80/80/80 79/79/79 
f 79/79/79 80/80/80 81/81/81 
f 80/80/80 81/81/81 81/81/81 
f 81/81/81 81/81/81 80/80/80 
f 81/81/81 80/80/80 80/80/80 
f 80/80/80 80/80/80 82/82/82 
f 80/80/80 78/78/78 82/82/82 
f 82/82/82 78/78/78 83/83/83 
f 78/78/78 76/76/76 83/83/83 
f 83/83/83 76/76/76 83/83/83 
f 76/76/76 74/74/74 83/83/83 
f 83/83/83 74/74/74 83/83/83 
f 74/74/74 75/75/75 83/83/83 
f 83/83/83 75/75/75 83/83/83 
f 75/75/75 84/84/84 83/83/83 
f 83/83/83 84/84/84 82/82/82 
f 84/84/84 82/82/82 82/82/82 
f 82/82/82 82/82/82 85/85/85 
f 82/82/82 85/85/85 85/85/85 
f 85/85/85 85/85/85 86/86/86 
f 85/85/85 87/87/87 86/86/86 
f 86/86/86 87/87/87 88/88/88 
f 87/87/87 89/89/89 88/88/88 
f 88/88/88 89/89/89 90/90/90 
f 89/89/89 91/91/91 90/90/90 
f 90/90/90 91/91/91 91/91/91 
f 91/91/91 86/86/86 91/91/91 
f 91/91/91 86/86/86 86/86/86 
f 86/86/86 88/88/88 86/86/86 
f 86/86/86 88/88/88 92/92/92 
f 88/88/88 93/93/93 92/92/92 
f 92/92/92 93/93/93 94/94/94 
f 93/93/93 93/93/93 94/94/94 
f 94/94/94 93/93/93 95/95/95 
f 93/93/93 96/96/96 95/95/95 
f 95/95/95 96/96/96 97/97/97 
f 96/96/96 98/98/98 97/97/97 
f 97/97/97 98/98/98 99/99/99 
f 98/98/98 99/99/99 99/99/99 
f 99/99/99 99/99/99 88/88/88 
f 99/99/99 88/88/88 88/88/88 
f 88/88/88 88/88/88 93/93/93 
f 88/88/88 90/90/90 93/93/93 
f 93/93/93 90/90/90 96/96/96 
f 90/90/90 100/100/100 96/96/96 
f 96/96/96 100/100/100 98/98/98 
f 100/100/100 101/101/101 98/98/98 
f 98/98/98 101/101/101 98/98/98 
f 101/101/101 102/102/102 98/98/98 
f 98/98/98 102/102/102 99/99/99 
f 102/102/102 102/102/102 99/99/99 
f 99/99/99 102/102/102 103/103/103 
f 102/102/102 104/104/104 103/103/103 
f 103/103/103 104/104/104 105/105/105 
f 104/104/104 106/106/106 105/105/105 
f 105/105/105 106/106/106 107/107/107 
f 106/106/106 107/107/107 107/107/107 
f 107/107/107 107/107/107 90/90/90 
f 107/107/107 90/90/90 90/90/90 
f 90/90/90 90/90/90 100/100/100 
f 90/90/90 91/91/91 100/100/100 
f 100/100/100 91/91/91 100/100/100 
f 91/91/91 108/108/108 100/100/100 
f 100/100/100 108/108/108 101/101/101 
f 108/108/108 109/109/109 101/101/101 
f 101/101/101 109/109/109 110/110/110 
f 109/109/109 111/111/111 110/110/110 
f 110/110/110 111/111/111 110/110/110 
f 111/111/111 112/112/112 110/110/110 
f 110/110/110 112/112/112 104/104/104 
f 112/112/112 106/106/106 104/104/104 
f 104/104/104 106/106/106 106/106/106 
f 106/106/106 104/104/104 106/106/106 
f 106/106/106 104/104/104 104/104/104 
f 104/104/104 102/102/102 104/104/104 
f 104/104/104 102/102/102 110/110/110 
f 102/102/102 101/101/101 110/110/110 
f 110/110/110 101/101/101 101/101/101 
f 101/101/101 113/113/113 101/101/101 
f 101/101/101 113/113/113 113/113/113 
f 113/113/113 114/114/114 113/113/113 
f 113/113/113 114/114/114 115/115/115 
f 114/114/114 116/116/116 115/115/115 
f 115/115/115 116/116/116 117/117/117 
f 116/116/116 118/118/118 117/117/117 
f 117/117/117 118/118/118 119/119/119 
f 118/118/118 118/118/118 119/119/119 
f 119/119/119 118/118/118 120/120/120 
f 118/118/118 121/121/121 120/120/120 
f 120/120/120 121/121/121 122/122/122 
f 121/121/121 123/123/123 122/122/122 
f 122/122/122 123/123/123 124/124/124 
f 123/123/123 124/124/124 124/124/124 
f 124/124/124 124/124/124 114/114/114 
f 124/124/124 114/114/114 114/114/114 
f 114/114/114 114/114/114 116/116/116 
f 114/114/114 125/125/125 116/116/116 
f 116/116/116 125/125/125 126/126/126 
f 125/125/125 127/127/127 126/126/126 
f 126/126/126 127/127/127 128/128/128 
f 127/127/127 129/129/129 128/128/128 
f 128/128/128 129/129/129 130/130/130 
f 129/129/129 131/131/131 130/130/130 
f 130/130/130 131/131/131 131/131/131 
f 131/131/131 116/116/116 131/131/131 
f 131/131/131 116/116/116 116/116/116 
f 116/116/116 126/126/126 116/116/116 
f 116/116/116 126/126/126 118/118/118 
f 126/126/126 126/126/126 118/118/118 
f 118/118/118 126/126/126 121/121/121 
f 126/126/126 128/128/128 121/121/121 
f 121/121/121 128/128/128 123/123/123 
f 128/128/128 130/130/130 123/123/123 
f 123/123/123 130/130/130 123/123/123 
f 130/130/130 132/132/132 123/123/123 
f 123/123/123 132/132/132 124/124/124 
f 132/132/132 132/132/132 124/124/124 
f 124/124/124 132/132/132 133/133/133 
f 132/132/132 134/134/134 133/133/133 
f 133/133/133 134/134/134 135/135/135 
f 134/134/134 136/136/136 135/135/135 
f 135/135/135 136/136/136 137/137/137 
f 136/136/136 137/137/137 137/137/137 
f 137/137/137 137/137/137 136/136/136 
f 137/137/137 136/136/136 136/136/136 
f 136/136/136 136/136/136 138/138/138 
f 136/136/136 134/134/134 138/138/138 
f 138/138/138 134/134/134 139/139/139 
f 134/134/134 132/132/132 139/139/139 
f 139/139/139 132/132/132 139/139/139 
f 132/132/132 130/130/130 139/139/139 
f 139/139/139 130/130/130 139/139/139 
f 130/130/130 131/131/131 139/139/139 
f 139/139/139 131/131/131 139/139/139 
f 131/131/131 140/140/140 139/139/139 
f 139/139/139 140/140/140 138/138/138 
f 140/140/140 138/138/138 138/138/138 
f 138/138/138 138/138/138 141/141/141 
f 138/138/138 141/141/141 141/141/141 
f 141/141/141 141/141/141 142/142/142 
f 141/141/141 143/143/143 142/142/142 
f 142/142/142 143/143/143 144/144/144 
f 143/143/143 145/145/145 144/144/144 
f 144/144/144 145/145/145 146/146/146 
f 145/145/145 147/147/147 146/146/146 
f 146/146/146 147/147/147 147/147/147 
f 147/147/147 142/142/142 147/147/147 
f 147/147/147 142/142/142 142/142/142 
f 142/142/142 144/144/144 142/142/142 
f 142/142/142 144/144/144 148/148/148 
f 144/144/144 149/149/149 148/148/148 
f 148/148/148 149/149/149 150/150/150 
f 149/149/149 149/149/149 150/150/150 
f 150/150/150 149/149/149 151/151/151 
f 149/149/149 152/152/152 151/151/151 
f 151/151/151 152/152/152 153/153/153 
f 152/152/152 154/154/154 153/153/153 
f 153/153/153 154/154/154 155/155/155 
f 154/154/154 155/155/155 155/155/155 
f 155/155/155 155/155/155 144/144/144 
f 155/155/155 144/144/144 144/144/144 
f 144/144/144 144/144/144 149/149/149 
f 144/144/144 146/146/146 149/149/149 
f 149/149/149 146/146/146 152/152/152 
f 146/146/146 156/156/156 152/152/152 
f 152/152/152 156/156/156 154/154/154 
f 156/156/156 157/157/157 154/154/154 
f 154/154/154 157/157/157 154/154/154 
f 157/157/157 158/158/158 154/154/154 
f 154/154/154 158/158/158 155/155/155 
f 158/158/158 158/158/158 155/155/155 
f 155/155/155 158/158/158 159/159/159 
f 158/158/158 160/160/160 159/159/159 
f 159/159/159 160/160/160 161/161/161 
f 160/160/160 162/162/162 161/161/161 
f 161/161/161 162/162/162 163/163/163 
f 162/162/162 163/163/163 163/163/163 
f 163/163/163 163/163/163 146/146/146 
f 163/163/163 146/146/146 146/146/146 
f 146/146/146 146/146/146 156/156/156 
f 146/146/146 147/147/147 156/156/156 
f 156/156/156 147/147/147 156/156/156 
f 147/147/147 164/164/164 156/156/156 
f 156/156/156 164/164/164 157/157/157 
f 164/164/164 165/165/165 157/157/157 
f 157/157/157 165/165/165 166/166/166 
f 165/165/165 167/167/167 166/166/166 
f 166/166/166 167/167/167 166/166/166 
f 167/167/167 168/168/168 166/166/166 
f 166/166/166 168/168/168 160/160/160 
f 168/168/168 162/162/162 160/160/160 
f 160/160/160 162/162/162 162/162/162 
f 162/162/162 160/160/160 162/162/162 
f 162/162/162 160/160/160 160/160/160 
f 160/160/160 158/158/158 160/160/160 
f 160/160/160 158/158/158 166/166/166 
f 158/158/158 157/157/157 166/166/166 
f 166/166/166 157/157/157 157/157/157 
f 157/157/157 169/169/169 157/157/157 
f 157/157/157 169/169/169 169/169/169 
f 169/169/169 170/170/170 169/169/169 
f 169/169/169 170/170/170 171/171/171 
f 170/170/170 172/172/172 171/171/171 
f 171/171/171 172/172/172 173/173/173 
f 172/172/172 174/174/174 173/173/173 
f 173/173/173 174/174/174 175/175/175 
f 174/174/174 174/174/174 175/175/175 
f 175/175/175 174/174/174 176/176/176 
f 174/174/174 177/177/177 176/176/176 
f 176/176/176 177/177/177 178/178/178 
f 177/177/177 179/179/179 178/178/178 
f 178/178/178 179/179/179 180/180/180 
f 179/179/179 180/180/180 180/180/180 
f 180/180/180 180/180/180 170/170/170 
f 180/180/180 170/170/170 170/170/170 
f 170/170/170 170/170/170 172/172/172 
f 170/170/170 181/181/181 172/172/172 
f 172/172/172 181/181/181 182/182/182 
f 181/181/181 183/183/183 182/182/182 
f 182/182/182 183/183/183 184/184/184 
f 183/183/183 185/185/185 184/184/184 
f 184/184/184 185/185/185 186/186/186 
f 185/185/185 187/187/187 186/186/186 
f 186/186/186 187/187/187 187/187/187 
f 187/187/187 172/172/172 187/187/187 
f 187/187/187 172/172/172 172/172/172 
f 172/172/172 182/182/182 172/172/172 
f 172/172/172 182/182/182 174/174/174 
f 182/182/182 182/182/182 174/174/174 
f 174/174/174 182/182/182 177/177/177 
f 182/182/182 184/184/184 177/177/177 
f 177/177/177 184/184/184 179/179/179 
f 184/184/184 186/186/186 179/179/179 
f 179/179/179 186/186/186 179/179/179 
f 186/186/186 188/188/188 179/179/179 
f 179/179/179 188/188/188 180/180/180 
f 188/188/188 188/188/188 180/180/180 
f 180/180/180 188/188/188 189/189/189 
f 188/188/188 190/190/190 189/189/189 
f 189/189/189 190/190/190 191/191/191 
f 190/190/190 192/192/192 191/191/191 
f 191/191/191 192/192/192 193/193/193 
f 192/192/192 193/193/193 193/193/193 
f 193/193/193 193/193/193 192/192/192 
f 193/193/193 192/192/192 192/192/192 
f 192/192/192 192/192/192 194/194/194 
f 192/192/192 190/190/190 194/194/194 
f 194/194/194 190/190/190 195/195/195 
f 190/190/190 188/188/188 195/195/195 
f 195/195/195 188/188/188 195/195/195 
f 188/188/188 186/186/186 195/195/195 
f 195/195/195 186/186/186 195/195/195 
f 186/186/186 187/187/187 195/195/195 
f 195/195/195 187/187/187 195/195/195 
f 187/187/187 196/196/196 195/195/195 
f 195/195/195 196/196/196 194/194/194 
f 196/196/196 194/194/194 194/194/194 
f 194/194/194 194/194/194 197/197/197 
f 194/194/194 197/197/197 197/197/197 
f 197/197/197 197/197/197 198/198/198 
f 197/197/197 199/199/199 198/198/198 
f 198/198/198 199/199/199 200/200/200 
f 199/199/199 201/201/201 200/200/200 
f 200/200/200 201/201/201 202/202/202 
f 201/201/201 203/203/203 202/202/202 
f 202/202/202 203/203/203 203/203/203 
f 203/203/203 198/198/198 203/203/203 
f 203/203/203 198/198/198 198/198/198 
f 198/198/198 200/200/200 198/198/198 
f 198/198/198 200/200/200 204/204/204 
f 200/200/200 205/205/205 204/204/204 
f 204/204/204 205/205/205 206/206/206 
f 205/205/205 205/205/205 206/206/206 
f 206/206/206 205/205/205 207/207/207 
f 205/205/205 208/208/208 207/207/207 
f 207/207/207 208/208/208 209/209/209 
f 208/208/208 210/210/210 209/209/209 
f 209/209/209 210/210/210 211/211/211 
f 210/210/210 211/211/211 211/211/211 
f 211/211/211 211/211/211 200/200/200 
f 211/211/211 200/200/200 200/200/200 
f 200/200/200 200/200/200 205/205/205 
f 200/200/200 202/202/202 205/205/205 
f 205/205/205 202/202/202 208/208/208 
f 202/202/202 212/212/212 208/208/208 
f 208/208/208 212/212/212 210/210/210 
f 212/212/212 213/213/213 210/210/210 
f 210/210/210 213/213/213 210/210/210 
f 213/213/213 214/214/214 210/210/210 
f 210/210/210 214/214/214 211/211/211 
f 214/214/214 214/214/214 211/211/211 
f 211/211/211 214/214/214 215/215/215 
f 214/214/214 216/216/216 215/215/215 
f 215/215/215 216/216/216 217/217/217 
f 216/216/216 218/218/218 217/217/217 
f 217/217/217 218/218/218 219/219/219 
f 218/218/218 219/219/219 219/219/219 
f 219/219/219 219/219/219 202/202/202 
f 219/219/219 202/202/202 202/202/202 
f 202/202/202 202/202/202 212/212/212 
f 202/202/202 203/203/203 212/212/212 
f 212/212/212 203/203/203 212/212/212 
f 203/203/203 220/220/220 212/212/212 
f 212/212/212 220/220/220 213/213/213 
f 220/220/220 221/221/221 213/213/213 
f 213/213/213 221/221/221 222/222/222 
f 221/221/221 223/223/223 222/222/222 
f 222/222/222 223/223/223 222/222/222 
f 223/223/223 224/224/224 222/222/222 
f 222/222/222 224/224/224 216/216/216 
f 224/224/224 218/218/218 216/216/216 
f 216/216/216 218/218/218 218/218/218 
f 218/218/218 216/216/216 218/218/218 
f 218/218/218 216/216/216 216/216/216 
f 216/216/216 214/214/214 216/216/216 
f 216/216/216 214/214/214 222/222/222 
f 214/214/214 213/213/213 222/222/222 
f 222/222/222 213/213/213 213/213/213 
f 213/213/213 225/225/225 213/213/213 
f 213/213/213 225/225/225 225/225/225 
f 225/225/225 226/226/226 225/225/225 
f 225/225/225 226/226/226 227/227/227 
f 226/226/226 228/228/228 227/227/227 
f 227/227/227 228/228/228 229/229/229 
f 228/228/228 230/230/230 229/229/229 
f 229/229/229 230/230/230 231/231/231 
f 230/230/230 230/230/230 231/231/231 
f 231/231/231 230/230/230 232/232/232 
f 230/230/230 233/233/233 232/232/232 
f 232/232/232 233/233/233 234/234/234 
f 233/233/233 235/235/235 234/234/234 
f 234/234/234 235/235/235 236/236/236 
f 235/235/235 236/236/236 236/236/236 
f 236/236/236 236/236/236 226/226/226 
f 236/236/236 226/226/226 226/226/226 
f 226/226/226 226/226/226 228/228/228 
f 226/226/226 237/237/237 228/228/228 
f 228/228/228 237/237/237 238/238/238 
f 237/237/237 239/239/239 238/238/238 
f 238/238/238 239/239/239 240/240/240 
f 239/239/239 241/241/241 240/240/240 
f 240/240/240 241/241/241 242/242/242 
f 241/241/241 243/243/243 242/242/242 
f 242/242/242 243/243/243 243/243/243 
f 243/243/243 228/228/228 243/243/243 
f 243/243/243 228/228/228 228/228/228 
f 228/228/228 238/238/238 228/228/228 
f 228/228/228 238/238/238 230/230/230 
f 238/238/238 238/238/238 230/230/230 
f 230/230/230 238/238/238 233/233/233 
f 238/238/238 240/240/240 233/233/233 
f 233/233/233 240/240/240 235/235/235 
f 240/240/240 242/242/242 235/235/235 
f 235/235/235 242/242/242 235/235/235 
f 242/242/242 244/244/244 235/235/235 
f 235/235/235 244/244/244 236/236/236 
f 244/244/244 244/244/244 236/236/236 
f 236/236/236 244/244/244 245/245/245 
f 244/244/244 246/246/246 245/245/245 
f 245/245/245 246/246/246 247/247/247 
f 246/246/246 248/248/248 247/247/247 
f 247/247/247 248/248/248 249/249/249 
f 248/248/248 249/249/249 249/249/249 
f 249/249/249 249/249/249 248/248/248 
f 249/249/249 248/248/248 248/248/248 
f 248/248/248 248/248/248 250/250/250 
f 248/248/248 246/246/246 250/250/250 
f 250/250/250 246/246/246 251/251/251 
f 246/246/246 244/244/244 251/251/251 
f 251/251/251 244/244/244 251/251/251 
f 244/244/244 242/242/242 251/251/251 
f 251/251/251 242/242/242 251/251/251 
f 242/242/242 243/243/243 251/251/251 
f 251/251/251 243/243/243 251/251/251 
f 243/243/243 252/252/252 251/251/251 
f 251/251/251 252/252/252 250/250/250 
f 252/252/252 250/250/250 250/250/250 
f 250/250/250 250/250/250 253/253/253 
f 250/250/250 253/253/253 253/253/253 
f 253/253/253 253/253/253 254/254/254 
f 253/253/253 255/255/255 254/254/254 
f 254/254/254 255/255/255 256/256/256 
f 255/255/255 257/257/257 256/256/256 
f 256/256/256 257/257/257 258/258/258 
f 257/257/257 259/259/259 258/258/258 
f 258/258/258 259/259/259 259/259/259 
f 259/259/259 254/254/254 259/259/259 
f 259/259/259 254/254/254 254/254/254 
f 254/254/254 256/256/256 254/254/254 
f 254/254/254 256/256/256 260/260/260 
f 256/256/256 261/261/261 260/260/260 
f 260/260/260 261/261/261 262/262/262 
f 261/261/261 261/261/261 262/262/262 
f 262/262/262 261/261/261 263/263/263 
f 261/261/261 264/264/264 263/263/263 
f 263/263/263 264/264/264 265/265/265 
f 264/264/264 266/266/266 265/265/265 
f 265/265/265 266/266/266 267/267/267 
f 266/266/266 267/267/267 267/267/267 
f 267/267/267 267/267/267 256/256/256 
f 267/267/267 256/256/256 256/256/256 
f 256/256/256 256/256/256 261/261/261 
f 256/256/256 258/258/258 261/261/261 
f 261/261/261 258/258/258 264/264/264 
f 258/258/258 268/268/268 264/264/264 
f 264/264/264 268/268/268 266/266/266 
f 268/268/268 269/269/269 266/266/266 
f 266/266/266 269/269/269 266/266/266 
f 269/269/269 270/270/270 266/266/266 
f 266/266/266 270/270/270 267/267/267 
f 270/270/270 270/270/270 267/267/267 
f 267/267/267 270/270/270 271/271/271 
f 270/270/270 272/272/272 271/271/271 
f 271/271/271 272/272/272 273/273/273 
f 272/272/272 274/274/274 273/273/273 
f 273/273/273 274/274/274 275/275/275 
f 274/274/274 275/275/275 275/275/275 
f 275/275/275 275/275/275 258/258/258 
f 275/275/275 258/258/258 258/258/258 
f 258/258/258 258/258/258 268/268/268 
f 258/258/258 259/259/259 268/268/268 
f 268/268/268 259/259/259 268/268/268 
f 259/259/259 276/276/276 268/268/268 
f 268/268/268 276/276/276 269/269/269 
f 276/276/276 277/277/277 269/269/269 
f 269/269/269 277/277/277 278/278/278 
f 277/277/277 279/279/279 278/278/278 
f 278/278/278 279/279/279 278/278/278 
f 279/279/279 280/280/280 278/278/278 
f 278/278/278 280/280/280 272/272/272 
f 280/280/280 274/274/274 272/272/272 
f 272/272/272 274/274/274 274/274/274 
f 274/274/274 272/272/272 274/274/274 
f 274/274/274 272/272/272 272/272/272 
f 272/272/272 270/270/270 272/272/272 
f 272/272/272 270/270/270 278/278/278 
f 270/270/270 269/269/269 278/278/278 
f 278/278/278 269/269/269 269/269/269 
f 269/269/269 281/281/281 269/269/269 
f 269/269/269 281/281/281 281/281/281 
f 281/281/281 282/282/282 281/281/281 
f 281/281/281 282/282/282 283/283/283 
f 282/282/282 284/284/284 283/283/283 
f 283/283/283 284/284/284 285/285/285 
f 284/284/284 286/286/286 285/285/285 
f 285/285/285 286/286/286 287/287/287 
f 286/286/286 286/286/286 287/287/287 
f 287/287/287 286/286/286 288/288/288 
f 286/286/286 289/289/289 288/288/288 
f 288/288/288 289/289/289 290/290/290 
f 289/289/289 291/291/291 290/290/290 
f 290/290/290 291/291/291 292/292/292 
f 291/291/291 292/292/292 292/292/292 
f 292/292/292 292/292/292 282/282/282 
f 292/292/292 282/282/282 282/282/282 
f 282/282/282 282/282/282 284/284/284 
f 282/282/282 293/293/293 284/284/284 
f 284/284/284 293/293/293 294/294/294 
f 293/293/293 295/295/295 294/294/294 
f 294/294/294 295/295/295 296/296/296 
f 295/295/295 297/297/297 296/296/296 
f 296/296/296 297/297/297 298/298/298 
f 297/297/297 299/299/299 298/298/298 
f 298/298/298 299/299/299 299/299/299 
f 299/299/299 284/284/284 299/299/299 
f 299/299/299 284/284/284 284/284/284 
f 284/284/284 294/294/294 284/284/284 
f 284/284/284 294/294/294 286/286/286 
f 294/294/294 294/294/294 286/286/286 
f 286/286/286 294/294/294 289/289/289 
f 294/294/294 296/296/296 289/289/289 
f 289/289/289 296/296/296 291/291/291 
f 296/296/296 298/298/298 291/291/291 
f 291/291/291 298/298/298 291/291/291 
f 298/298/298 300/300/300 291/291/291 
f 291/291/291 300/300/300 292/292/292 
f 300/300/300 300/300/300 292/292/292 
f 292/292/292 300/300/300 301/301/301 
f 300/300/300 302/302/302 301/301/301 
f 301/301/301 302/302/302 303/303/303 
f 302/302/302 304/304/304 303/303/303 
f 303/303/303 304/304/304 305/305/305 
f 304/304/304 305/305/305 305/305/305 
f 305/305/305 305/305/305 304/304/304 
f 305/305/305 304/304/304 304/304/304 
f 304/304/304 304/304/304 306/306/306 
f 304/304/304 302/302/302 306/306/306 
f 306/306/306 302/302/302 307/307/307 
f 302/302/302 300/300/300 307/307/307 
f 307/307/307 300/300/300 307/307/307 
f 300/300/300 298/298/298 307/307/307 
f 307/307/307 298/298/298 307/307/307 
f 298/298/298 299/299/299 307/307/307 
f 307/307/307 299/299/299 307/307/307 
f 299/299/299 308/308/308 307/307/307 
f 307/307/307 308/308/308 306/306/306 
f 308/308/308 306/306/306 306/306/306 
f 306/306/306 306/306/306 309/309/309 
f 306/306/306 309/309/309 309/309/309 
f 309/309/309 309/309/309 310/310/310 
f 309/309/309 311/311/311 310/310/310 
f 310/310/310 311/311/311 312/312/312 
f 311/311/311 313/313/313 312/312/312 
f 312/312/312 313/313/313 314/314/314 
f 313/313/313 315/315/315 314/314/314 
f 314/314/314 315/315/315 315/315/315 
f 315/315/315 310/310/310 315/315/315 
f 315/315/315 310/310/310 310/310/310 
f 310/310/310 312/312/312 310/310/310 
f 310/310/310 312/312/312 316/316/316 
f 312/312/312 317/317/317 316/316/316 
f 316/316/316 317/317/317 318/318/318 
f 317/317/317 317/317/317 318/318/318 
f 318/318/318 317/317/317 319/319/319 
f 317/317/317 320/320/320 319/319/319 
f 319/319/319 320/320/320 321/321/321 
f 320/320/320 322/322/322 321/321/321 
f 321/321/321 322/322/322 323/323/323 
f 322/322/322 323/323/323 323/323/323 
f 323/323/323 323/323/323 312/312/312 
f 323/323/323 312/312/312 312/312/312 
f 312/312/312 312/312/312 317/317/317 
f 312/312/312 314/314/314 317/317/317 
f 317/317/317 314/314/314 320/320/320 
f 314/314/314 324/324/324 320/320/320 
f 320/320/320 324/324/324 322/322/322 
f 324/324/324 325/325/325 322/322/322 
f 322/322/322 325/325/325 322/322/322 
f 325/325/325 326/326/326 322/322/322 
f 322/322/322 326/326/326 323/323/323 
f 326/326/326 326/326/326 323/323/323 
f 323/323/323 326/326/326 327/327/327 
f 326/326/326 328/328/328 327/327/327 
f 327/327/327 328/328/328 329/329/329 
f 328/328/328 330/330/330 329/329/329 
f 329/329/329 330/330/330 331/331/331 
f 330/330/330 331/331/331 331/331/331 
f 331/331/331 331/331/331 314/314/314 
f 331/331/331 314/314/314 314/314/314 
f 314/314/314 314/314/314 324/324/324 
f 314/314/314 315/315/315 324/324/324 
f 324/324/324 315/315/315 324/324/324 
f 315/315/315 332/332/332 324/324/324 
f 324/324/324 332/332/332 325/325/325 
f 332/332/332 333/333/333 325/325/325 
f 325/325/325 333/333/333 334/334/334 
f 333/333/333 335/335/335 334/334/334 
f 334/334/334 335/335/335 334/334/334 
f 335/335/335 336/336/336 334/334/334 
f 334/334/334 336/336/336 328/328/328 
f 336/336/336 330/330/330 328/328/328 
f 328/328/328 330/330/330 330/330/330 
f 330/330/330 328/328/328 330/330/330 
f 330/330/330 328/328/328 328/328/328 
f 328/328/328 326/326/326 328/328/328 
f 328/328/328 326/326/326 334/334/334 
f 326/326/326 325/325/325 334/334/334 

