mtllib model_2.mtl
o model_2
v 0.470071941614151 -2.3755056858062744 2.78853440284729 
v 0.4605889916419983 -2.387723445892334 2.761819362640381 
v 0.48848477005958557 -2.3600072860717773 2.8078629970550537 
v 0.4614793062210083 -2.3947982788085938 2.731786012649536 
v 0.4726077616214752 -2.3956542015075684 2.7030067443847656 
v 0.49227991700172424 -2.3901607990264893 2.679861307144165 
v 0.5175009965896606 -2.379154920578003 2.665875196456909 
v 0.5444313287734985 -2.3643107414245605 2.6631765365600586 
v 0.568970799446106 -2.3478894233703613 2.6721770763397217 
v 0.587383508682251 -2.332390069961548 2.6915059089660645 
v 0.5968666076660156 -2.3201732635498047 2.7182209491729736 
v 0.5959761142730713 -2.3130979537963867 2.7482545375823975 
v 0.5848477482795715 -2.312242269515991 2.777033805847168 
v 0.5651755928993225 -2.3177359104156494 2.8001785278320312 
v 0.5399544835090637 -2.3287417888641357 2.8141655921936035 
v 0.5130242109298706 -2.343585729598999 2.816863536834717 
v -0.6920487880706787 -2.3000481128692627 2.6077077388763428 
v -0.7079156637191772 -2.295997381210327 2.5845024585723877 
v -0.6672220826148987 -2.312746524810791 2.613095283508301 
v -0.7055282592773438 -2.302966833114624 2.5570733547210693 
v -0.6455914378166199 -2.3336238861083984 2.570080280303955 
v -0.470071941614151 -2.3755056858062744 2.78853440284729 
v -0.48848477005958557 -2.3600072860717773 2.8078629970550537 
v -0.4605889916419983 -2.387723445892334 2.761819362640381 
v -0.4614793062210083 -2.3947982788085938 2.731786012649536 
v -0.4726077616214752 -2.3956542015075684 2.7030067443847656 
v -0.49227991700172424 -2.3901607990264893 2.679861307144165 
v -0.5175009965896606 -2.379154920578003 2.665875196456909 
v -0.5444313287734985 -2.3643107414245605 2.6631765365600586 
v -0.568970799446106 -2.3478894233703613 2.6721770763397217 
v -0.587383508682251 -2.332390069961548 2.6915059089660645 
v -0.5968666076660156 -2.3201732635498047 2.7182209491729736 
v -0.5959761142730713 -2.3130979537963867 2.7482545375823975 
v -0.5848477482795715 -2.312242269515991 2.777033805847168 
v -0.5651755928993225 -2.3177359104156494 2.8001785278320312 
v -0.5399544835090637 -2.3287417888641357 2.8141655921936035 
v -0.5130242109298706 -2.343585729598999 2.816863536834717 
v 0.6479789614677429 -2.3266541957855225 2.5975096225738525 
v 0.6455914378166199 -2.3336238861083984 2.570080280303955 
v 0.6672220826148987 -2.312746524810791 2.613095283508301 
v 0.7055282592773438 -2.302966833114624 2.5570733547210693 
v 0.7079156637191772 -2.295997381210327 2.5845024585723877 
v -0.29021474719047546 -2.388887405395508 2.702512502670288 
v -0.3755551874637604 -2.465298891067505 2.627922534942627 
v -0.2828865051269531 -2.4206299781799316 2.5988545417785645 
v -0.7732380628585815 -2.268486499786377 2.5362355709075928 
v -0.7546564936637878 -2.187563896179199 2.4883346557617188 
v -0.8037914633750916 -2.231743097305298 2.609196186065674 
v -0.7910348773002625 -2.143815279006958 2.575204849243164 
v -0.8084759712219238 -2.2066595554351807 2.706342935562134 
v -0.7954400777816772 -2.1147143840789795 2.6878130435943604 
v -0.548105776309967 -2.304248809814453 2.8690836429595947 
v -0.48660388588905334 -2.2301442623138428 2.884638786315918 
v -0.4716363847255707 -2.3540127277374268 2.8427934646606445 
v -0.39555567502975464 -2.289395809173584 2.853337049484253 
v -0.41371601819992065 -2.4008305072784424 2.789079427719116 
v -0.32659295201301575 -2.3451390266418457 2.7893824577331543 
v -0.3831625282764435 -2.4375736713409424 2.7161195278167725 
v 0.7546564936637878 -2.187563896179199 2.4883346557617188 
v 0.7732380628585815 -2.268486499786377 2.5362355709075928 
v 0.2828865051269531 -2.4206299781799316 2.5988545417785645 
v 0.3755551874637604 -2.465298891067505 2.627922534942627 
v 0.29021474719047546 -2.388887405395508 2.702512502670288 
v 0.3831625282764435 -2.4375736713409424 2.7161195278167725 
v 0.32659295201301575 -2.3451390266418457 2.7893824577331543 
v 0.41371601819992065 -2.4008305072784424 2.789079427719116 
v 0.39555567502975464 -2.289395809173584 2.853337049484253 
v 0.4716363847255707 -2.3540127277374268 2.8427934646606445 
v 0.48660388588905334 -2.2301442623138428 2.884638786315918 
v 0.548105776309967 -2.304248809814453 2.8690836429595947 
v 0.7954400777816772 -2.1147143840789795 2.6878130435943604 
v 0.8084759712219238 -2.2066595554351807 2.706342935562134 
v 0.7910348773002625 -2.143815279006958 2.575204849243164 
v 0.8037914633750916 -2.231743097305298 2.609196186065674 
v 0.6920487880706787 -2.3000481128692627 2.6077077388763428 
v -0.6479789614677429 -2.3266541957855225 2.5975096225738525 
vn 0.4850785732269287 -0.8477290272712708 0.21460255980491638 
vn 0.4850785732269287 -0.8477290272712708 0.21460255980491638 
vn 0.4850785732269287 -0.8477290272712708 0.21460255980491638 
vn 0.4850785732269287 -0.8477290272712708 0.21460255980491638 
vn 0.4850785732269287 -0.8477290272712708 0.21460255980491638 
vn 0.4850785732269287 -0.8477290272712708 0.21460255980491638 
vn 0.4850785732269287 -0.8477290272712708 0.21460255980491638 
vn 0.4850785732269287 -0.8477290272712708 0.21460255980491638 
vn 0.4850785732269287 -0.8477290272712708 0.21460255980491638 
vn 0.4850785732269287 -0.8477290272712708 0.21460255980491638 
vn 0.4850785732269287 -0.8477290272712708 0.21460255980491638 
vn 0.4850785732269287 -0.8477290272712708 0.21460255980491638 
vn 0.4850785732269287 -0.8477290272712708 0.21460255980491638 
vn 0.4850785732269287 -0.8477290272712708 0.21460255980491638 
vn 0.4850785732269287 -0.8477290272712708 0.21460255980491638 
vn 0.4850785732269287 -0.8477290272712708 0.21460255980491638 
vn -0.4790538549423218 -0.8599522709846497 0.1760382205247879 
vn -0.4790538549423218 -0.8599522709846497 0.1760382205247879 
vn -0.4790538549423218 -0.8599522709846497 0.1760382205247879 
vn -0.4790538549423218 -0.8599522709846497 0.1760382205247879 
vn -0.4790538549423218 -0.8599522709846497 0.1760382205247879 
vn -0.4883507192134857 -0.8458482623100281 0.21460255980491638 
vn -0.4883507192134857 -0.8458482623100281 0.21460255980491638 
vn -0.4883507192134857 -0.8458482623100281 0.21460255980491638 
vn -0.4883507192134857 -0.8458482623100281 0.21460255980491638 
vn -0.4883507192134857 -0.8458482623100281 0.21460255980491638 
vn -0.4883507192134857 -0.8458482623100281 0.21460255980491638 
vn -0.4883507192134857 -0.8458482623100281 0.21460255980491638 
vn -0.4883507192134857 -0.8458482623100281 0.21460255980491638 
vn -0.4883507192134857 -0.8458482623100281 0.21460255980491638 
vn -0.4883507192134857 -0.8458482623100281 0.21460255980491638 
vn -0.4883507192134857 -0.8458482623100281 0.21460255980491638 
vn -0.4883507192134857 -0.8458482623100281 0.21460255980491638 
vn -0.4883507192134857 -0.8458482623100281 0.21460255980491638 
vn -0.4883507192134857 -0.8458482623100281 0.21460255980491638 
vn -0.4883507192134857 -0.8458482623100281 0.21460255980491638 
vn -0.4883507192134857 -0.8458482623100281 0.21460255980491638 
vn 0.4757516384124756 -0.8617835640907288 0.1760382205247879 
vn 0.4757516384124756 -0.8617835640907288 0.1760382205247879 
vn 0.4757516384124756 -0.8617835640907288 0.1760382205247879 
vn 0.4757516384124756 -0.8617835640907288 0.1760382205247879 
vn 0.4757516384124756 -0.8617835640907288 0.1760382205247879 
vn 0.4704766273498535 -0.7796663045883179 0.41324591636657715 
vn 0.005662320181727409 -0.9696653485298157 -0.24437066912651062 
vn 0.3435080945491791 -0.9008409380912781 -0.26549527049064636 
vn -0.6264459490776062 -0.6317876577377319 -0.456519216299057 
vn -0.6150472164154053 -0.2890016436576843 -0.7336177229881287 
vn -0.8988285064697266 -0.43764129281044006 -0.024029340595006943 
vn -0.970542311668396 0.04903750121593475 -0.23588760197162628 
vn -0.8401349782943726 -0.2602759599685669 0.4758462607860565 
vn -0.8869099617004395 0.1982865035533905 0.417220801115036 
vn -0.39718329906463623 -0.44374215602874756 0.8033295273780823 
vn -0.13178256154060364 -0.08469151705503464 0.9876541495323181 
vn -0.11824794113636017 -0.7164583206176758 0.6875353455543518 
vn 0.2380666732788086 -0.4274115562438965 0.872148871421814 
vn -0.005659089889377356 -0.8322082161903381 0.5544344186782837 
vn 0.40348193049430847 -0.62846440076828 0.6650074124336243 
vn 0.03773894160985947 -0.9220590591430664 0.3852050006389618 
vn 0.6166446805000305 -0.28557732701301575 -0.7336177229881287 
vn 0.6264459490776062 -0.6317876577377319 -0.456519216299057 
vn -0.3435080945491791 -0.9008409380912781 -0.26549527049064636 
vn -0.009437104687094688 -0.9696359634399414 -0.24437066912651062 
vn -0.4704766273498535 -0.7796663045883179 0.41324591636657715 
vn -0.03773894160985947 -0.9220590591430664 0.3852050006389618 
vn -0.40348193049430847 -0.62846440076828 0.6650074124336243 
vn 0.001886376179754734 -0.8322253227233887 0.5544344186782837 
vn -0.2380666732788086 -0.4274115562438965 0.872148871421814 
vn 0.11452599614858627 -0.7170627117156982 0.6875353455543518 
vn 0.13178256154060364 -0.08469151705503464 0.9876541495323181 
vn 0.3999803066253662 -0.4412226676940918 0.8033295273780823 
vn 0.8877252340316772 0.1946040838956833 0.417220801115036 
vn 0.8401349782943726 -0.2602759599685669 0.4758462607860565 
vn 0.9703445434570312 0.052806030958890915 -0.23588760197162628 
vn 0.8988285064697266 -0.43764129281044006 -0.024029340595006943 
vn 0.4757516384124756 -0.8617835640907288 0.1760382205247879 
vn -0.4790538549423218 -0.8599522709846497 0.1760382205247879 
vt 0.8034486770629883 0.3650903105735779 
vt 0.8017316460609436 0.3607161343097687 
vt 0.8056340217590332 0.3680064380168915 
vt 0.8007950186729431 0.35550880432128906 
vt 0.8007169961929321 0.35040560364723206 
vt 0.8014974594116211 0.34592726826667786 
vt 0.8031364679336548 0.34301117062568665 
vt 0.8052437901496887 0.34196969866752625 
vt 0.8075071573257446 0.34301117062568665 
vt 0.8096925020217896 0.34592726826667786 
vt 0.811409592628479 0.35040560364723206 
vt 0.8123461604118347 0.35550880432128906 
vt 0.8124242424964905 0.3607161343097687 
vt 0.8116437196731567 0.3650903105735779 
vt 0.810004711151123 0.3680064380168915 
vt 0.8078974485397339 0.3690479099750519 
vt 0.8170290589332581 0.3162453770637512 
vt 0.8183558583259583 0.3123919367790222 
vt 0.8147656321525574 0.3162453770637512 
vt 0.817809522151947 0.30687215924263 
vt 0.812190055847168 0.30687215924263 
vt 0.8034486770629883 0.3650903105735779 
vt 0.8056340217590332 0.3680064380168915 
vt 0.8017316460609436 0.3607161343097687 
vt 0.8007950186729431 0.35550880432128906 
vt 0.8007169961929321 0.35040560364723206 
vt 0.8014974594116211 0.34592726826667786 
vt 0.8031364679336548 0.34301117062568665 
vt 0.8052437901496887 0.34196969866752625 
vt 0.8075071573257446 0.34301117062568665 
vt 0.8096925020217896 0.34592726826667786 
vt 0.811409592628479 0.35040560364723206 
vt 0.8123461604118347 0.35550880432128906 
vt 0.8124242424964905 0.3607161343097687 
vt 0.8116437196731567 0.3650903105735779 
vt 0.810004711151123 0.3680064380168915 
vt 0.8078974485397339 0.3690479099750519 
vt 0.8127363920211792 0.3123919367790222 
vt 0.812190055847168 0.30687215924263 
vt 0.8147656321525574 0.3162453770637512 
vt 0.817809522151947 0.30687215924263 
vt 0.8183558583259583 0.3123919367790222 
vt 0.9227061867713928 0.2083490937948227 
vt 0.9102965593338013 0.19241459667682648 
vt 0.9192720651626587 0.18991507589817047 
vt 0.9369890093803406 0.16377417743206024 
vt 0.9510376453399658 0.15585899353027344 
vt 0.9420620799064636 0.17700083553791046 
vt 0.9570473432540894 0.17148104310035706 
vt 0.9448718428611755 0.19241459667682648 
vt 0.9604814648628235 0.18991507589817047 
vt 0.9316816926002502 0.23292778432369232 
vt 0.9447157382965088 0.23813512921333313 
vt 0.924735426902771 0.22980336844921112 
vt 0.9364426732063293 0.23448999226093292 
vt 0.9182574152946472 0.2210550159215927 
vt 0.9287158846855164 0.2239711433649063 
vt 0.9131842851638794 0.2079325020313263 
vt 0.9510376453399658 0.15585899353027344 
vt 0.9369890093803406 0.16377417743206024 
vt 0.9192720651626587 0.18991507589817047 
vt 0.9102965593338013 0.19241459667682648 
vt 0.9227061867713928 0.2083490937948227 
vt 0.9131842851638794 0.2079325020313263 
vt 0.9287158846855164 0.2239711433649063 
vt 0.9182574152946472 0.2210550159215927 
vt 0.9364426732063293 0.23448999226093292 
vt 0.924735426902771 0.22980336844921112 
vt 0.9447157382965088 0.23813512921333313 
vt 0.9316816926002502 0.23292778432369232 
vt 0.9604814648628235 0.18991507589817047 
vt 0.9448718428611755 0.19241459667682648 
vt 0.9570473432540894 0.17148104310035706 
vt 0.9420620799064636 0.17700083553791046 
vt 0.8170290589332581 0.3162453770637512 
vt 0.8127363920211792 0.3123919367790222 
s on 
f 1/1/1 2/2/2 3/3/3 
f 2/2/2 4/4/4 3/3/3 
f 3/3/3 4/4/4 5/5/5 
f 4/4/4 5/5/5 5/5/5 
f 5/5/5 5/5/5 5/5/5 
f 5/5/5 6/6/6 5/5/5 
f 5/5/5 6/6/6 3/3/3 
f 6/6/6 7/7/7 3/3/3 
f 3/3/3 7/7/7 8/8/8 
f 7/7/7 8/8/8 8/8/8 
f 8/8/8 8/8/8 8/8/8 
f 8/8/8 9/9/9 8/8/8 
f 8/8/8 9/9/9 3/3/3 
f 9/9/9 10/10/10 3/3/3 
f 3/3/3 10/10/10 11/11/11 
f 10/10/10 11/11/11 11/11/11 
f 11/11/11 11/11/11 11/11/11 
f 11/11/11 12/12/12 11/11/11 
f 11/11/11 12/12/12 3/3/3 
f 12/12/12 13/13/13 3/3/3 
f 3/3/3 13/13/13 14/14/14 
f 13/13/13 14/14/14 14/14/14 
f 14/14/14 14/14/14 14/14/14 
f 14/14/14 15/15/15 14/14/14 
f 14/14/14 15/15/15 3/3/3 
f 15/15/15 16/16/16 3/3/3 
f 3/3/3 16/16/16 16/16/16 
f 16/16/16 17/17/17 16/16/16 
f 16/16/16 17/17/17 17/17/17 
f 17/17/17 18/18/18 17/17/17 
f 17/17/17 18/18/18 19/19/19 
f 18/18/18 20/20/20 19/19/19 
f 19/19/19 20/20/20 21/21/21 
f 20/20/20 21/21/21 21/21/21 
f 21/21/21 21/21/21 22/22/22 
f 21/21/21 22/22/22 22/22/22 
f 22/22/22 22/22/22 22/22/22 
f 22/22/22 23/23/23 22/22/22 
f 22/22/22 23/23/23 24/24/24 
f 23/23/23 25/25/25 24/24/24 
f 24/24/24 25/25/25 25/25/25 
f 25/25/25 23/23/23 25/25/25 
f 25/25/25 23/23/23 26/26/26 
f 23/23/23 27/27/27 26/26/26 
f 26/26/26 27/27/27 27/27/27 
f 27/27/27 23/23/23 27/27/27 
f 27/27/27 23/23/23 28/28/28 
f 23/23/23 29/29/29 28/28/28 
f 28/28/28 29/29/29 29/29/29 
f 29/29/29 23/23/23 29/29/29 
f 29/29/29 23/23/23 30/30/30 
f 23/23/23 31/31/31 30/30/30 
f 30/30/30 31/31/31 31/31/31 
f 31/31/31 23/23/23 31/31/31 
f 31/31/31 23/23/23 32/32/32 
f 23/23/23 33/33/33 32/32/32 
f 32/32/32 33/33/33 33/33/33 
f 33/33/33 23/23/23 33/33/33 
f 33/33/33 23/23/23 34/34/34 
f 23/23/23 35/35/35 34/34/34 
f 34/34/34 35/35/35 35/35/35 
f 35/35/35 23/23/23 35/35/35 
f 35/35/35 23/23/23 36/36/36 
f 23/23/23 37/37/37 36/36/36 
f 36/36/36 37/37/37 37/37/37 
f 37/37/37 38/38/38 37/37/37 
f 37/37/37 38/38/38 38/38/38 
f 38/38/38 39/39/39 38/38/38 
f 38/38/38 39/39/39 40/40/40 
f 39/39/39 41/41/41 40/40/40 
f 40/40/40 41/41/41 42/42/42 
f 41/41/41 42/42/42 42/42/42 
f 42/42/42 42/42/42 43/43/43 
f 42/42/42 43/43/43 43/43/43 
f 43/43/43 43/43/43 43/43/43 
f 43/43/43 44/44/44 43/43/43 
f 43/43/43 44/44/44 45/45/45 
f 44/44/44 46/46/46 45/45/45 
f 45/45/45 46/46/46 47/47/47 
f 46/46/46 48/48/48 47/47/47 
f 47/47/47 48/48/48 49/49/49 
f 48/48/48 50/50/50 49/49/49 
f 49/49/49 50/50/50 51/51/51 
f 50/50/50 52/52/52 51/51/51 
f 51/51/51 52/52/52 53/53/53 
f 52/52/52 54/54/54 53/53/53 
f 53/53/53 54/54/54 55/55/55 
f 54/54/54 56/56/56 55/55/55 
f 55/55/55 56/56/56 57/57/57 
f 56/56/56 58/58/58 57/57/57 
f 57/57/57 58/58/58 43/43/43 
f 58/58/58 44/44/44 43/43/43 
f 43/43/43 44/44/44 44/44/44 
f 44/44/44 52/52/52 44/44/44 
f 44/44/44 52/52/52 52/52/52 
f 52/52/52 50/50/50 52/52/52 
f 52/52/52 50/50/50 54/54/54 
f 50/50/50 48/48/48 54/54/54 
f 54/54/54 48/48/48 46/46/46 
f 48/48/48 46/46/46 46/46/46 
f 46/46/46 46/46/46 46/46/46 
f 46/46/46 44/44/44 46/46/46 
f 46/46/46 44/44/44 54/54/54 
f 44/44/44 58/58/58 54/54/54 
f 54/54/54 58/58/58 56/56/56 
f 58/58/58 56/56/56 56/56/56 
f 56/56/56 56/56/56 59/59/59 
f 56/56/56 59/59/59 59/59/59 
f 59/59/59 59/59/59 59/59/59 
f 59/59/59 60/60/60 59/59/59 
f 59/59/59 60/60/60 61/61/61 
f 60/60/60 62/62/62 61/61/61 
f 61/61/61 62/62/62 63/63/63 
f 62/62/62 64/64/64 63/63/63 
f 63/63/63 64/64/64 65/65/65 
f 64/64/64 66/66/66 65/65/65 
f 65/65/65 66/66/66 67/67/67 
f 66/66/66 68/68/68 67/67/67 
f 67/67/67 68/68/68 69/69/69 
f 68/68/68 70/70/70 69/69/69 
f 69/69/69 70/70/70 71/71/71 
f 70/70/70 72/72/72 71/71/71 
f 71/71/71 72/72/72 73/73/73 
f 72/72/72 74/74/74 73/73/73 
f 73/73/73 74/74/74 59/59/59 
f 74/74/74 60/60/60 59/59/59 
f 59/59/59 60/60/60 60/60/60 
f 60/60/60 66/66/66 60/60/60 
f 60/60/60 66/66/66 66/66/66 
f 66/66/66 64/64/64 66/66/66 
f 66/66/66 64/64/64 68/68/68 
f 64/64/64 62/62/62 68/68/68 
f 68/68/68 62/62/62 60/60/60 
f 62/62/62 60/60/60 60/60/60 
f 60/60/60 60/60/60 60/60/60 
f 60/60/60 74/74/74 60/60/60 
f 60/60/60 74/74/74 68/68/68 
f 74/74/74 72/72/72 68/68/68 
f 68/68/68 72/72/72 70/70/70 
f 40/40/40 42/42/42 75/75/75 
f 19/19/19 21/21/21 76/76/76 

