mtllib model_7.mtl
o model_7
v 0.7001672387123108 -2.1117019653320312 2.8552732467651367 
v 0.7302243113517761 -2.2013869285583496 2.852931022644043 
v 0.7639778852462769 -2.0988943576812744 2.7743539810180664 
v 0.783817708492279 -2.1906301975250244 2.7849690914154053 
v 0.8019841313362122 -2.1049487590789795 2.6948885917663574 
v 0.8169724345207214 -2.1948418617248535 2.720613956451416 
v 0.7864475846290588 -2.1444668769836426 2.586519718170166 
v 0.80492103099823 -2.2351391315460205 2.602504253387451 
v 0.6702227592468262 -2.2069644927978516 2.6099190711975098 
v 0.7371188402175903 -2.2719168663024902 2.6165080070495605 
v 0.6702017784118652 -2.1937203407287598 2.658810615539551 
v 0.7370940446853638 -2.2562777996063232 2.6742405891418457 
v 0.6524017453193665 -2.1914589405059814 2.693361282348633 
v 0.7160752415657043 -2.2536075115203857 2.7150392532348633 
v 0.6236287355422974 -2.1972341537475586 2.7298483848571777 
v 0.6820991635322571 -2.2604269981384277 2.758124351501465 
v 0.5841248631477356 -2.213092803955078 2.7547144889831543 
v 0.6354517340660095 -2.279153347015381 2.787487030029297 
v 0.5399041771888733 -2.236621379852295 2.7641730308532715 
v 0.5832345485687256 -2.306936502456665 2.7986559867858887 
v 0.49769893288612366 -2.26423716545105 2.756783962249756 
v 0.5333971977233887 -2.3395462036132812 2.789930820465088 
v 0.4639343023300171 -2.291736364364624 2.733673095703125 
v 0.4935269057750702 -2.3720180988311768 2.7626404762268066 
v 0.4437508285045624 -2.314932107925415 2.6983580589294434 
v 0.4696935713291168 -2.3994081020355225 2.7209393978118896 
v 0.43500199913978577 -2.334167957305908 2.653261184692383 
v 0.4593627154827118 -2.4221231937408447 2.66768741607666 
v 0.44257852435112 -2.3413689136505127 2.616267681121826 
v 0.46830928325653076 -2.4306259155273438 2.624004602432251 
v 0.41628262400627136 -2.4651224613189697 2.611811637878418 
v 0.3788835108280182 -2.4564437866210938 2.7102773189544678 
v 0.2836979031562805 -2.414008855819702 2.6864724159240723 
v 0.30124711990356445 -2.3727238178253174 2.7854361534118652 
v 0.6566435098648071 -2.2309257984161377 2.899247169494629 
v 0.5742769241333008 -2.274750232696533 2.9168648719787598 
v 0.4956642985343933 -2.326188325881958 2.903102159500122 
v 0.43277353048324585 -2.377408742904663 2.8600547313690186 
v 0.3951791822910309 -2.4206135272979736 2.794276475906372 
v 0.6125583648681641 -2.1468727588653564 2.91041898727417 
v 0.5144892930984497 -2.199052333831787 2.9313952922821045 
v 0.4208892583847046 -2.26029634475708 2.9150092601776123 
v 0.3460085690021515 -2.321281671524048 2.863754987716675 
v 0.3237166404724121 -2.418295383453369 2.5976016521453857 
v -0.2836979031562805 -2.414008855819702 2.6864724159240723 
v -0.30124711990356445 -2.3727238178253174 2.7854361534118652 
v -0.3788835108280182 -2.4564437866210938 2.7102773189544678 
v -0.3951791822910309 -2.4206135272979736 2.794276475906372 
v -0.4593627154827118 -2.4221231937408447 2.66768741607666 
v -0.4696935713291168 -2.3994081020355225 2.7209393978118896 
v -0.43500199913978577 -2.334167957305908 2.653261184692383 
v -0.4437508285045624 -2.314932107925415 2.6983580589294434 
v -0.44257852435112 -2.3413689136505127 2.616267681121826 
v -0.46830928325653076 -2.4306259155273438 2.624004602432251 
v -0.41628262400627136 -2.4651224613189697 2.611811637878418 
v -0.3237166404724121 -2.418295383453369 2.5976016521453857 
v -0.3460085690021515 -2.321281671524048 2.863754987716675 
v -0.43277353048324585 -2.377408742904663 2.8600547313690186 
v -0.4935269057750702 -2.3720180988311768 2.7626404762268066 
v -0.4639343023300171 -2.291736364364624 2.733673095703125 
v -0.4208892583847046 -2.26029634475708 2.9150092601776123 
v -0.4956642985343933 -2.326188325881958 2.903102159500122 
v -0.5333971977233887 -2.3395462036132812 2.789930820465088 
v -0.49769893288612366 -2.26423716545105 2.756783962249756 
v -0.5144892930984497 -2.199052333831787 2.9313952922821045 
v -0.5742769241333008 -2.274750232696533 2.9168648719787598 
v -0.5832345485687256 -2.306936502456665 2.7986559867858887 
v -0.5399041771888733 -2.236621379852295 2.7641730308532715 
v -0.6125583648681641 -2.1468727588653564 2.91041898727417 
v -0.6566435098648071 -2.2309257984161377 2.899247169494629 
v -0.6354517340660095 -2.279153347015381 2.787487030029297 
v -0.5841248631477356 -2.213092803955078 2.7547144889831543 
v -0.7001672387123108 -2.1117019653320312 2.8552732467651367 
v -0.7302243113517761 -2.2013869285583496 2.852931022644043 
v -0.6820991635322571 -2.2604269981384277 2.758124351501465 
v -0.6236287355422974 -2.1972341537475586 2.7298483848571777 
v -0.7639778852462769 -2.0988943576812744 2.7743539810180664 
v -0.783817708492279 -2.1906301975250244 2.7849690914154053 
v -0.7160752415657043 -2.2536075115203857 2.7150392532348633 
v -0.6524017453193665 -2.1914589405059814 2.693361282348633 
v -0.8019841313362122 -2.1049487590789795 2.6948885917663574 
v -0.8169724345207214 -2.1948418617248535 2.720613956451416 
v -0.7370940446853638 -2.2562777996063232 2.6742405891418457 
v -0.6702017784118652 -2.1937203407287598 2.658810615539551 
v -0.7864475846290588 -2.1444668769836426 2.586519718170166 
v -0.80492103099823 -2.2351391315460205 2.602504253387451 
v -0.7371188402175903 -2.2719168663024902 2.6165080070495605 
v -0.6702227592468262 -2.2069644927978516 2.6099190711975098 
vn 0.6230800747871399 0.1858094185590744 0.7597671151161194 
vn 0.6897119283676147 -0.33513662219047546 0.641857385635376 
vn 0.8173498511314392 0.24535448849201202 0.5212872624397278 
vn 0.8067716956138611 -0.3168275058269501 0.4987381398677826 
vn 0.9714022278785706 0.20236247777938843 0.1242060661315918 
vn 0.9194253087043762 -0.31143853068351746 0.2401314377784729 
vn 0.7170764207839966 0 -0.6969945430755615 
vn 0.6668506264686584 -0.4938351809978485 -0.5580654144287109 
vn -0.6059716939926147 -0.66471928358078 -0.43697428703308105 
vn -0.12428925186395645 -0.9127154350280762 -0.3892335295677185 
vn -0.6752263307571411 -0.7352509498596191 -0.058952588587999344 
vn -0.02829008176922798 -0.9854781031608582 0.16742929816246033 
vn -0.5653431415557861 -0.7184297442436218 -0.405272513628006 
vn -0.03209488466382027 -0.9984320402145386 -0.04586252197623253 
vn -0.3813863694667816 -0.6454823613166809 -0.661737859249115 
vn 0.11113517731428146 -0.9731048941612244 -0.2017817199230194 
vn -0.1050361767411232 -0.5086907148361206 -0.8545181155204773 
vn 0.2751809060573578 -0.900649905204773 -0.3363112509250641 
vn 0.17814646661281586 -0.34380707144737244 -0.9219872951507568 
vn 0.46141552925109863 -0.7991951107978821 -0.3852050006389618 
vn 0.4652893543243408 -0.16309767961502075 -0.8700028657913208 
vn 0.6437979340553284 -0.681163489818573 -0.34862664341926575 
vn 0.7229818105697632 0.015119103714823723 -0.6907016038894653 
vn 0.7934749722480774 -0.566224992275238 -0.22312943637371063 
vn 0.8912641406059265 0.15779300034046173 -0.42514660954475403 
vn 0.8798738121986389 -0.4709707796573639 -0.0633138045668602 
vn 0.9634724259376526 0.2539268434047699 -0.08510008454322815 
vn 0.8933086395263672 -0.42361244559288025 0.15017375349998474 
vn 0.8526096940040588 0.22421835362911224 -0.4719987213611603 
vn 0.8508554100990295 -0.3391519784927368 -0.401274174451828 
vn 0.19830122590065002 -0.8057540655136108 -0.5580654144287109 
vn -0.049028489738702774 -0.9715654850006104 0.23163928091526031 
vn -0.44722023606300354 -0.8802126049995422 0.15880759060382843 
vn -0.42657238245010376 -0.7338161468505859 0.528724730014801 
vn 0.5151035189628601 -0.4180116355419159 0.7482877969741821 
vn 0.3390846252441406 -0.5269917845726013 0.7792953848838806 
vn 0.1859445422887802 -0.6502881050109863 0.736579954624176 
vn 0.060283251106739044 -0.7755851745605469 0.6283578276634216 
vn 2.732507959051639e-13 -0.8795284628868103 0.4758462607860565 
vn 0.3496590852737427 0.05995507165789604 0.9349566102027893 
vn 0.07930958271026611 -0.1249719113111496 0.9889853596687317 
vn -0.14977280795574188 -0.33947688341140747 0.9286137819290161 
vn -0.32727110385894775 -0.5618252158164978 0.7597671151161194 
vn -0.2670362889766693 -0.7778501510620117 -0.5688942670822144 
vn 0.44722023606300354 -0.8802126049995422 0.15880759060382843 
vn 0.4298289120197296 -0.7319133877754211 0.528724730014801 
vn 0.049028489738702774 -0.9715654850006104 0.23163928091526031 
vn 2.732507959051639e-13 -0.8795284628868103 0.4758462607860565 
vn -0.8916851282119751 -0.427019327878952 0.15017375349998474 
vn -0.8816480040550232 -0.46764105558395386 -0.0633138045668602 
vn -0.9644277691841125 0.25027385354042053 -0.08510008454322815 
vn -0.8905980587005615 0.16151006519794464 -0.42514660954475403 
vn -0.8535628914833069 0.22056207060813904 -0.4719987213611603 
vn -0.8508554100990295 -0.3391519784927368 -0.401274174451828 
vn -0.19830122590065002 -0.8057540655136108 -0.5580654144287109 
vn 0.2670362889766693 -0.7778501510620117 -0.5688942670822144 
vn 0.32727110385894775 -0.5618252158164978 0.7597671151161194 
vn -0.060283251106739044 -0.7755851745605469 0.6283578276634216 
vn -0.7912756204605103 -0.5692944526672363 -0.22312943637371063 
vn -0.7228928804397583 0.01889810524880886 -0.6907016038894653 
vn 0.14977280795574188 -0.33947688341140747 0.9286137819290161 
vn -0.1859445422887802 -0.6502881050109863 0.736579954624176 
vn -0.6437979340553284 -0.681163489818573 -0.34862664341926575 
vn -0.4652893543243408 -0.16309767961502075 -0.8700028657913208 
vn -0.08242509514093399 -0.12293938547372818 0.9889853596687317 
vn -0.3390846252441406 -0.5269917845726013 0.7792953848838806 
vn -0.46141552925109863 -0.7991951107978821 -0.3852050006389618 
vn -0.17814646661281586 -0.34380707144737244 -0.9219872951507568 
vn -0.3496590852737427 0.05995507165789604 0.9349566102027893 
vn -0.5127204656600952 -0.4209311604499817 0.7482877969741821 
vn -0.2751809060573578 -0.900649905204773 -0.3363112509250641 
vn 0.1050361767411232 -0.5086907148361206 -0.8545181155204773 
vn -0.6230800747871399 0.1858094185590744 0.7597671151161194 
vn -0.6880559325218201 -0.3385234773159027 0.641857385635376 
vn -0.11488538235425949 -0.972669243812561 -0.2017817199230194 
vn 0.3813863694667816 -0.6454823613166809 -0.661737859249115 
vn -0.8184259533882141 0.24174059927463531 0.5212872624397278 
vn -0.8067716956138611 -0.3168275058269501 0.4987381398677826 
vn 0.02832009457051754 -0.9985462427139282 -0.04586252197623253 
vn 0.5623725056648254 -0.7207574844360352 -0.405272513628006 
vn -0.9714022278785706 0.20236247777938843 0.1242060661315918 
vn -0.9194253087043762 -0.31143853068351746 0.2401314377784729 
vn 0.03206084296107292 -0.9853626489639282 0.16742929816246033 
vn 0.6724418997764587 -0.7377983927726746 -0.058952588587999344 
vn -0.7170764207839966 -1.4830797451671068e-13 -0.6969945430755615 
vn -0.6668506264686584 -0.4938351809978485 -0.5580654144287109 
vn 0.12428925186395645 -0.9127154350280762 -0.3892335295677185 
vn 0.6059716939926147 -0.66471928358078 -0.43697428703308105 
vt 0.9661222100257874 0.22689111530780792 
vt 0.950951337814331 0.22389259934425354 
vt 0.9689977169036865 0.21124671399593353 
vt 0.9533310532569885 0.21072523295879364 
vt 0.9687002301216125 0.19273416697978973 
vt 0.9531327486038208 0.1953415721654892 
vt 0.9653289318084717 0.1743520051240921 
vt 0.9502572417259216 0.17982754111289978 
vt 0.9502572417259216 0.17982754111289978 
vt 0.9502572417259216 0.17982754111289978 
vt 0.9531327486038208 0.1953415721654892 
vt 0.9531327486038208 0.1953415721654892 
vt 0.9533310532569885 0.21072523295879364 
vt 0.9533310532569885 0.21072523295879364 
vt 0.950951337814331 0.22389259934425354 
vt 0.950951337814331 0.22389259934425354 
vt 0.9461918473243713 0.23262739181518555 
vt 0.9461918473243713 0.23262739181518555 
vt 0.939845860004425 0.2357562631368637 
vt 0.939845860004425 0.2357562631368637 
vt 0.9330040812492371 0.23262739181518555 
vt 0.9330040812492371 0.23262739181518555 
vt 0.926459789276123 0.22389259934425354 
vt 0.926459789276123 0.22389259934425354 
vt 0.9214028120040894 0.21072523295879364 
vt 0.9214028120040894 0.21072523295879364 
vt 0.9185273051261902 0.1953415721654892 
vt 0.9185273051261902 0.1953415721654892 
vt 0.9183290004730225 0.17982754111289978 
vt 0.9183290004730225 0.17982754111289978 
vt 0.9183290004730225 0.17982754111289978 
vt 0.9185273051261902 0.1953415721654892 
vt 0.9275504946708679 0.19273416697978973 
vt 0.9309217929840088 0.21124671399593353 
vt 0.9461918473243713 0.23262739181518555 
vt 0.939845860004425 0.2357562631368637 
vt 0.9330040812492371 0.23262739181518555 
vt 0.926459789276123 0.22389259934425354 
vt 0.9214028120040894 0.21072523295879364 
vt 0.9604703187942505 0.2373207062482834 
vt 0.9529344439506531 0.24097107350826263 
vt 0.9447044730186462 0.2373207062482834 
vt 0.9369703531265259 0.22689111530780792 
vt 0.9272530674934387 0.1743520051240921 
vt 0.9275504946708679 0.19273416697978973 
vt 0.9309217929840088 0.21124671399593353 
vt 0.9185273051261902 0.1953415721654892 
vt 0.9214028120040894 0.21072523295879364 
vt 0.9185273051261902 0.1953415721654892 
vt 0.9214028120040894 0.21072523295879364 
vt 0.9185273051261902 0.1953415721654892 
vt 0.9214028120040894 0.21072523295879364 
vt 0.9183290004730225 0.17982754111289978 
vt 0.9183290004730225 0.17982754111289978 
vt 0.9183290004730225 0.17982754111289978 
vt 0.9272530674934387 0.1743520051240921 
vt 0.9369703531265259 0.22689111530780792 
vt 0.926459789276123 0.22389259934425354 
vt 0.926459789276123 0.22389259934425354 
vt 0.926459789276123 0.22389259934425354 
vt 0.9447044730186462 0.2373207062482834 
vt 0.9330040812492371 0.23262739181518555 
vt 0.9330040812492371 0.23262739181518555 
vt 0.9330040812492371 0.23262739181518555 
vt 0.9529344439506531 0.24097107350826263 
vt 0.939845860004425 0.2357562631368637 
vt 0.939845860004425 0.2357562631368637 
vt 0.939845860004425 0.2357562631368637 
vt 0.9604703187942505 0.2373207062482834 
vt 0.9461918473243713 0.23262739181518555 
vt 0.9461918473243713 0.23262739181518555 
vt 0.9461918473243713 0.23262739181518555 
vt 0.9661222100257874 0.22689111530780792 
vt 0.950951337814331 0.22389259934425354 
vt 0.950951337814331 0.22389259934425354 
vt 0.950951337814331 0.22389259934425354 
vt 0.9689977169036865 0.21124671399593353 
vt 0.9533310532569885 0.21072523295879364 
vt 0.9533310532569885 0.21072523295879364 
vt 0.9533310532569885 0.21072523295879364 
vt 0.9687002301216125 0.19273416697978973 
vt 0.9531327486038208 0.1953415721654892 
vt 0.9531327486038208 0.1953415721654892 
vt 0.9531327486038208 0.1953415721654892 
vt 0.9653289318084717 0.1743520051240921 
vt 0.9502572417259216 0.17982754111289978 
vt 0.9502572417259216 0.17982754111289978 
vt 0.9502572417259216 0.17982754111289978 
s on 
f 1/1/1 2/2/2 3/3/3 
f 2/2/2 4/4/4 3/3/3 
f 3/3/3 4/4/4 5/5/5 
f 4/4/4 6/6/6 5/5/5 
f 5/5/5 6/6/6 7/7/7 
f 6/6/6 8/8/8 7/7/7 
f 7/7/7 8/8/8 9/9/9 
f 8/8/8 10/10/10 9/9/9 
f 9/9/9 10/10/10 11/11/11 
f 10/10/10 12/12/12 11/11/11 
f 11/11/11 12/12/12 13/13/13 
f 12/12/12 14/14/14 13/13/13 
f 13/13/13 14/14/14 15/15/15 
f 14/14/14 16/16/16 15/15/15 
f 15/15/15 16/16/16 17/17/17 
f 16/16/16 18/18/18 17/17/17 
f 17/17/17 18/18/18 19/19/19 
f 18/18/18 20/20/20 19/19/19 
f 19/19/19 20/20/20 21/21/21 
f 20/20/20 22/22/22 21/21/21 
f 21/21/21 22/22/22 23/23/23 
f 22/22/22 24/24/24 23/23/23 
f 23/23/23 24/24/24 25/25/25 
f 24/24/24 26/26/26 25/25/25 
f 25/25/25 26/26/26 27/27/27 
f 26/26/26 28/28/28 27/27/27 
f 27/27/27 28/28/28 29/29/29 
f 28/28/28 30/30/30 29/29/29 
f 29/29/29 30/30/30 31/31/31 
f 30/30/30 32/32/32 31/31/31 
f 31/31/31 32/32/32 33/33/33 
f 32/32/32 34/34/34 33/33/33 
f 33/33/33 34/34/34 34/34/34 
f 34/34/34 10/10/10 34/34/34 
f 34/34/34 10/10/10 10/10/10 
f 10/10/10 8/8/8 10/10/10 
f 10/10/10 8/8/8 12/12/12 
f 8/8/8 6/6/6 12/12/12 
f 12/12/12 6/6/6 14/14/14 
f 6/6/6 4/4/4 14/14/14 
f 14/14/14 4/4/4 16/16/16 
f 4/4/4 2/2/2 16/16/16 
f 16/16/16 2/2/2 18/18/18 
f 2/2/2 35/35/35 18/18/18 
f 18/18/18 35/35/35 20/20/20 
f 35/35/35 36/36/36 20/20/20 
f 20/20/20 36/36/36 22/22/22 
f 36/36/36 37/37/37 22/22/22 
f 22/22/22 37/37/37 24/24/24 
f 37/37/37 38/38/38 24/24/24 
f 24/24/24 38/38/38 26/26/26 
f 38/38/38 39/39/39 26/26/26 
f 26/26/26 39/39/39 28/28/28 
f 39/39/39 32/32/32 28/28/28 
f 28/28/28 32/32/32 30/30/30 
f 32/32/32 30/30/30 30/30/30 
f 30/30/30 30/30/30 2/2/2 
f 30/30/30 2/2/2 2/2/2 
f 2/2/2 2/2/2 2/2/2 
f 2/2/2 1/1/1 2/2/2 
f 2/2/2 1/1/1 35/35/35 
f 1/1/1 40/40/40 35/35/35 
f 35/35/35 40/40/40 36/36/36 
f 40/40/40 41/41/41 36/36/36 
f 36/36/36 41/41/41 37/37/37 
f 41/41/41 42/42/42 37/37/37 
f 37/37/37 42/42/42 38/38/38 
f 42/42/42 43/43/43 38/38/38 
f 38/38/38 43/43/43 39/39/39 
f 43/43/43 34/34/34 39/39/39 
f 39/39/39 34/34/34 32/32/32 
f 34/34/34 32/32/32 32/32/32 
f 32/32/32 32/32/32 29/29/29 
f 32/32/32 29/29/29 29/29/29 
f 29/29/29 29/29/29 29/29/29 
f 29/29/29 31/31/31 29/29/29 
f 29/29/29 31/31/31 44/44/44 
f 31/31/31 33/33/33 44/44/44 
f 44/44/44 33/33/33 33/33/33 
f 33/33/33 45/45/45 33/33/33 
f 33/33/33 45/45/45 45/45/45 
f 45/45/45 46/46/46 45/45/45 
f 45/45/45 46/46/46 47/47/47 
f 46/46/46 48/48/48 47/47/47 
f 47/47/47 48/48/48 49/49/49 
f 48/48/48 50/50/50 49/49/49 
f 49/49/49 50/50/50 51/51/51 
f 50/50/50 52/52/52 51/51/51 
f 51/51/51 52/52/52 52/52/52 
f 52/52/52 51/51/51 52/52/52 
f 52/52/52 51/51/51 51/51/51 
f 51/51/51 53/53/53 51/51/51 
f 51/51/51 53/53/53 49/49/49 
f 53/53/53 54/54/54 49/49/49 
f 49/49/49 54/54/54 47/47/47 
f 54/54/54 55/55/55 47/47/47 
f 47/47/47 55/55/55 45/45/45 
f 55/55/55 56/56/56 45/45/45 
f 45/45/45 56/56/56 56/56/56 
f 56/56/56 55/55/55 56/56/56 
f 56/56/56 55/55/55 53/53/53 
f 55/55/55 54/54/54 53/53/53 
f 53/53/53 54/54/54 54/54/54 
f 54/54/54 46/46/46 54/54/54 
f 54/54/54 46/46/46 46/46/46 
f 46/46/46 57/57/57 46/46/46 
f 46/46/46 57/57/57 48/48/48 
f 57/57/57 58/58/58 48/48/48 
f 48/48/48 58/58/58 50/50/50 
f 58/58/58 59/59/59 50/50/50 
f 50/50/50 59/59/59 52/52/52 
f 59/59/59 60/60/60 52/52/52 
f 52/52/52 60/60/60 60/60/60 
f 60/60/60 57/57/57 60/60/60 
f 60/60/60 57/57/57 57/57/57 
f 57/57/57 61/61/61 57/57/57 
f 57/57/57 61/61/61 58/58/58 
f 61/61/61 62/62/62 58/58/58 
f 58/58/58 62/62/62 59/59/59 
f 62/62/62 63/63/63 59/59/59 
f 59/59/59 63/63/63 60/60/60 
f 63/63/63 64/64/64 60/60/60 
f 60/60/60 64/64/64 64/64/64 
f 64/64/64 61/61/61 64/64/64 
f 64/64/64 61/61/61 61/61/61 
f 61/61/61 65/65/65 61/61/61 
f 61/61/61 65/65/65 62/62/62 
f 65/65/65 66/66/66 62/62/62 
f 62/62/62 66/66/66 63/63/63 
f 66/66/66 67/67/67 63/63/63 
f 63/63/63 67/67/67 64/64/64 
f 67/67/67 68/68/68 64/64/64 
f 64/64/64 68/68/68 68/68/68 
f 68/68/68 65/65/65 68/68/68 
f 68/68/68 65/65/65 65/65/65 
f 65/65/65 69/69/69 65/65/65 
f 65/65/65 69/69/69 66/66/66 
f 69/69/69 70/70/70 66/66/66 
f 66/66/66 70/70/70 67/67/67 
f 70/70/70 71/71/71 67/67/67 
f 67/67/67 71/71/71 68/68/68 
f 71/71/71 72/72/72 68/68/68 
f 68/68/68 72/72/72 72/72/72 
f 72/72/72 69/69/69 72/72/72 
f 72/72/72 69/69/69 69/69/69 
f 69/69/69 73/73/73 69/69/69 
f 69/69/69 73/73/73 70/70/70 
f 73/73/73 74/74/74 70/70/70 
f 70/70/70 74/74/74 71/71/71 
f 74/74/74 75/75/75 71/71/71 
f 71/71/71 75/75/75 72/72/72 
f 75/75/75 76/76/76 72/72/72 
f 72/72/72 76/76/76 76/76/76 
f 76/76/76 73/73/73 76/76/76 
f 76/76/76 73/73/73 73/73/73 
f 73/73/73 77/77/77 73/73/73 
f 73/73/73 77/77/77 74/74/74 
f 77/77/77 78/78/78 74/74/74 
f 74/74/74 78/78/78 75/75/75 
f 78/78/78 79/79/79 75/75/75 
f 75/75/75 79/79/79 76/76/76 
f 79/79/79 80/80/80 76/76/76 
f 76/76/76 80/80/80 80/80/80 
f 80/80/80 77/77/77 80/80/80 
f 80/80/80 77/77/77 77/77/77 
f 77/77/77 81/81/81 77/77/77 
f 77/77/77 81/81/81 78/78/78 
f 81/81/81 82/82/82 78/78/78 
f 78/78/78 82/82/82 79/79/79 
f 82/82/82 83/83/83 79/79/79 
f 79/79/79 83/83/83 80/80/80 
f 83/83/83 84/84/84 80/80/80 
f 80/80/80 84/84/84 84/84/84 
f 84/84/84 81/81/81 84/84/84 
f 84/84/84 81/81/81 81/81/81 
f 81/81/81 85/85/85 81/81/81 
f 81/81/81 85/85/85 82/82/82 
f 85/85/85 86/86/86 82/82/82 
f 82/82/82 86/86/86 83/83/83 
f 86/86/86 87/87/87 83/83/83 
f 83/83/83 87/87/87 84/84/84 
f 87/87/87 88/88/88 84/84/84 
f 84/84/84 88/88/88 88/88/88 
f 88/88/88 87/87/87 88/88/88 
f 88/88/88 87/87/87 87/87/87 
f 87/87/87 86/86/86 87/87/87 
f 87/87/87 86/86/86 88/88/88 
f 86/86/86 85/85/85 88/88/88 

