mtllib model_3.mtl
o model_3
v 0.4946666955947876 -2.3508498668670654 2.8453476428985596 
v 0.48393064737319946 -2.3638360500335693 2.8236734867095947 
v 0.5126459002494812 -2.3356356620788574 2.8594515323638916 
v 0.4820719063282013 -2.372615337371826 2.797729015350342 
v 0.48937374353408813 -2.375852346420288 2.771463632583618 
v 0.5047245025634766 -2.373054027557373 2.7488765716552734 
v 0.5257869958877563 -2.3646464347839355 2.7334060668945312 
v 0.5493548512458801 -2.3519091606140137 2.727407217025757 
v 0.5718398690223694 -2.3367817401885986 2.7317938804626465 
v 0.5898190140724182 -2.3215670585632324 2.7458975315093994 
v 0.6005552411079407 -2.3085813522338867 2.7675724029541016 
v 0.6024138331413269 -2.2998013496398926 2.7935166358947754 
v 0.5951120257377625 -2.296564817428589 2.81978178024292 
v 0.5797613859176636 -2.299363374710083 2.8423690795898438 
v 0.5586987137794495 -2.3077709674835205 2.857839822769165 
v 0.5351309776306152 -2.3205082416534424 2.8638384342193604 
v 0.6424542665481567 -2.32810115814209 2.63083815574646 
v 0.645301342010498 -2.3344497680664062 2.603302001953125 
v 0.6576547622680664 -2.3132851123809814 2.649707794189453 
v 0.6645280122756958 -2.3286116123199463 2.5832297801971436 
v 0.6888718605041504 -2.314006805419922 2.5823793411254883 
v 0.7040722966194153 -2.2991905212402344 2.6012496948242188 
v 0.7012253999710083 -2.292842388153076 2.6287853717803955 
v 0.6819984912872314 -2.298680305480957 2.648857831954956 
v -0.5351309776306152 -2.3205082416534424 2.8638384342193604 
v -0.5586987137794495 -2.3077709674835205 2.857839822769165 
v -0.5126459002494812 -2.3356356620788574 2.8594515323638916 
v -0.5797613859176636 -2.299363374710083 2.8423690795898438 
v -0.5951120257377625 -2.296564817428589 2.81978178024292 
v -0.6024138331413269 -2.2998013496398926 2.7935166358947754 
v -0.6005552411079407 -2.3085813522338867 2.7675724029541016 
v -0.5898190140724182 -2.3215670585632324 2.7458975315093994 
v -0.5718398690223694 -2.3367817401885986 2.7317938804626465 
v -0.5493548512458801 -2.3519091606140137 2.727407217025757 
v -0.5257869958877563 -2.3646464347839355 2.7334060668945312 
v -0.5047245025634766 -2.373054027557373 2.7488765716552734 
v -0.48937374353408813 -2.375852346420288 2.771463632583618 
v -0.4820719063282013 -2.372615337371826 2.797729015350342 
v -0.48393064737319946 -2.3638360500335693 2.8236734867095947 
v -0.4946666955947876 -2.3508498668670654 2.8453476428985596 
v -0.6819984912872314 -2.298680305480957 2.648857831954956 
v -0.7012253999710083 -2.292842388153076 2.6287853717803955 
v -0.6576547622680664 -2.3132851123809814 2.649707794189453 
v -0.7040722966194153 -2.2991905212402344 2.6012496948242188 
v -0.6888718605041504 -2.314006805419922 2.5823793411254883 
v -0.6645280122756958 -2.3286116123199463 2.5832297801971436 
v -0.645301342010498 -2.3344497680664062 2.603302001953125 
v -0.6424542665481567 -2.32810115814209 2.63083815574646 
v 0.7001672387123108 -2.1117019653320312 2.8552732467651367 
v 0.7302243113517761 -2.2013869285583496 2.852931022644043 
v 0.7639778852462769 -2.0988943576812744 2.7743539810180664 
v 0.783817708492279 -2.1906301975250244 2.7849690914154053 
v 0.8019841313362122 -2.1049487590789795 2.6948885917663574 
v 0.8169724345207214 -2.1948418617248535 2.720613956451416 
v 0.7864475846290588 -2.1444668769836426 2.586519718170166 
v 0.8026893734931946 -2.228905439376831 2.6272101402282715 
v 0.7416860461235046 -2.195908546447754 2.5082004070281982 
v 0.765095055103302 -2.2721102237701416 2.561431646347046 
v 0.6577578783035278 -2.2518515586853027 2.4840683937072754 
v 0.693156898021698 -2.3182883262634277 2.545506000518799 
v 0.5641579627990723 -2.313095808029175 2.467682123184204 
v 0.6145440340042114 -2.3697259426116943 2.5317435264587402 
v 0.4751359522342682 -2.370317220687866 2.4615368843078613 
v 0.5412250757217407 -2.418593168258667 2.5222396850585938 
v 0.387527197599411 -2.4054882526397705 2.5166823863983154 
v 0.4676441550254822 -2.448132276535034 2.5685553550720215 
v 0.3237166404724121 -2.418295383453369 2.5976016521453857 
v 0.41405099630355835 -2.4588887691497803 2.6365175247192383 
v 0.2836979031562805 -2.414008855819702 2.6864724159240723 
v 0.3788835108280182 -2.4564437866210938 2.7102773189544678 
v 0.30124711990356445 -2.3727238178253174 2.7854361534118652 
v 0.3951791822910309 -2.4206135272979736 2.794276475906372 
v 0.6125583648681641 -2.1468727588653564 2.91041898727417 
v 0.6566435098648071 -2.2309257984161377 2.899247169494629 
v -0.7001672387123108 -2.1117019653320312 2.8552732467651367 
v -0.6566435098648071 -2.2309257984161377 2.899247169494629 
v -0.6125583648681641 -2.1468727588653564 2.91041898727417 
v -0.3951791822910309 -2.4206135272979736 2.794276475906372 
v -0.30124711990356445 -2.3727238178253174 2.7854361534118652 
v -0.3788835108280182 -2.4564437866210938 2.7102773189544678 
v -0.2836979031562805 -2.414008855819702 2.6864724159240723 
v -0.41405099630355835 -2.4588887691497803 2.6365175247192383 
v -0.3237166404724121 -2.418295383453369 2.5976016521453857 
v -0.4676441550254822 -2.448132276535034 2.5685553550720215 
v -0.387527197599411 -2.4054882526397705 2.5166823863983154 
v -0.5412250757217407 -2.418593168258667 2.5222396850585938 
v -0.4751359522342682 -2.370317220687866 2.4615368843078613 
v -0.6145440340042114 -2.3697259426116943 2.5317435264587402 
v -0.5641579627990723 -2.313095808029175 2.467682123184204 
v -0.693156898021698 -2.3182883262634277 2.545506000518799 
v -0.6577578783035278 -2.2518515586853027 2.4840683937072754 
v -0.765095055103302 -2.2721102237701416 2.561431646347046 
v -0.7416860461235046 -2.195908546447754 2.5082004070281982 
v -0.8026893734931946 -2.228905439376831 2.6272101402282715 
v -0.7864475846290588 -2.1444668769836426 2.586519718170166 
v -0.8169724345207214 -2.1948418617248535 2.720613956451416 
v -0.8019841313362122 -2.1049487590789795 2.6948885917663574 
v -0.783817708492279 -2.1906301975250244 2.7849690914154053 
v -0.7639778852462769 -2.0988943576812744 2.7743539810180664 
v -0.7302243113517761 -2.2013869285583496 2.852931022644043 
vn 0.5075422525405884 -0.8262468576431274 0.24437066912651062 
vn 0.5075422525405884 -0.8262468576431274 0.24437066912651062 
vn 0.5075422525405884 -0.8262468576431274 0.24437066912651062 
vn 0.5075422525405884 -0.8262468576431274 0.24437066912651062 
vn 0.5075422525405884 -0.8262468576431274 0.24437066912651062 
vn 0.5075422525405884 -0.8262468576431274 0.24437066912651062 
vn 0.5075422525405884 -0.8262468576431274 0.24437066912651062 
vn 0.5075422525405884 -0.8262468576431274 0.24437066912651062 
vn 0.5075422525405884 -0.8262468576431274 0.24437066912651062 
vn 0.5075422525405884 -0.8262468576431274 0.24437066912651062 
vn 0.5075422525405884 -0.8262468576431274 0.24437066912651062 
vn 0.5075422525405884 -0.8262468576431274 0.24437066912651062 
vn 0.5075422525405884 -0.8262468576431274 0.24437066912651062 
vn 0.5075422525405884 -0.8262468576431274 0.24437066912651062 
vn 0.5075422525405884 -0.8262468576431274 0.24437066912651062 
vn 0.5075422525405884 -0.8262468576431274 0.24437066912651062 
vn 0.5075422525405884 -0.8262468576431274 0.24437066912651062 
vn 0.5075422525405884 -0.8262468576431274 0.24437066912651062 
vn 0.5075422525405884 -0.8262468576431274 0.24437066912651062 
vn 0.5075422525405884 -0.8262468576431274 0.24437066912651062 
vn 0.5075422525405884 -0.8262468576431274 0.24437066912651062 
vn 0.5075422525405884 -0.8262468576431274 0.24437066912651062 
vn 0.5075422525405884 -0.8262468576431274 0.24437066912651062 
vn 0.5075422525405884 -0.8262468576431274 0.24437066912651062 
vn -0.5107548832893372 -0.8242647647857666 0.24437066912651062 
vn -0.5107548832893372 -0.8242647647857666 0.24437066912651062 
vn -0.5107548832893372 -0.8242647647857666 0.24437066912651062 
vn -0.5107548832893372 -0.8242647647857666 0.24437066912651062 
vn -0.5107548832893372 -0.8242647647857666 0.24437066912651062 
vn -0.5107548832893372 -0.8242647647857666 0.24437066912651062 
vn -0.5107548832893372 -0.8242647647857666 0.24437066912651062 
vn -0.5107548832893372 -0.8242647647857666 0.24437066912651062 
vn -0.5107548832893372 -0.8242647647857666 0.24437066912651062 
vn -0.5107548832893372 -0.8242647647857666 0.24437066912651062 
vn -0.5107548832893372 -0.8242647647857666 0.24437066912651062 
vn -0.5107548832893372 -0.8242647647857666 0.24437066912651062 
vn -0.5107548832893372 -0.8242647647857666 0.24437066912651062 
vn -0.5107548832893372 -0.8242647647857666 0.24437066912651062 
vn -0.5107548832893372 -0.8242647647857666 0.24437066912651062 
vn -0.5107548832893372 -0.8242647647857666 0.24437066912651062 
vn -0.5043218731880188 -0.8282164335250854 0.24437066912651062 
vn -0.5043218731880188 -0.8282164335250854 0.24437066912651062 
vn -0.5043218731880188 -0.8282164335250854 0.24437066912651062 
vn -0.5043218731880188 -0.8282164335250854 0.24437066912651062 
vn -0.5043218731880188 -0.8282164335250854 0.24437066912651062 
vn -0.5043218731880188 -0.8282164335250854 0.24437066912651062 
vn -0.5043218731880188 -0.8282164335250854 0.24437066912651062 
vn -0.5043218731880188 -0.8282164335250854 0.24437066912651062 
vn 0.6230800747871399 0.1858094185590744 0.7597671151161194 
vn 0.6893811821937561 -0.3421556353569031 0.6385006904602051 
vn 0.8173498511314392 0.24535448849201202 0.5212872624397278 
vn 0.8136061429977417 -0.3170970380306244 0.48733407258987427 
vn 0.9754400849342346 0.1875348836183548 0.11553031951189041 
vn 0.9237617254257202 -0.31125155091285706 0.22312943637371063 
vn 0.9429394602775574 0.022646378725767136 -0.33219319581985474 
vn 0.8929368853569031 -0.4443816542625427 -0.07203252613544464 
vn 0.7121976613998413 -0.25206878781318665 -0.6551609039306641 
vn 0.7417519688606262 -0.5939410328865051 -0.31150925159454346 
vn 0.45534127950668335 -0.4499949812889099 -0.7682244777679443 
vn 0.5685664415359497 -0.7613765001296997 -0.31150925159454346 
vn 0.41780591011047363 -0.48059871792793274 -0.7710143327713013 
vn 0.5440919995307922 -0.7790544629096985 -0.31150925159454346 
vn 0.14623691141605377 -0.6988885998725891 -0.7001210451126099 
vn 0.384962797164917 -0.8528735041618347 -0.3527185618877411 
vn -0.163290873169899 -0.8705074787139893 -0.4642767012119293 
vn 0.1654077023267746 -0.9719093441963196 -0.16742929816246033 
vn -0.3170902729034424 -0.9196722507476807 -0.23163928091526031 
vn 0.07544279098510742 -0.9970902800559998 -0.010923261754214764 
vn -0.4234091341495514 -0.8941206336021423 0.1458524912595749 
vn -0.04528554528951645 -0.9747030138969421 0.21886809170246124 
vn -0.3846236765384674 -0.6159218549728394 0.6875353455543518 
vn 0.003772101132199168 -0.746827244758606 0.6650074124336243 
vn 0.15249691903591156 -0.05151849612593651 0.986960232257843 
vn 0.3498987555503845 -0.45084092020988464 0.8211658596992493 
vn -0.6230800747871399 0.1858094185590744 0.7597671151161194 
vn -0.3498987555503845 -0.45084092020988464 0.8211658596992493 
vn -0.15365441143512726 -0.04795610159635544 0.986960232257843 
vn -0.003772101132199168 -0.746827244758606 0.6650074124336243 
vn 0.38142019510269165 -0.6179108023643494 0.6875353455543518 
vn 0.04528554528951645 -0.9747030138969421 0.21886809170246124 
vn 0.4234091341495514 -0.8941206336021423 0.1458524912595749 
vn -0.07544279098510742 -0.9970902800559998 -0.010923261754214764 
vn 0.32065925002098083 -0.9184339642524719 -0.23163928091526031 
vn -0.1654077023267746 -0.9719093441963196 -0.16742929816246033 
vn 0.16700007021427155 -0.8698034882545471 -0.4642767012119293 
vn -0.384962797164917 -0.8528735041618347 -0.3527185618877411 
vn -0.14623691141605377 -0.6988885998725891 -0.7001210451126099 
vn -0.5471819043159485 -0.7768873572349548 -0.31150925159454346 
vn -0.4149444103240967 -0.4830714464187622 -0.7710143327713013 
vn -0.5715858936309814 -0.7591123580932617 -0.31150925159454346 
vn -0.45534127950668335 -0.4499949812889099 -0.7682244777679443 
vn -0.7393872141838074 -0.5968823432922363 -0.31150925159454346 
vn -0.7121976613998413 -0.25206878781318665 -0.6551609039306641 
vn -0.8929368853569031 -0.4443816542625427 -0.07203252613544464 
vn -0.9428412914276123 0.026419857516884804 -0.33219319581985474 
vn -0.9237617254257202 -0.31125155091285706 0.22312943637371063 
vn -0.9761455059051514 0.18382805585861206 0.11553031951189041 
vn -0.812228262424469 -0.3206098973751068 0.48733407258987427 
vn -0.8184259533882141 0.24174059927463531 0.5212872624397278 
vn -0.6910498142242432 -0.33877283334732056 0.6385006904602051 
vt 0.8079829216003418 0.3314083218574524 
vt 0.8063251972198486 0.32705897092819214 
vt 0.8101931810379028 0.33430787920951843 
vt 0.8053779602050781 0.32183974981307983 
vt 0.8052989840507507 0.3167171776294708 
vt 0.806088387966156 0.3122711777687073 
vt 0.8076671361923218 0.30937162041664124 
vt 0.8097984790802002 0.3083084225654602 
vt 0.8120877146720886 0.30937162041664124 
vt 0.8142979741096497 0.3122711777687073 
vt 0.8159556984901428 0.3167171776294708 
vt 0.8169029355049133 0.32183974981307983 
vt 0.816981852054596 0.32705897092819214 
vt 0.8161925077438354 0.3314083218574524 
vt 0.8146136999130249 0.33430787920951843 
vt 0.8124823570251465 0.3353710472583771 
vt 0.817297637462616 0.27863621711730957 
vt 0.8167450428009033 0.2732236981391907 
vt 0.819350004196167 0.28250229358673096 
vt 0.8180080652236938 0.2693575918674469 
vt 0.8202973008155823 0.2693575918674469 
vt 0.8223496675491333 0.2732236981391907 
vt 0.822902262210846 0.27863621711730957 
vt 0.8216392397880554 0.28250229358673096 
vt 0.8124823570251465 0.3353710472583771 
vt 0.8146136999130249 0.33430787920951843 
vt 0.8101931810379028 0.33430787920951843 
vt 0.8161925077438354 0.3314083218574524 
vt 0.816981852054596 0.32705897092819214 
vt 0.8169029355049133 0.32183974981307983 
vt 0.8159556984901428 0.3167171776294708 
vt 0.8142979741096497 0.3122711777687073 
vt 0.8120877146720886 0.30937162041664124 
vt 0.8097984790802002 0.3083084225654602 
vt 0.8076671361923218 0.30937162041664124 
vt 0.806088387966156 0.3122711777687073 
vt 0.8052989840507507 0.3167171776294708 
vt 0.8053779602050781 0.32183974981307983 
vt 0.8063251972198486 0.32705897092819214 
vt 0.8079829216003418 0.3314083218574524 
vt 0.8216392397880554 0.28250229358673096 
vt 0.822902262210846 0.27863621711730957 
vt 0.819350004196167 0.28250229358673096 
vt 0.8223496675491333 0.2732236981391907 
vt 0.8202973008155823 0.2693575918674469 
vt 0.8180080652236938 0.2693575918674469 
vt 0.8167450428009033 0.2732236981391907 
vt 0.817297637462616 0.27863621711730957 
vt 0.9639649987220764 0.2197750210762024 
vt 0.9488088488578796 0.21687544882297516 
vt 0.9668856859207153 0.20411737263202667 
vt 0.9512559175491333 0.2037307620048523 
vt 0.9666488766670227 0.18565680086612701 
vt 0.9510191082954407 0.18816974759101868 
vt 0.9631755948066711 0.16729287803173065 
vt 0.9481773376464844 0.17270539700984955 
vt 0.9571762681007385 0.15163521468639374 
vt 0.9431252479553223 0.1595606952905655 
vt 0.9494403600692749 0.14119678735733032 
vt 0.9366523027420044 0.15086200833320618 
vt 0.9412307739257812 0.13752399384975433 
vt 0.9297057390213013 0.14776913821697235 
vt 0.9337316155433655 0.14119678735733032 
vt 0.9233906865119934 0.15086200833320618 
vt 0.9280480742454529 0.15163521468639374 
vt 0.9186543822288513 0.1595606952905655 
vt 0.9251273274421692 0.16729287803173065 
vt 0.9162073135375977 0.17270539700984955 
vt 0.9254431128501892 0.18565680086612701 
vt 0.9164441227912903 0.18816974759101868 
vt 0.9288374185562134 0.20411737263202667 
vt 0.9192858934402466 0.2037307620048523 
vt 0.9583603739738464 0.230213463306427 
vt 0.9440725445747375 0.22557415068149567 
vt 0.9639649987220764 0.2197750210762024 
vt 0.9440725445747375 0.22557415068149567 
vt 0.9583603739738464 0.230213463306427 
vt 0.9192858934402466 0.2037307620048523 
vt 0.9288374185562134 0.20411737263202667 
vt 0.9164441227912903 0.18816974759101868 
vt 0.9254431128501892 0.18565680086612701 
vt 0.9162073135375977 0.17270539700984955 
vt 0.9251273274421692 0.16729287803173065 
vt 0.9186543822288513 0.1595606952905655 
vt 0.9280480742454529 0.15163521468639374 
vt 0.9233906865119934 0.15086200833320618 
vt 0.9337316155433655 0.14119678735733032 
vt 0.9297057390213013 0.14776913821697235 
vt 0.9412307739257812 0.13752399384975433 
vt 0.9366523027420044 0.15086200833320618 
vt 0.9494403600692749 0.14119678735733032 
vt 0.9431252479553223 0.1595606952905655 
vt 0.9571762681007385 0.15163521468639374 
vt 0.9481773376464844 0.17270539700984955 
vt 0.9631755948066711 0.16729287803173065 
vt 0.9510191082954407 0.18816974759101868 
vt 0.9666488766670227 0.18565680086612701 
vt 0.9512559175491333 0.2037307620048523 
vt 0.9668856859207153 0.20411737263202667 
vt 0.9488088488578796 0.21687544882297516 
s on 
f 1/1/1 2/2/2 3/3/3 
f 2/2/2 4/4/4 3/3/3 
f 3/3/3 4/4/4 5/5/5 
f 4/4/4 5/5/5 5/5/5 
f 5/5/5 5/5/5 5/5/5 
f 5/5/5 6/6/6 5/5/5 
f 5/5/5 6/6/6 3/3/3 
f 6/6/6 7/7/7 3/3/3 
f 3/3/3 7/7/7 8/8/8 
f 7/7/7 8/8/8 8/8/8 
f 8/8/8 8/8/8 8/8/8 
f 8/8/8 9/9/9 8/8/8 
f 8/8/8 9/9/9 3/3/3 
f 9/9/9 10/10/10 3/3/3 
f 3/3/3 10/10/10 11/11/11 
f 10/10/10 11/11/11 11/11/11 
f 11/11/11 11/11/11 11/11/11 
f 11/11/11 12/12/12 11/11/11 
f 11/11/11 12/12/12 3/3/3 
f 12/12/12 13/13/13 3/3/3 
f 3/3/3 13/13/13 14/14/14 
f 13/13/13 14/14/14 14/14/14 
f 14/14/14 14/14/14 14/14/14 
f 14/14/14 15/15/15 14/14/14 
f 14/14/14 15/15/15 3/3/3 
f 15/15/15 16/16/16 3/3/3 
f 3/3/3 16/16/16 16/16/16 
f 16/16/16 17/17/17 16/16/16 
f 16/16/16 17/17/17 17/17/17 
f 17/17/17 18/18/18 17/17/17 
f 17/17/17 18/18/18 19/19/19 
f 18/18/18 20/20/20 19/19/19 
f 19/19/19 20/20/20 21/21/21 
f 20/20/20 21/21/21 21/21/21 
f 21/21/21 21/21/21 21/21/21 
f 21/21/21 22/22/22 21/21/21 
f 21/21/21 22/22/22 19/19/19 
f 22/22/22 23/23/23 19/19/19 
f 19/19/19 23/23/23 24/24/24 
f 23/23/23 24/24/24 24/24/24 
f 24/24/24 24/24/24 25/25/25 
f 24/24/24 25/25/25 25/25/25 
f 25/25/25 25/25/25 25/25/25 
f 25/25/25 26/26/26 25/25/25 
f 25/25/25 26/26/26 27/27/27 
f 26/26/26 28/28/28 27/27/27 
f 27/27/27 28/28/28 29/29/29 
f 28/28/28 29/29/29 29/29/29 
f 29/29/29 29/29/29 29/29/29 
f 29/29/29 30/30/30 29/29/29 
f 29/29/29 30/30/30 27/27/27 
f 30/30/30 31/31/31 27/27/27 
f 27/27/27 31/31/31 32/32/32 
f 31/31/31 32/32/32 32/32/32 
f 32/32/32 32/32/32 32/32/32 
f 32/32/32 33/33/33 32/32/32 
f 32/32/32 33/33/33 27/27/27 
f 33/33/33 34/34/34 27/27/27 
f 27/27/27 34/34/34 35/35/35 
f 34/34/34 35/35/35 35/35/35 
f 35/35/35 35/35/35 35/35/35 
f 35/35/35 36/36/36 35/35/35 
f 35/35/35 36/36/36 27/27/27 
f 36/36/36 37/37/37 27/27/27 
f 27/27/27 37/37/37 38/38/38 
f 37/37/37 38/38/38 38/38/38 
f 38/38/38 38/38/38 38/38/38 
f 38/38/38 39/39/39 38/38/38 
f 38/38/38 39/39/39 27/27/27 
f 39/39/39 40/40/40 27/27/27 
f 27/27/27 40/40/40 40/40/40 
f 40/40/40 41/41/41 40/40/40 
f 40/40/40 41/41/41 41/41/41 
f 41/41/41 42/42/42 41/41/41 
f 41/41/41 42/42/42 43/43/43 
f 42/42/42 44/44/44 43/43/43 
f 43/43/43 44/44/44 45/45/45 
f 44/44/44 45/45/45 45/45/45 
f 45/45/45 45/45/45 45/45/45 
f 45/45/45 46/46/46 45/45/45 
f 45/45/45 46/46/46 43/43/43 
f 46/46/46 47/47/47 43/43/43 
f 43/43/43 47/47/47 48/48/48 
f 47/47/47 48/48/48 48/48/48 
f 48/48/48 48/48/48 49/49/49 
f 48/48/48 49/49/49 49/49/49 
f 49/49/49 49/49/49 49/49/49 
f 49/49/49 50/50/50 49/49/49 
f 49/49/49 50/50/50 51/51/51 
f 50/50/50 52/52/52 51/51/51 
f 51/51/51 52/52/52 53/53/53 
f 52/52/52 54/54/54 53/53/53 
f 53/53/53 54/54/54 55/55/55 
f 54/54/54 56/56/56 55/55/55 
f 55/55/55 56/56/56 57/57/57 
f 56/56/56 58/58/58 57/57/57 
f 57/57/57 58/58/58 59/59/59 
f 58/58/58 60/60/60 59/59/59 
f 59/59/59 60/60/60 61/61/61 
f 60/60/60 62/62/62 61/61/61 
f 61/61/61 62/62/62 63/63/63 
f 62/62/62 64/64/64 63/63/63 
f 63/63/63 64/64/64 65/65/65 
f 64/64/64 66/66/66 65/65/65 
f 65/65/65 66/66/66 67/67/67 
f 66/66/66 68/68/68 67/67/67 
f 67/67/67 68/68/68 69/69/69 
f 68/68/68 70/70/70 69/69/69 
f 69/69/69 70/70/70 71/71/71 
f 70/70/70 72/72/72 71/71/71 
f 71/71/71 72/72/72 73/73/73 
f 72/72/72 74/74/74 73/73/73 
f 73/73/73 74/74/74 49/49/49 
f 74/74/74 50/50/50 49/49/49 
f 49/49/49 50/50/50 50/50/50 
f 50/50/50 70/70/70 50/50/50 
f 50/50/50 70/70/70 70/70/70 
f 70/70/70 68/68/68 70/70/70 
f 70/70/70 68/68/68 72/72/72 
f 68/68/68 66/66/66 72/72/72 
f 72/72/72 66/66/66 64/64/64 
f 66/66/66 64/64/64 64/64/64 
f 64/64/64 64/64/64 64/64/64 
f 64/64/64 62/62/62 64/64/64 
f 64/64/64 62/62/62 72/72/72 
f 62/62/62 60/60/60 72/72/72 
f 72/72/72 60/60/60 58/58/58 
f 60/60/60 58/58/58 58/58/58 
f 58/58/58 58/58/58 58/58/58 
f 58/58/58 56/56/56 58/58/58 
f 58/58/58 56/56/56 72/72/72 
f 56/56/56 54/54/54 72/72/72 
f 72/72/72 54/54/54 52/52/52 
f 54/54/54 52/52/52 52/52/52 
f 52/52/52 52/52/52 52/52/52 
f 52/52/52 50/50/50 52/52/52 
f 52/52/52 50/50/50 72/72/72 
f 50/50/50 74/74/74 72/72/72 
f 72/72/72 74/74/74 74/74/74 
f 74/74/74 75/75/75 74/74/74 
f 74/74/74 75/75/75 75/75/75 
f 75/75/75 76/76/76 75/75/75 
f 75/75/75 76/76/76 77/77/77 
f 76/76/76 78/78/78 77/77/77 
f 77/77/77 78/78/78 79/79/79 
f 78/78/78 80/80/80 79/79/79 
f 79/79/79 80/80/80 81/81/81 
f 80/80/80 82/82/82 81/81/81 
f 81/81/81 82/82/82 83/83/83 
f 82/82/82 84/84/84 83/83/83 
f 83/83/83 84/84/84 85/85/85 
f 84/84/84 86/86/86 85/85/85 
f 85/85/85 86/86/86 87/87/87 
f 86/86/86 88/88/88 87/87/87 
f 87/87/87 88/88/88 89/89/89 
f 88/88/88 90/90/90 89/89/89 
f 89/89/89 90/90/90 91/91/91 
f 90/90/90 92/92/92 91/91/91 
f 91/91/91 92/92/92 93/93/93 
f 92/92/92 94/94/94 93/93/93 
f 93/93/93 94/94/94 95/95/95 
f 94/94/94 96/96/96 95/95/95 
f 95/95/95 96/96/96 97/97/97 
f 96/96/96 98/98/98 97/97/97 
f 97/97/97 98/98/98 99/99/99 
f 98/98/98 100/100/100 99/99/99 
f 99/99/99 100/100/100 75/75/75 
f 100/100/100 76/76/76 75/75/75 
f 75/75/75 76/76/76 76/76/76 
f 76/76/76 100/100/100 76/76/76 
f 76/76/76 100/100/100 78/78/78 
f 100/100/100 98/98/98 78/78/78 
f 78/78/78 98/98/98 96/96/96 
f 98/98/98 96/96/96 96/96/96 
f 96/96/96 96/96/96 96/96/96 
f 96/96/96 94/94/94 96/96/96 
f 96/96/96 94/94/94 78/78/78 
f 94/94/94 92/92/92 78/78/78 
f 78/78/78 92/92/92 90/90/90 
f 92/92/92 90/90/90 90/90/90 
f 90/90/90 90/90/90 90/90/90 
f 90/90/90 88/88/88 90/90/90 
f 90/90/90 88/88/88 78/78/78 
f 88/88/88 86/86/86 78/78/78 
f 78/78/78 86/86/86 84/84/84 
f 86/86/86 84/84/84 84/84/84 
f 84/84/84 84/84/84 84/84/84 
f 84/84/84 82/82/82 84/84/84 
f 84/84/84 82/82/82 78/78/78 
f 82/82/82 80/80/80 78/78/78 

