mtllib model_1.mtl
o model_1
v 0.6404690742492676 -2.1881039142608643 2.718416452407837 
v 0.6845541596412659 -2.2721571922302246 2.707245111465454 
v 0.7976539731025696 -2.0986881256103516 2.7198357582092285 
v 0.8126423954963684 -2.1885812282562256 2.745561122894287 
v 0.7864475846290588 -2.1444668769836426 2.586519718170166 
v 0.8026893734931946 -2.228905439376831 2.6272101402282715 
v 0.3237166404724121 -2.418295383453369 2.5976016521453857 
v 0.41405099630355835 -2.4588887691497803 2.6365175247192383 
v 0.2793678045272827 -2.407747745513916 2.7114193439483643 
v 0.374553382396698 -2.450183153152466 2.7352242469787598 
v 0.4487999677658081 -2.301527738571167 2.7230069637298584 
v 0.523574948310852 -2.367419481277466 2.7111001014709473 
v -0.7864475846290588 -2.1444668769836426 2.586519718170166 
v -0.8126423954963684 -2.1885812282562256 2.745561122894287 
v -0.7976539731025696 -2.0986881256103516 2.7198357582092285 
v -0.6845541596412659 -2.2721571922302246 2.707245111465454 
v -0.6404690742492676 -2.1881039142608643 2.718416452407837 
v -0.523574948310852 -2.367419481277466 2.7111001014709473 
v -0.4487999677658081 -2.301527738571167 2.7230069637298584 
v -0.374553382396698 -2.450183153152466 2.7352242469787598 
v -0.2793678045272827 -2.407747745513916 2.7114193439483643 
v -0.41405099630355835 -2.4588887691497803 2.6365175247192383 
v -0.3237166404724121 -2.418295383453369 2.5976016521453857 
v -0.8026893734931946 -2.228905439376831 2.6272101402282715 
vn -0.042399510741233826 -0.03080504946410656 0.9986256957054138 
vn 0.2784530818462372 -0.5224465727806091 0.8059239983558655 
vn 0.78256756067276 0.13501141965389252 0.607749879360199 
vn 0.663143515586853 -0.22933495044708252 0.7124928832054138 
vn 0.7811729907989502 -0.14285963773727417 -0.607749879360199 
vn 0.7705493569374084 -0.519691526889801 -0.3690181374549866 
vn -0.18729253113269806 -0.8593555092811584 -0.4758462607860565 
vn 0.18009155988693237 -0.9150579571723938 -0.36088213324546814 
vn -0.3492784798145294 -0.7606849670410156 0.5471406579017639 
vn -0.04143821820616722 -0.7066648602485657 0.7063339352607727 
vn 0.02342638559639454 0.01965707167983055 0.9995322823524475 
vn 0.3269018828868866 -0.5184906125068665 0.790128231048584 
vn -0.7811729907989502 -0.14285963773727417 -0.607749879360199 
vn -0.6619023680686951 -0.23289287090301514 0.7124928832054138 
vn -0.78256756067276 0.13501141965389252 0.607749879360199 
vn -0.2784530818462372 -0.5224465727806091 0.8059239983558655 
vn 0.04444508254528046 -0.027772368863224983 0.9986256957054138 
vn -0.32370808720588684 -0.5204905867576599 0.790128231048584 
vn -0.025550030171871185 0.016804520040750504 0.9995322823524475 
vn 0.04143821820616722 -0.7066648602485657 0.7063339352607727 
vn 0.3527035415172577 -0.7591029405593872 0.5471406579017639 
vn -0.18009155988693237 -0.9150579571723938 -0.36088213324546814 
vn 0.18729253113269806 -0.8593555092811584 -0.4758462607860565 
vn -0.7684309482574463 -0.5228188037872314 -0.3690181374549866 
vt 0.9543083906173706 0.21341662108898163 
vt 0.9401065707206726 0.20885847508907318 
vt 0.9625928401947021 0.16894395649433136 
vt 0.9470102190971375 0.1714078038930893 
vt 0.959140956401825 0.1504649966955185 
vt 0.9441501498222351 0.1558854877948761 
vt 0.9211707711219788 0.1504649966955185 
vt 0.9121959805488586 0.1558854877948761 
vt 0.9213680028915405 0.16894395649433136 
vt 0.9123932719230652 0.1714078038930893 
vt 0.9385285973548889 0.21341662108898163 
vt 0.926792323589325 0.20885847508907318 
vt 0.959140956401825 0.1504649966955185 
vt 0.9470102190971375 0.1714078038930893 
vt 0.9625928401947021 0.16894395649433136 
vt 0.9401065707206726 0.20885847508907318 
vt 0.9543083906173706 0.21341662108898163 
vt 0.926792323589325 0.20885847508907318 
vt 0.9385285973548889 0.21341662108898163 
vt 0.9123932719230652 0.1714078038930893 
vt 0.9213680028915405 0.16894395649433136 
vt 0.9121959805488586 0.1558854877948761 
vt 0.9211707711219788 0.1504649966955185 
vt 0.9441501498222351 0.1558854877948761 
s on 
f 1/1/1 2/2/2 3/3/3 
f 2/2/2 4/4/4 3/3/3 
f 3/3/3 4/4/4 5/5/5 
f 4/4/4 6/6/6 5/5/5 
f 5/5/5 6/6/6 7/7/7 
f 6/6/6 8/8/8 7/7/7 
f 7/7/7 8/8/8 9/9/9 
f 8/8/8 10/10/10 9/9/9 
f 9/9/9 10/10/10 11/11/11 
f 10/10/10 12/12/12 11/11/11 
f 11/11/11 12/12/12 1/1/1 
f 12/12/12 2/2/2 1/1/1 
f 1/1/1 2/2/2 2/2/2 
f 2/2/2 10/10/10 2/2/2 
f 2/2/2 10/10/10 10/10/10 
f 10/10/10 8/8/8 10/10/10 
f 10/10/10 8/8/8 12/12/12 
f 8/8/8 6/6/6 12/12/12 
f 12/12/12 6/6/6 4/4/4 
f 6/6/6 4/4/4 4/4/4 
f 4/4/4 4/4/4 13/13/13 
f 4/4/4 13/13/13 13/13/13 
f 13/13/13 13/13/13 13/13/13 
f 13/13/13 14/14/14 13/13/13 
f 13/13/13 14/14/14 15/15/15 
f 14/14/14 16/16/16 15/15/15 
f 15/15/15 16/16/16 17/17/17 
f 16/16/16 18/18/18 17/17/17 
f 17/17/17 18/18/18 19/19/19 
f 18/18/18 20/20/20 19/19/19 
f 19/19/19 20/20/20 21/21/21 
f 20/20/20 22/22/22 21/21/21 
f 21/21/21 22/22/22 23/23/23 
f 22/22/22 24/24/24 23/23/23 
f 23/23/23 24/24/24 13/13/13 
f 24/24/24 14/14/14 13/13/13 
f 13/13/13 14/14/14 14/14/14 
f 14/14/14 16/16/16 14/14/14 
f 14/14/14 16/16/16 16/16/16 
f 16/16/16 14/14/14 16/16/16 
f 16/16/16 14/14/14 18/18/18 
f 14/14/14 24/24/24 18/18/18 
f 18/18/18 24/24/24 22/22/22 
f 12/12/12 4/4/4 2/2/2 
f 18/18/18 22/22/22 20/20/20 

