mtllib model_4.mtl
o model_4
v -0.7069014310836792 -2.2298340797424316 2.8244752883911133 
v -0.7148318886756897 -2.2333226203918457 2.7984254360198975 
v -0.6909309029579163 -2.232280969619751 2.846670389175415 
v -0.7135147452354431 -2.2422165870666504 2.772486448287964 
v -0.7031505107879639 -2.2551608085632324 2.7506072521209717 
v -0.6853174567222595 -2.2701845169067383 2.736118793487549 
v -0.6627304553985596 -2.285001516342163 2.731227159500122 
v -0.6388272047042847 -2.2973556518554688 2.7366764545440674 
v -0.6172481775283813 -2.305365800857544 2.7516376972198486 
v -0.6012777090072632 -2.3078126907348633 2.7738325595855713 
v -0.5933474898338318 -2.304323673248291 2.799882411956787 
v -0.594664454460144 -2.2954301834106445 2.8258211612701416 
v -0.6050285696983337 -2.2824859619140625 2.847700357437134 
v -0.6228616237640381 -2.2674617767333984 2.8621885776519775 
v -0.6454488635063171 -2.2526450157165527 2.8670802116394043 
v -0.6693516969680786 -2.240290641784668 2.861630916595459 
v -0.5957911610603333 -2.3598999977111816 2.6177871227264404 
v -0.588853120803833 -2.370100259780884 2.5922045707702637 
v -0.5839576721191406 -2.3606581687927246 2.64359450340271 
v -0.5672079920768738 -2.385284423828125 2.5818333625793457 
v -0.5435348749160767 -2.3965580463409424 2.5927486419677734 
v -0.531701385974884 -2.3973166942596436 2.618556499481201 
v -0.5386396646499634 -2.3871164321899414 2.644139051437378 
v -0.5602847933769226 -2.371931791305542 2.654510021209717 
v 0.5106967091560364 -2.381337881088257 2.7524914741516113 
v 0.531236469745636 -2.3717234134674072 2.737020969390869 
v 0.49452248215675354 -2.38531494140625 2.7766928672790527 
v 0.5540263056755066 -2.3576414585113525 2.7310221195220947 
v 0.5755966305732727 -2.341236114501953 2.7354090213775635 
v 0.592663586139679 -2.3250045776367188 2.7495124340057373 
v 0.6026290655136108 -2.3114187717437744 2.7711873054504395 
v 0.6039755344390869 -2.3025460243225098 2.7971317768096924 
v 0.5964983701705933 -2.2997381687164307 2.823396682739258 
v 0.5823472738265991 -2.303128480911255 2.844370126724243 
v 0.6453198194503784 -2.333099842071533 2.632402181625366 
v 0.6485531330108643 -2.3392605781555176 2.6048662662506104 
v 0.6595768928527832 -2.317373752593994 2.6512718200683594 
v 0.6673830151557922 -2.332246780395508 2.58479380607605 
v 0.6907790303230286 -2.3161675930023193 2.5839436054229736 
v 0.7050361633300781 -2.3004415035247803 2.602813720703125 
v 0.7018028497695923 -2.294281005859375 2.6303493976593018 
v 0.6829729676246643 -2.3012948036193848 2.6504218578338623 
v 0.6125583648681641 -2.1468727588653564 2.91041898727417 
v 0.2793531119823456 -2.4064953327178955 2.684303045272827 
v 0.6566435098648071 -2.2309257984161377 2.899247169494629 
v 0.37453868985176086 -2.448930501937866 2.7081081867218018 
v 0.7302243113517761 -2.2013869285583496 2.852931022644043 
v 0.783817708492279 -2.1906301975250244 2.7849690914154053 
v 0.7639778852462769 -2.0988943576812744 2.7743539810180664 
v 0.8010793924331665 -2.103665590286255 2.6933343410491943 
v 0.7001672387123108 -2.1117019653320312 2.8552732467651367 
v 0.7871981859207153 -2.145836591720581 2.586519718170166 
v 0.8026893734931946 -2.228905439376831 2.6272101402282715 
v 0.4751359522342682 -2.370317220687866 2.4615368843078613 
v 0.5412250757217407 -2.418593168258667 2.5222396850585938 
v 0.387527197599411 -2.4054882526397705 2.5166823863983154 
v 0.4676441550254822 -2.448132276535034 2.5685553550720215 
v 0.3241041302680969 -2.4180757999420166 2.600705623626709 
v 0.41405099630355835 -2.4588887691497803 2.6365175247192383 
v 0.8169724345207214 -2.1948418617248535 2.720613956451416 
v -0.7001672387123108 -2.1117019653320312 2.8552732467651367 
v -0.6566435098648071 -2.2309257984161377 2.899247169494629 
v -0.6125583648681641 -2.1468727588653564 2.91041898727417 
v -0.5742769241333008 -2.274750232696533 2.9168648719787598 
v -0.5144892930984497 -2.199052333831787 2.9313952922821045 
v -0.4956642985343933 -2.326188325881958 2.903102159500122 
v -0.4208892583847046 -2.26029634475708 2.9150092601776123 
v -0.43277353048324585 -2.377408742904663 2.8600547313690186 
v -0.3460085690021515 -2.321281671524048 2.863754987716675 
v -0.3951791822910309 -2.4206135272979736 2.794276475906372 
v -0.30124711990356445 -2.3727238178253174 2.7854361534118652 
v -0.37982338666915894 -2.4571516513824463 2.7156906127929688 
v -0.28463777899742126 -2.4147167205810547 2.691885471343994 
v -0.41405099630355835 -2.4588887691497803 2.6365175247192383 
v -0.3241041302680969 -2.4180757999420166 2.600705623626709 
v -0.4676441550254822 -2.448132276535034 2.5685553550720215 
v -0.387527197599411 -2.4054882526397705 2.5166823863983154 
v -0.7416860461235046 -2.195908546447754 2.5082004070281982 
v -0.7302243113517761 -2.2013869285583496 2.852931022644043 
v -0.7639778852462769 -2.0988943576812744 2.7743539810180664 
v -0.783817708492279 -2.1906301975250244 2.7849690914154053 
v -0.8010793924331665 -2.103665590286255 2.6933343410491943 
v -0.8169724345207214 -2.1948418617248535 2.720613956451416 
v -0.7871981859207153 -2.145836591720581 2.586519718170166 
v -0.8026893734931946 -2.228905439376831 2.6272101402282715 
v -0.765095055103302 -2.2721102237701416 2.561431646347046 
vn -0.4891495108604431 -0.832145094871521 0.2612801790237427 
vn -0.4891495108604431 -0.832145094871521 0.2612801790237427 
vn -0.4891495108604431 -0.832145094871521 0.2612801790237427 
vn -0.4891495108604431 -0.832145094871521 0.2612801790237427 
vn -0.4891495108604431 -0.832145094871521 0.2612801790237427 
vn -0.4891495108604431 -0.832145094871521 0.2612801790237427 
vn -0.4891495108604431 -0.832145094871521 0.2612801790237427 
vn -0.4891495108604431 -0.832145094871521 0.2612801790237427 
vn -0.4891495108604431 -0.832145094871521 0.2612801790237427 
vn -0.4891495108604431 -0.832145094871521 0.2612801790237427 
vn -0.4891495108604431 -0.832145094871521 0.2612801790237427 
vn -0.4891495108604431 -0.832145094871521 0.2612801790237427 
vn -0.4891495108604431 -0.832145094871521 0.2612801790237427 
vn -0.4891495108604431 -0.832145094871521 0.2612801790237427 
vn -0.4891495108604431 -0.832145094871521 0.2612801790237427 
vn -0.4891495108604431 -0.832145094871521 0.2612801790237427 
vn -0.4984081983566284 -0.8431330919265747 0.2017817199230194 
vn -0.4984081983566284 -0.8431330919265747 0.2017817199230194 
vn -0.4984081983566284 -0.8431330919265747 0.2017817199230194 
vn -0.4984081983566284 -0.8431330919265747 0.2017817199230194 
vn -0.4984081983566284 -0.8431330919265747 0.2017817199230194 
vn -0.4984081983566284 -0.8431330919265747 0.2017817199230194 
vn -0.4984081983566284 -0.8431330919265747 0.2017817199230194 
vn -0.4984081983566284 -0.8431330919265747 0.2017817199230194 
vn 0.5579890608787537 -0.7930518388748169 0.24437066912651062 
vn 0.5579890608787537 -0.7930518388748169 0.24437066912651062 
vn 0.5579890608787537 -0.7930518388748169 0.24437066912651062 
vn 0.5579890608787537 -0.7930518388748169 0.24437066912651062 
vn 0.5579890608787537 -0.7930518388748169 0.24437066912651062 
vn 0.5579890608787537 -0.7930518388748169 0.24437066912651062 
vn 0.5579890608787537 -0.7930518388748169 0.24437066912651062 
vn 0.5579890608787537 -0.7930518388748169 0.24437066912651062 
vn 0.5579890608787537 -0.7930518388748169 0.24437066912651062 
vn 0.5579890608787537 -0.7930518388748169 0.24437066912651062 
vn 0.5579890608787537 -0.7930518388748169 0.24437066912651062 
vn 0.5579890608787537 -0.7930518388748169 0.24437066912651062 
vn 0.5579890608787537 -0.7930518388748169 0.24437066912651062 
vn 0.5579890608787537 -0.7930518388748169 0.24437066912651062 
vn 0.5579890608787537 -0.7930518388748169 0.24437066912651062 
vn 0.5579890608787537 -0.7930518388748169 0.24437066912651062 
vn 0.5579890608787537 -0.7930518388748169 0.24437066912651062 
vn 0.5579890608787537 -0.7930518388748169 0.24437066912651062 
vn 0.08563338220119476 -0.08694939315319061 0.9925254583358765 
vn -0.45566388964653015 -0.7842010855674744 0.42118772864341736 
vn 0.2766551971435547 -0.4741601049900055 0.8358433246612549 
vn -0.14836905896663666 -0.8583492040634155 0.4911448359489441 
vn 0.6833714246749878 -0.3416403532028198 0.6452018022537231 
vn 0.8091202974319458 -0.3167847990989685 0.4949462115764618 
vn 0.8197245597839355 0.24533654749393463 0.5175535082817078 
vn 0.9759265184402466 0.1876283884048462 0.1111890971660614 
vn 0.6230800747871399 0.1858094185590744 0.7597671151161194 
vn 0.8462737798690796 -0.09046590328216553 -0.5250110030174255 
vn 0.8318212032318115 -0.4897001087665558 -0.2612801790237427 
vn 0.20279617607593536 -0.6485975384712219 -0.7336177229881287 
vn 0.44945061206817627 -0.7960830926895142 -0.405272513628006 
vn -0.17070622742176056 -0.8690837025642395 -0.4642767012119293 
vn 0.16152627766132355 -0.9740068912506104 -0.15880759060382843 
vn -0.33478787541389465 -0.92043536901474 -0.2017817199230194 
vn 0.06791078299283981 -0.9976316094398499 0.010923261754214764 
vn 0.9216291308403015 -0.3113567531108856 0.23163928091526031 
vn -0.6230800747871399 0.1858094185590744 0.7597671151161194 
vn -0.5127204656600952 -0.4209311604499817 0.7482877969741821 
vn -0.3496590852737427 0.05995507165789604 0.9349566102027893 
vn -0.34077805280685425 -0.5299440026283264 0.7765498161315918 
vn -0.08242509514093399 -0.12293938547372818 0.9889853596687317 
vn -0.1859445422887802 -0.6502881050109863 0.736579954624176 
vn 0.14977280795574188 -0.33947688341140747 0.9286137819290161 
vn -0.060283251106739044 -0.7755851745605469 0.6283578276634216 
vn 0.32727110385894775 -0.5618252158164978 0.7597671151161194 
vn -0.0018854718655347824 -0.8774389028549194 0.4796847105026245 
vn 0.4263284206390381 -0.7258474230766296 0.5398051738739014 
vn 0.04149064049124718 -0.9719165563583374 0.23163928091526031 
vn 0.42691996693611145 -0.8902356624603271 0.15880759060382843 
vn -0.06790688633918762 -0.9975744485855103 -0.0152922747656703 
vn 0.32778260111808777 -0.915915846824646 -0.23163928091526031 
vn -0.2662948668003082 -0.900215208530426 -0.34452807903289795 
vn 0.047204114496707916 -0.8032428622245789 -0.5937783122062683 
vn -0.6428354978561401 -0.2964031994342804 -0.7063339352607727 
vn -0.6910498142242432 -0.33877283334732056 0.6385006904602051 
vn -0.8186355829238892 0.24894598126411438 0.5175535082817078 
vn -0.8149688243865967 -0.3135782480239868 0.48733407258987427 
vn -0.975206732749939 0.19133436679840088 0.1111890971660614 
vn -0.9239033460617065 -0.30773043632507324 0.22738653421401978 
vn -0.9430225491523743 0.018872536718845367 -0.33219319581985474 
vn -0.8932101130485535 -0.4445176422595978 -0.06767380982637405 
vn -0.6847547292709351 -0.6260395646095276 -0.37307560443878174 
vt 0.7959712743759155 0.413591593503952 
vt 0.7980784773826599 0.41258689761161804 
vt 0.7936955690383911 0.41258689761161804 
vt 0.7996798753738403 0.4095728099346161 
vt 0.8005227446556091 0.40530285239219666 
vt 0.8004384636878967 0.40002819895744324 
vt 0.7995113134384155 0.39487913250923157 
vt 0.7978255748748779 0.3904835879802704 
vt 0.7956341505050659 0.3875950872898102 
vt 0.7932741641998291 0.3865903913974762 
vt 0.7911670207977295 0.3875950872898102 
vt 0.7896498441696167 0.3904835879802704 
vt 0.7888069748878479 0.39487913250923157 
vt 0.7888913154602051 0.40002819895744324 
vt 0.7898184061050415 0.40530285239219666 
vt 0.7915041446685791 0.4095728099346161 
vt 0.8051584362983704 0.3607194721698761 
vt 0.806422770023346 0.3568262755870819 
vt 0.8027984499931335 0.3607194721698761 
vt 0.8059170246124268 0.35142603516578674 
vt 0.8038098812103271 0.34753283858299255 
vt 0.8015341758728027 0.34753283858299255 
vt 0.8002699017524719 0.35142603516578674 
vt 0.8007755875587463 0.3568262755870819 
vt 0.7896498441696167 0.3904835879802704 
vt 0.7911670207977295 0.3875950872898102 
vt 0.7888069748878479 0.39487913250923157 
vt 0.7932741641998291 0.3865903913974762 
vt 0.7956341505050659 0.3875950872898102 
vt 0.7978255748748779 0.3904835879802704 
vt 0.7995113134384155 0.39487913250923157 
vt 0.8004384636878967 0.40002819895744324 
vt 0.8005227446556091 0.40530285239219666 
vt 0.7996798753738403 0.4095728099346161 
vt 0.8007755875587463 0.3568262755870819 
vt 0.8002699017524719 0.35142603516578674 
vt 0.8027984499931335 0.3607194721698761 
vt 0.8015341758728027 0.34753283858299255 
vt 0.8038098812103271 0.34753283858299255 
vt 0.8059170246124268 0.35142603516578674 
vt 0.806422770023346 0.3568262755870819 
vt 0.8051584362983704 0.3607194721698761 
vt 0.9528273344039917 0.24555617570877075 
vt 0.9198715686798096 0.2009727954864502 
vt 0.9385830163955688 0.24090945720672607 
vt 0.9109372496604919 0.20348453521728516 
vt 0.9433030486106873 0.2321183681488037 
vt 0.9457473754882812 0.21905732154846191 
vt 0.9613402485847473 0.21943408250808716 
vt 0.9610874056816101 0.2009727954864502 
vt 0.9584745168685913 0.23513245582580566 
vt 0.9576316475868225 0.18263709545135498 
vt 0.9426287412643433 0.18803733587265015 
vt 0.9281315803527832 0.1565150022506714 
vt 0.9178487062454224 0.166185200214386 
vt 0.9224844574928284 0.16693872213363647 
vt 0.913128674030304 0.17497628927230835 
vt 0.9196187257766724 0.18263709545135498 
vt 0.9106844067573547 0.18803733587265015 
vt 0.9454944729804993 0.20348453521728516 
vt 0.9584745168685913 0.23513245582580566 
vt 0.9385830163955688 0.24090945720672607 
vt 0.9528273344039917 0.24555617570877075 
vt 0.93226158618927 0.24404913187026978 
vt 0.9452416300773621 0.24919821321964264 
vt 0.9252658486366272 0.24090945720672607 
vt 0.9370658993721008 0.24555617570877075 
vt 0.918860137462616 0.2321183681488037 
vt 0.9293115735054016 0.23513245582580566 
vt 0.913802981376648 0.21905732154846191 
vt 0.9233272671699524 0.21943408250808716 
vt 0.9109372496604919 0.20348453521728516 
vt 0.9198715686798096 0.2009727954864502 
vt 0.9106844067573547 0.18803733587265015 
vt 0.9196187257766724 0.18263709545135498 
vt 0.913128674030304 0.17497628927230835 
vt 0.9224844574928284 0.16693872213363647 
vt 0.9516473412513733 0.16693872213363647 
vt 0.9433030486106873 0.2321183681488037 
vt 0.9613402485847473 0.21943408250808716 
vt 0.9457473754882812 0.21905732154846191 
vt 0.9610874056816101 0.2009727954864502 
vt 0.9454944729804993 0.20348453521728516 
vt 0.9576316475868225 0.18263709545135498 
vt 0.9426287412643433 0.18803733587265015 
vt 0.9375715851783752 0.17497628927230835 
s on 
f 1/1/1 2/2/2 3/3/3 
f 2/2/2 4/4/4 3/3/3 
f 3/3/3 4/4/4 5/5/5 
f 4/4/4 5/5/5 5/5/5 
f 5/5/5 5/5/5 5/5/5 
f 5/5/5 6/6/6 5/5/5 
f 5/5/5 6/6/6 3/3/3 
f 6/6/6 7/7/7 3/3/3 
f 3/3/3 7/7/7 8/8/8 
f 7/7/7 8/8/8 8/8/8 
f 8/8/8 8/8/8 8/8/8 
f 8/8/8 9/9/9 8/8/8 
f 8/8/8 9/9/9 3/3/3 
f 9/9/9 10/10/10 3/3/3 
f 3/3/3 10/10/10 11/11/11 
f 10/10/10 11/11/11 11/11/11 
f 11/11/11 11/11/11 11/11/11 
f 11/11/11 12/12/12 11/11/11 
f 11/11/11 12/12/12 3/3/3 
f 12/12/12 13/13/13 3/3/3 
f 3/3/3 13/13/13 14/14/14 
f 13/13/13 14/14/14 14/14/14 
f 14/14/14 14/14/14 14/14/14 
f 14/14/14 15/15/15 14/14/14 
f 14/14/14 15/15/15 3/3/3 
f 15/15/15 16/16/16 3/3/3 
f 3/3/3 16/16/16 16/16/16 
f 16/16/16 17/17/17 16/16/16 
f 16/16/16 17/17/17 17/17/17 
f 17/17/17 18/18/18 17/17/17 
f 17/17/17 18/18/18 19/19/19 
f 18/18/18 20/20/20 19/19/19 
f 19/19/19 20/20/20 21/21/21 
f 20/20/20 21/21/21 21/21/21 
f 21/21/21 21/21/21 21/21/21 
f 21/21/21 22/22/22 21/21/21 
f 21/21/21 22/22/22 19/19/19 
f 22/22/22 23/23/23 19/19/19 
f 19/19/19 23/23/23 24/24/24 
f 23/23/23 24/24/24 24/24/24 
f 24/24/24 24/24/24 25/25/25 
f 24/24/24 25/25/25 25/25/25 
f 25/25/25 25/25/25 25/25/25 
f 25/25/25 26/26/26 25/25/25 
f 25/25/25 26/26/26 27/27/27 
f 26/26/26 28/28/28 27/27/27 
f 27/27/27 28/28/28 29/29/29 
f 28/28/28 29/29/29 29/29/29 
f 29/29/29 29/29/29 29/29/29 
f 29/29/29 30/30/30 29/29/29 
f 29/29/29 30/30/30 27/27/27 
f 30/30/30 31/31/31 27/27/27 
f 27/27/27 31/31/31 32/32/32 
f 31/31/31 32/32/32 32/32/32 
f 32/32/32 32/32/32 32/32/32 
f 32/32/32 33/33/33 32/32/32 
f 32/32/32 33/33/33 27/27/27 
f 33/33/33 34/34/34 27/27/27 
f 27/27/27 34/34/34 34/34/34 
f 34/34/34 35/35/35 34/34/34 
f 34/34/34 35/35/35 35/35/35 
f 35/35/35 36/36/36 35/35/35 
f 35/35/35 36/36/36 37/37/37 
f 36/36/36 38/38/38 37/37/37 
f 37/37/37 38/38/38 39/39/39 
f 38/38/38 39/39/39 39/39/39 
f 39/39/39 39/39/39 39/39/39 
f 39/39/39 40/40/40 39/39/39 
f 39/39/39 40/40/40 37/37/37 
f 40/40/40 41/41/41 37/37/37 
f 37/37/37 41/41/41 42/42/42 
f 41/41/41 42/42/42 42/42/42 
f 42/42/42 42/42/42 43/43/43 
f 42/42/42 43/43/43 43/43/43 
f 43/43/43 43/43/43 43/43/43 
f 43/43/43 44/44/44 43/43/43 
f 43/43/43 44/44/44 45/45/45 
f 44/44/44 46/46/46 45/45/45 
f 45/45/45 46/46/46 47/47/47 
f 46/46/46 48/48/48 47/47/47 
f 47/47/47 48/48/48 49/49/49 
f 48/48/48 50/50/50 49/49/49 
f 49/49/49 50/50/50 50/50/50 
f 50/50/50 43/43/43 50/50/50 
f 50/50/50 43/43/43 43/43/43 
f 43/43/43 45/45/45 43/43/43 
f 43/43/43 45/45/45 51/51/51 
f 45/45/45 47/47/47 51/51/51 
f 51/51/51 47/47/47 49/49/49 
f 47/47/47 49/49/49 49/49/49 
f 49/49/49 49/49/49 52/52/52 
f 49/49/49 52/52/52 52/52/52 
f 52/52/52 52/52/52 52/52/52 
f 52/52/52 53/53/53 52/52/52 
f 52/52/52 53/53/53 54/54/54 
f 53/53/53 55/55/55 54/54/54 
f 54/54/54 55/55/55 56/56/56 
f 55/55/55 57/57/57 56/56/56 
f 56/56/56 57/57/57 58/58/58 
f 57/57/57 59/59/59 58/58/58 
f 58/58/58 59/59/59 44/44/44 
f 59/59/59 46/46/46 44/44/44 
f 44/44/44 46/46/46 46/46/46 
f 46/46/46 57/57/57 46/46/46 
f 46/46/46 57/57/57 57/57/57 
f 57/57/57 55/55/55 57/57/57 
f 57/57/57 55/55/55 46/46/46 
f 55/55/55 53/53/53 46/46/46 
f 46/46/46 53/53/53 60/60/60 
f 53/53/53 52/52/52 60/60/60 
f 60/60/60 52/52/52 50/50/50 
f 52/52/52 50/50/50 50/50/50 
f 50/50/50 50/50/50 50/50/50 
f 50/50/50 48/48/48 50/50/50 
f 50/50/50 48/48/48 60/60/60 
f 48/48/48 46/46/46 60/60/60 
f 60/60/60 46/46/46 46/46/46 
f 46/46/46 61/61/61 46/46/46 
f 46/46/46 61/61/61 61/61/61 
f 61/61/61 62/62/62 61/61/61 
f 61/61/61 62/62/62 63/63/63 
f 62/62/62 64/64/64 63/63/63 
f 63/63/63 64/64/64 65/65/65 
f 64/64/64 66/66/66 65/65/65 
f 65/65/65 66/66/66 67/67/67 
f 66/66/66 68/68/68 67/67/67 
f 67/67/67 68/68/68 69/69/69 
f 68/68/68 70/70/70 69/69/69 
f 69/69/69 70/70/70 71/71/71 
f 70/70/70 72/72/72 71/71/71 
f 71/71/71 72/72/72 73/73/73 
f 72/72/72 74/74/74 73/73/73 
f 73/73/73 74/74/74 75/75/75 
f 74/74/74 76/76/76 75/75/75 
f 75/75/75 76/76/76 77/77/77 
f 76/76/76 78/78/78 77/77/77 
f 77/77/77 78/78/78 78/78/78 
f 78/78/78 62/62/62 78/78/78 
f 78/78/78 62/62/62 62/62/62 
f 62/62/62 61/61/61 62/62/62 
f 62/62/62 61/61/61 79/79/79 
f 61/61/61 80/80/80 79/79/79 
f 79/79/79 80/80/80 81/81/81 
f 80/80/80 82/82/82 81/81/81 
f 81/81/81 82/82/82 83/83/83 
f 82/82/82 84/84/84 83/83/83 
f 83/83/83 84/84/84 85/85/85 
f 84/84/84 78/78/78 85/85/85 
f 85/85/85 78/78/78 86/86/86 
f 78/78/78 76/76/76 86/86/86 
f 86/86/86 76/76/76 66/66/66 
f 76/76/76 74/74/74 66/66/66 
f 66/66/66 74/74/74 72/72/72 
f 74/74/74 72/72/72 72/72/72 
f 72/72/72 72/72/72 81/81/81 
f 72/72/72 81/81/81 81/81/81 
f 81/81/81 81/81/81 81/81/81 
f 81/81/81 83/83/83 81/81/81 
f 81/81/81 83/83/83 66/66/66 
f 83/83/83 85/85/85 66/66/66 
f 66/66/66 85/85/85 86/86/86 
f 85/85/85 86/86/86 86/86/86 
f 86/86/86 86/86/86 81/81/81 
f 86/86/86 81/81/81 81/81/81 
f 81/81/81 81/81/81 81/81/81 
f 81/81/81 66/66/66 81/81/81 
f 81/81/81 66/66/66 79/79/79 
f 66/66/66 62/62/62 79/79/79 
f 79/79/79 62/62/62 62/62/62 
f 62/62/62 68/68/68 62/62/62 
f 62/62/62 68/68/68 68/68/68 
f 68/68/68 66/66/66 68/68/68 
f 68/68/68 66/66/66 70/70/70 
f 66/66/66 72/72/72 70/70/70 
f 66/66/66 64/64/64 62/62/62 
f 46/46/46 59/59/59 57/57/57 

