mtllib model_0.mtl
o model_0
v 0.5047245025634766 -2.373054027557373 2.7488765716552734 
v 0.5257869958877563 -2.3646464347839355 2.7334060668945312 
v 0.48937374353408813 -2.375852346420288 2.771463632583618 
v 0.5493548512458801 -2.3519091606140137 2.727407217025757 
v 0.5718398690223694 -2.3367817401885986 2.7317938804626465 
v 0.5898190140724182 -2.3215670585632324 2.7458975315093994 
v 0.6005552411079407 -2.3085813522338867 2.7675724029541016 
v 0.6024138331413269 -2.2998013496398926 2.7935166358947754 
v 0.5951120257377625 -2.296564817428589 2.81978178024292 
v 0.5797613859176636 -2.299363374710083 2.8423690795898438 
v -0.5047245025634766 -2.373054027557373 2.7488765716552734 
v -0.48937374353408813 -2.375852346420288 2.771463632583618 
v -0.5257869958877563 -2.3646464347839355 2.7334060668945312 
v -0.5493548512458801 -2.3519091606140137 2.727407217025757 
v -0.5718398690223694 -2.3367817401885986 2.7317938804626465 
v -0.5898190140724182 -2.3215670585632324 2.7458975315093994 
v -0.6005552411079407 -2.3085813522338867 2.7675724029541016 
v -0.6024138331413269 -2.2998013496398926 2.7935166358947754 
v -0.5951120257377625 -2.296564817428589 2.81978178024292 
v -0.5797613859176636 -2.299363374710083 2.8423690795898438 
v -0.6424542665481567 -2.32810115814209 2.63083815574646 
v -0.6576547622680664 -2.3132851123809814 2.649707794189453 
v -0.645301342010498 -2.3344497680664062 2.603302001953125 
v -0.7027485966682434 -2.296238899230957 2.6140525341033936 
v -0.7012253999710083 -2.292842388153076 2.6287853717803955 
v -0.6819984912872314 -2.298680305480957 2.648857831954956 
v 0.6424542665481567 -2.32810115814209 2.63083815574646 
v 0.645301342010498 -2.3344497680664062 2.603302001953125 
v 0.6576547622680664 -2.3132851123809814 2.649707794189453 
v 0.7027485966682434 -2.296238899230957 2.6140525341033936 
v 0.7012253999710083 -2.292842388153076 2.6287853717803955 
v -0.387527197599411 -2.4054882526397705 2.5166823863983154 
v -0.8026893734931946 -2.228905439376831 2.6272101402282715 
v -0.7864475846290588 -2.1444668769836426 2.586519718170166 
v -0.8169724345207214 -2.1948418617248535 2.720613956451416 
v -0.8019841313362122 -2.1049487590789795 2.6948885917663574 
v -0.783817708492279 -2.1906301975250244 2.7849690914154053 
v -0.7639778852462769 -2.0988943576812744 2.7743539810180664 
v -0.7302243113517761 -2.2013869285583496 2.852931022644043 
v -0.7001672387123108 -2.1117019653320312 2.8552732467651367 
v -0.6566435098648071 -2.2309257984161377 2.899247169494629 
v -0.6125583648681641 -2.1468727588653564 2.91041898727417 
v -0.2836979031562805 -2.414008855819702 2.6864724159240723 
v -0.4676441550254822 -2.448132276535034 2.5685553550720215 
v -0.3237166404724121 -2.418295383453369 2.5976016521453857 
v -0.41405099630355835 -2.4588887691497803 2.6365175247192383 
v -0.3788835108280182 -2.4564437866210938 2.7102773189544678 
v 0.8019841313362122 -2.1049487590789795 2.6948885917663574 
v 0.8169724345207214 -2.1948418617248535 2.720613956451416 
v 0.7864475846290588 -2.1444668769836426 2.586519718170166 
v 0.8026893734931946 -2.228905439376831 2.6272101402282715 
v 0.387527197599411 -2.4054882526397705 2.5166823863983154 
v 0.4676441550254822 -2.448132276535034 2.5685553550720215 
v 0.3237166404724121 -2.418295383453369 2.5976016521453857 
v 0.41405099630355835 -2.4588887691497803 2.6365175247192383 
v 0.2836979031562805 -2.414008855819702 2.6864724159240723 
v 0.3788835108280182 -2.4564437866210938 2.7102773189544678 
v 0.6566435098648071 -2.2309257984161377 2.899247169494629 
v 0.7302243113517761 -2.2013869285583496 2.852931022644043 
v 0.7001672387123108 -2.1117019653320312 2.8552732467651367 
v 0.7639778852462769 -2.0988943576812744 2.7743539810180664 
v 0.783817708492279 -2.1906301975250244 2.7849690914154053 
v 0.6125583648681641 -2.1468727588653564 2.91041898727417 
v 0.6819984912872314 -2.298680305480957 2.648857831954956 
vn 0.5075422525405884 -0.8262468576431274 0.24437066912651062 
vn 0.5075422525405884 -0.8262468576431274 0.24437066912651062 
vn 0.5075422525405884 -0.8262468576431274 0.24437066912651062 
vn 0.5075422525405884 -0.8262468576431274 0.24437066912651062 
vn 0.5075422525405884 -0.8262468576431274 0.24437066912651062 
vn 0.5075422525405884 -0.8262468576431274 0.24437066912651062 
vn 0.5075422525405884 -0.8262468576431274 0.24437066912651062 
vn 0.5075422525405884 -0.8262468576431274 0.24437066912651062 
vn 0.5075422525405884 -0.8262468576431274 0.24437066912651062 
vn 0.5075422525405884 -0.8262468576431274 0.24437066912651062 
vn -0.5107548832893372 -0.8242647647857666 0.24437066912651062 
vn -0.5107548832893372 -0.8242647647857666 0.24437066912651062 
vn -0.5107548832893372 -0.8242647647857666 0.24437066912651062 
vn -0.5107548832893372 -0.8242647647857666 0.24437066912651062 
vn -0.5107548832893372 -0.8242647647857666 0.24437066912651062 
vn -0.5107548832893372 -0.8242647647857666 0.24437066912651062 
vn -0.5107548832893372 -0.8242647647857666 0.24437066912651062 
vn -0.5107548832893372 -0.8242647647857666 0.24437066912651062 
vn -0.5107548832893372 -0.8242647647857666 0.24437066912651062 
vn -0.5107548832893372 -0.8242647647857666 0.24437066912651062 
vn -0.5043218731880188 -0.8282164335250854 0.24437066912651062 
vn -0.5043218731880188 -0.8282164335250854 0.24437066912651062 
vn -0.5043218731880188 -0.8282164335250854 0.24437066912651062 
vn -0.5043218731880188 -0.8282164335250854 0.24437066912651062 
vn -0.5043218731880188 -0.8282164335250854 0.24437066912651062 
vn -0.5043218731880188 -0.8282164335250854 0.24437066912651062 
vn 0.5075422525405884 -0.8262468576431274 0.24437066912651062 
vn 0.5075422525405884 -0.8262468576431274 0.24437066912651062 
vn 0.5075422525405884 -0.8262468576431274 0.24437066912651062 
vn 0.5075422525405884 -0.8262468576431274 0.24437066912651062 
vn 0.5075422525405884 -0.8262468576431274 0.24437066912651062 
vn 0.0056659202091395855 -0.7779038548469543 -0.6283578276634216 
vn -0.7965438961982727 -0.5078274607658386 -0.3280687630176544 
vn -0.803376317024231 -0.120362289249897 -0.5831804275512695 
vn -0.9214915037155151 -0.31487902998924255 0.22738653421401978 
vn -0.9761455059051514 0.18382805585861206 0.11553031951189041 
vn -0.8099077939987183 -0.320665180683136 0.4911448359489441 
vn -0.8184259533882141 0.24174059927463531 0.5212872624397278 
vn -0.6880559325218201 -0.3385234773159027 0.641857385635376 
vn -0.6230800747871399 0.1858094185590744 0.7597671151161194 
vn -0.2831338346004486 -0.4703202545642853 0.8358433246612549 
vn -0.08824517577886581 -0.08429745584726334 0.9925254583358765 
vn 0.4466448426246643 -0.811347246170044 0.37712597846984863 
vn -0.3160204291343689 -0.8578375577926636 -0.405272513628006 
vn 0.32065925002098083 -0.9184339642524719 -0.23163928091526031 
vn -0.07544279098510742 -0.9970902800559998 -0.010923261754214764 
vn 0.12966279685497284 -0.865679919719696 0.4835140109062195 
vn 0.9754400849342346 0.1875348836183548 0.11553031951189041 
vn 0.9227043390274048 -0.31130707263946533 0.22738653421401978 
vn 0.803376317024231 -0.120362289249897 -0.5831804275512695 
vn 0.7965438961982727 -0.5078274607658386 -0.3280687630176544 
vn -0.0018886548932641745 -0.7779221534729004 -0.6283578276634216 
vn 0.31247639656066895 -0.8591348528862 -0.405272513628006 
vn -0.3170902729034424 -0.9196722507476807 -0.23163928091526031 
vn 0.07544279098510742 -0.9970902800559998 -0.010923261754214764 
vn -0.4499471187591553 -0.8095206022262573 0.37712597846984863 
vn -0.1259309947490692 -0.8662306666374207 0.4835140109062195 
vn 0.2831338346004486 -0.4703202545642853 0.8358433246612549 
vn 0.6863833069801331 -0.34190213680267334 0.641857385635376 
vn 0.6230800747871399 0.1858094185590744 0.7597671151161194 
vn 0.8173498511314392 0.24535448849201202 0.5212872624397278 
vn 0.8112896680831909 -0.31715264916419983 0.4911448359489441 
vn 0.09077487885951996 -0.08156710863113403 0.9925254583358765 
vn 0.5075422525405884 -0.8262468576431274 0.24437066912651062 
vt 0.806088387966156 0.3546687960624695 
vt 0.8076671361923218 0.351755291223526 
vt 0.8052989840507507 0.35915112495422363 
vt 0.8097984790802002 0.3507467806339264 
vt 0.8120877146720886 0.351755291223526 
vt 0.8142979741096497 0.3546687960624695 
vt 0.8159556984901428 0.35915112495422363 
vt 0.8169029355049133 0.3643057942390442 
vt 0.816981852054596 0.36946046352386475 
vt 0.8161925077438354 0.37383073568344116 
vt 0.806088387966156 0.3546687960624695 
vt 0.8052989840507507 0.35915112495422363 
vt 0.8076671361923218 0.351755291223526 
vt 0.8097984790802002 0.3507467806339264 
vt 0.8120877146720886 0.351755291223526 
vt 0.8142979741096497 0.3546687960624695 
vt 0.8159556984901428 0.35915112495422363 
vt 0.8169029355049133 0.3643057942390442 
vt 0.816981852054596 0.36946046352386475 
vt 0.8161925077438354 0.37383073568344116 
vt 0.817297637462616 0.3210514187812805 
vt 0.819350004196167 0.3249734342098236 
vt 0.8167450428009033 0.3156726360321045 
vt 0.8223496675491333 0.3156726360321045 
vt 0.822902262210846 0.3210514187812805 
vt 0.8216392397880554 0.3249734342098236 
vt 0.817297637462616 0.3210514187812805 
vt 0.8167450428009033 0.3156726360321045 
vt 0.819350004196167 0.3249734342098236 
vt 0.8223496675491333 0.3156726360321045 
vt 0.822902262210846 0.3210514187812805 
vt 0.9280480742454529 0.14444799721240997 
vt 0.9481773376464844 0.16551490128040314 
vt 0.9631755948066711 0.16002406179904938 
vt 0.9510191082954407 0.1809789091348648 
vt 0.9666488766670227 0.17851363122463226 
vt 0.9512559175491333 0.1965549737215042 
vt 0.9668856859207153 0.19700320065021515 
vt 0.9488088488578796 0.20966576039791107 
vt 0.9639649987220764 0.21257926523685455 
vt 0.9440725445747375 0.21840627491474152 
vt 0.9583603739738464 0.2230006605386734 
vt 0.9254431128501892 0.17851363122463226 
vt 0.9186543822288513 0.15240411460399628 
vt 0.9251273274421692 0.16002406179904938 
vt 0.9162073135375977 0.16551490128040314 
vt 0.9164441227912903 0.1809789091348648 
vt 0.9666488766670227 0.17851363122463226 
vt 0.9510191082954407 0.1809789091348648 
vt 0.9631755948066711 0.16002406179904938 
vt 0.9481773376464844 0.16551490128040314 
vt 0.9280480742454529 0.14444799721240997 
vt 0.9186543822288513 0.15240411460399628 
vt 0.9251273274421692 0.16002406179904938 
vt 0.9162073135375977 0.16551490128040314 
vt 0.9254431128501892 0.17851363122463226 
vt 0.9164441227912903 0.1809789091348648 
vt 0.9440725445747375 0.21840627491474152 
vt 0.9488088488578796 0.20966576039791107 
vt 0.9639649987220764 0.21257926523685455 
vt 0.9668856859207153 0.19700320065021515 
vt 0.9512559175491333 0.1965549737215042 
vt 0.9583603739738464 0.2230006605386734 
vt 0.8216392397880554 0.3249734342098236 
s on 
f 1/1/1 2/2/2 3/3/3 
f 2/2/2 4/4/4 3/3/3 
f 3/3/3 4/4/4 5/5/5 
f 4/4/4 5/5/5 5/5/5 
f 5/5/5 5/5/5 5/5/5 
f 5/5/5 6/6/6 5/5/5 
f 5/5/5 6/6/6 3/3/3 
f 6/6/6 7/7/7 3/3/3 
f 3/3/3 7/7/7 8/8/8 
f 7/7/7 8/8/8 8/8/8 
f 8/8/8 8/8/8 8/8/8 
f 8/8/8 9/9/9 8/8/8 
f 8/8/8 9/9/9 3/3/3 
f 9/9/9 10/10/10 3/3/3 
f 3/3/3 10/10/10 10/10/10 
f 10/10/10 11/11/11 10/10/10 
f 10/10/10 11/11/11 11/11/11 
f 11/11/11 12/12/12 11/11/11 
f 11/11/11 12/12/12 13/13/13 
f 12/12/12 14/14/14 13/13/13 
f 13/13/13 14/14/14 14/14/14 
f 14/14/14 12/12/12 14/14/14 
f 14/14/14 12/12/12 15/15/15 
f 12/12/12 16/16/16 15/15/15 
f 15/15/15 16/16/16 16/16/16 
f 16/16/16 12/12/12 16/16/16 
f 16/16/16 12/12/12 17/17/17 
f 12/12/12 18/18/18 17/17/17 
f 17/17/17 18/18/18 18/18/18 
f 18/18/18 12/12/12 18/18/18 
f 18/18/18 12/12/12 19/19/19 
f 12/12/12 20/20/20 19/19/19 
f 19/19/19 20/20/20 20/20/20 
f 20/20/20 21/21/21 20/20/20 
f 20/20/20 21/21/21 21/21/21 
f 21/21/21 22/22/22 21/21/21 
f 21/21/21 22/22/22 23/23/23 
f 22/22/22 24/24/24 23/23/23 
f 23/23/23 24/24/24 24/24/24 
f 24/24/24 22/22/22 24/24/24 
f 24/24/24 22/22/22 25/25/25 
f 22/22/22 26/26/26 25/25/25 
f 25/25/25 26/26/26 26/26/26 
f 26/26/26 27/27/27 26/26/26 
f 26/26/26 27/27/27 27/27/27 
f 27/27/27 28/28/28 27/27/27 
f 27/27/27 28/28/28 29/29/29 
f 28/28/28 30/30/30 29/29/29 
f 29/29/29 30/30/30 31/31/31 
f 30/30/30 31/31/31 31/31/31 
f 31/31/31 31/31/31 32/32/32 
f 31/31/31 32/32/32 32/32/32 
f 32/32/32 32/32/32 32/32/32 
f 32/32/32 33/33/33 32/32/32 
f 32/32/32 33/33/33 34/34/34 
f 33/33/33 35/35/35 34/34/34 
f 34/34/34 35/35/35 36/36/36 
f 35/35/35 37/37/37 36/36/36 
f 36/36/36 37/37/37 38/38/38 
f 37/37/37 39/39/39 38/38/38 
f 38/38/38 39/39/39 40/40/40 
f 39/39/39 41/41/41 40/40/40 
f 40/40/40 41/41/41 42/42/42 
f 41/41/41 43/43/43 42/42/42 
f 42/42/42 43/43/43 43/43/43 
f 43/43/43 33/33/33 43/43/43 
f 43/43/43 33/33/33 33/33/33 
f 33/33/33 32/32/32 33/33/33 
f 33/33/33 32/32/32 44/44/44 
f 32/32/32 45/45/45 44/44/44 
f 44/44/44 45/45/45 46/46/46 
f 45/45/45 43/43/43 46/46/46 
f 46/46/46 43/43/43 47/47/47 
f 43/43/43 41/41/41 47/47/47 
f 47/47/47 41/41/41 39/39/39 
f 41/41/41 39/39/39 39/39/39 
f 39/39/39 39/39/39 39/39/39 
f 39/39/39 37/37/37 39/39/39 
f 39/39/39 37/37/37 47/47/47 
f 37/37/37 35/35/35 47/47/47 
f 47/47/47 35/35/35 33/33/33 
f 35/35/35 33/33/33 33/33/33 
f 33/33/33 33/33/33 33/33/33 
f 33/33/33 44/44/44 33/33/33 
f 33/33/33 44/44/44 47/47/47 
f 44/44/44 46/46/46 47/47/47 
f 47/47/47 46/46/46 46/46/46 
f 46/46/46 48/48/48 46/46/46 
f 46/46/46 48/48/48 48/48/48 
f 48/48/48 49/49/49 48/48/48 
f 48/48/48 49/49/49 50/50/50 
f 49/49/49 51/51/51 50/50/50 
f 50/50/50 51/51/51 52/52/52 
f 51/51/51 53/53/53 52/52/52 
f 52/52/52 53/53/53 54/54/54 
f 53/53/53 55/55/55 54/54/54 
f 54/54/54 55/55/55 56/56/56 
f 55/55/55 57/57/57 56/56/56 
f 56/56/56 57/57/57 58/58/58 
f 57/57/57 59/59/59 58/58/58 
f 58/58/58 59/59/59 60/60/60 
f 59/59/59 61/61/61 60/60/60 
f 60/60/60 61/61/61 61/61/61 
f 61/61/61 53/53/53 61/61/61 
f 61/61/61 53/53/53 53/53/53 
f 53/53/53 51/51/51 53/53/53 
f 53/53/53 51/51/51 57/57/57 
f 51/51/51 49/49/49 57/57/57 
f 57/57/57 49/49/49 62/62/62 
f 49/49/49 48/48/48 62/62/62 
f 62/62/62 48/48/48 61/61/61 
f 48/48/48 61/61/61 61/61/61 
f 61/61/61 61/61/61 61/61/61 
f 61/61/61 59/59/59 61/61/61 
f 61/61/61 59/59/59 62/62/62 
f 59/59/59 57/57/57 62/62/62 
f 62/62/62 57/57/57 57/57/57 
f 57/57/57 60/60/60 57/57/57 
f 57/57/57 60/60/60 60/60/60 
f 60/60/60 63/63/63 60/60/60 
f 60/60/60 63/63/63 58/58/58 
f 63/63/63 56/56/56 58/58/58 
f 57/57/57 55/55/55 53/53/53 
f 29/29/29 31/31/31 64/64/64 

