mtllib model_6.mtl
o model_6
v 0.4946666955947876 -2.3669893741607666 2.8453476428985596 
v 0.48393064737319946 -2.3799755573272705 2.8236734867095947 
v 0.5126459002494812 -2.3517751693725586 2.8594515323638916 
v 0.4820719063282013 -2.3887548446655273 2.797729015350342 
v 0.48937374353408813 -2.3919918537139893 2.771463632583618 
v 0.5047245025634766 -2.389193534851074 2.7488765716552734 
v 0.5257869958877563 -2.3807859420776367 2.7334060668945312 
v 0.5493548512458801 -2.368048667907715 2.727407217025757 
v 0.5718398690223694 -2.3529212474823 2.7317938804626465 
v 0.5898190140724182 -2.3377065658569336 2.7458975315093994 
v 0.6005552411079407 -2.324720859527588 2.7675724029541016 
v 0.6024138331413269 -2.3159408569335938 2.7935166358947754 
v 0.5951120257377625 -2.31270432472229 2.81978178024292 
v 0.5797613859176636 -2.315502882003784 2.8423690795898438 
v 0.5586987137794495 -2.3239104747772217 2.857839822769165 
v 0.5351309776306152 -2.3366477489471436 2.8638384342193604 
v -0.6424542665481567 -2.344240665435791 2.63083815574646 
v -0.6576547622680664 -2.3294246196746826 2.649707794189453 
v -0.645301342010498 -2.3505892753601074 2.603302001953125 
v -0.6645280122756958 -2.3447511196136475 2.5832297801971436 
v -0.6888718605041504 -2.330146312713623 2.5823793411254883 
v -0.7040722966194153 -2.3153300285339355 2.6012496948242188 
v -0.7012253999710083 -2.3089818954467773 2.6287853717803955 
v -0.6819984912872314 -2.314819812774658 2.648857831954956 
v 0.6424542665481567 -2.344240665435791 2.63083815574646 
v 0.645301342010498 -2.3505892753601074 2.603302001953125 
v 0.6576547622680664 -2.3294246196746826 2.649707794189453 
v 0.6645280122756958 -2.3447511196136475 2.5832297801971436 
v 0.6888718605041504 -2.330146312713623 2.5823793411254883 
v 0.7040722966194153 -2.3153300285339355 2.6012496948242188 
v 0.7012253999710083 -2.3089818954467773 2.6287853717803955 
v 0.6819984912872314 -2.314819812774658 2.648857831954956 
v -0.5351309776306152 -2.3366477489471436 2.8638384342193604 
v -0.5586987137794495 -2.3239104747772217 2.857839822769165 
v -0.5126459002494812 -2.3517751693725586 2.8594515323638916 
v -0.5797613859176636 -2.315502882003784 2.8423690795898438 
v -0.5951120257377625 -2.31270432472229 2.81978178024292 
v -0.6024138331413269 -2.3159408569335938 2.7935166358947754 
v -0.6005552411079407 -2.324720859527588 2.7675724029541016 
v -0.5898190140724182 -2.3377065658569336 2.7458975315093994 
v -0.5718398690223694 -2.3529212474823 2.7317938804626465 
v -0.5493548512458801 -2.368048667907715 2.727407217025757 
v -0.5257869958877563 -2.3807859420776367 2.7334060668945312 
v -0.5047245025634766 -2.389193534851074 2.7488765716552734 
v -0.48937374353408813 -2.3919918537139893 2.771463632583618 
v -0.4820719063282013 -2.3887548446655273 2.797729015350342 
v -0.48393064737319946 -2.3799755573272705 2.8236734867095947 
v -0.4946666955947876 -2.3669893741607666 2.8453476428985596 
v 0.5144892930984497 -2.2151918411254883 2.9313952922821045 
v 0.5742769241333008 -2.2908897399902344 2.9168648719787598 
v 0.6125583648681641 -2.1630122661590576 2.91041898727417 
v 0.6566435098648071 -2.247065305709839 2.899247169494629 
v 0.7001672387123108 -2.1278414726257324 2.8552732467651367 
v 0.7302243113517761 -2.217526435852051 2.852931022644043 
v 0.7639778852462769 -2.1150338649749756 2.7743539810180664 
v 0.783817708492279 -2.2067697048187256 2.7849690914154053 
v 0.8019841313362122 -2.1210882663726807 2.6948885917663574 
v 0.8169724345207214 -2.2109813690185547 2.720613956451416 
v 0.7864475846290588 -2.1606063842773438 2.586519718170166 
v 0.8026893734931946 -2.2450449466705322 2.6272101402282715 
v 0.7416860461235046 -2.212048053741455 2.5082004070281982 
v 0.765095055103302 -2.2882497310638428 2.561431646347046 
v 0.6668053865432739 -2.273033380508423 2.456946611404419 
v 0.7022044062614441 -2.339470148086548 2.5183842182159424 
v 0.5732054710388184 -2.334277629852295 2.4405603408813477 
v 0.6235915422439575 -2.3909077644348145 2.504621744155884 
v 0.4751359522342682 -2.3864567279815674 2.4615368843078613 
v 0.5412250757217407 -2.434732675552368 2.5222396850585938 
v 0.387527197599411 -2.4216277599334717 2.5166823863983154 
v 0.4676441550254822 -2.4642717838287354 2.5685553550720215 
v 0.3237166404724121 -2.4344348907470703 2.5976016521453857 
v 0.41405099630355835 -2.4750282764434814 2.6365175247192383 
v 0.2935108542442322 -2.4245247840881348 2.693154811859131 
v 0.3788835108280182 -2.472583293914795 2.7102773189544678 
v 0.30124711990356445 -2.3888633251190186 2.7854361534118652 
v 0.3951791822910309 -2.436753034591675 2.794276475906372 
v 0.3460085690021515 -2.337421178817749 2.863754987716675 
v 0.43277353048324585 -2.3935482501983643 2.8600547313690186 
v 0.4208892583847046 -2.2764358520507812 2.9150092601776123 
v 0.4956642985343933 -2.342327833175659 2.903102159500122 
v -0.8019841313362122 -2.1210882663726807 2.6948885917663574 
v -0.783817708492279 -2.2067697048187256 2.7849690914154053 
v -0.7639778852462769 -2.1150338649749756 2.7743539810180664 
v -0.7302243113517761 -2.217526435852051 2.852931022644043 
v -0.7001672387123108 -2.1278414726257324 2.8552732467651367 
v -0.6566435098648071 -2.247065305709839 2.899247169494629 
v -0.6125583648681641 -2.1630122661590576 2.91041898727417 
v -0.5742769241333008 -2.2908897399902344 2.9168648719787598 
v -0.5144892930984497 -2.2151918411254883 2.9313952922821045 
v -0.4956642985343933 -2.342327833175659 2.903102159500122 
v -0.4208892583847046 -2.2764358520507812 2.9150092601776123 
v -0.43277353048324585 -2.3935482501983643 2.8600547313690186 
v -0.3460085690021515 -2.337421178817749 2.863754987716675 
v -0.3951791822910309 -2.436753034591675 2.794276475906372 
v -0.30124711990356445 -2.3888633251190186 2.7854361534118652 
v -0.3788835108280182 -2.472583293914795 2.7102773189544678 
v -0.2935108542442322 -2.4245247840881348 2.693154811859131 
v -0.41405099630355835 -2.4750282764434814 2.6365175247192383 
v -0.3237166404724121 -2.4344348907470703 2.5976016521453857 
v -0.4676441550254822 -2.4642717838287354 2.5685553550720215 
v -0.387527197599411 -2.4216277599334717 2.5166823863983154 
v -0.5412250757217407 -2.434732675552368 2.5222396850585938 
v -0.4751359522342682 -2.3864567279815674 2.4615368843078613 
v -0.6235915422439575 -2.3909077644348145 2.504621744155884 
v -0.5732054710388184 -2.334277629852295 2.4405603408813477 
v -0.7022044062614441 -2.339470148086548 2.5183842182159424 
v -0.6668053865432739 -2.273033380508423 2.456946611404419 
v -0.765095055103302 -2.2882497310638428 2.561431646347046 
v -0.7416860461235046 -2.212048053741455 2.5082004070281982 
v -0.8026893734931946 -2.2450449466705322 2.6272101402282715 
v -0.7864475846290588 -2.1606063842773438 2.586519718170166 
v -0.8169724345207214 -2.2109813690185547 2.720613956451416 
vn 0.5075422525405884 -0.8262468576431274 0.24437066912651062 
vn 0.5075422525405884 -0.8262468576431274 0.24437066912651062 
vn 0.5075422525405884 -0.8262468576431274 0.24437066912651062 
vn 0.5075422525405884 -0.8262468576431274 0.24437066912651062 
vn 0.5075422525405884 -0.8262468576431274 0.24437066912651062 
vn 0.5075422525405884 -0.8262468576431274 0.24437066912651062 
vn 0.5075422525405884 -0.8262468576431274 0.24437066912651062 
vn 0.5075422525405884 -0.8262468576431274 0.24437066912651062 
vn 0.5075422525405884 -0.8262468576431274 0.24437066912651062 
vn 0.5075422525405884 -0.8262468576431274 0.24437066912651062 
vn 0.5075422525405884 -0.8262468576431274 0.24437066912651062 
vn 0.5075422525405884 -0.8262468576431274 0.24437066912651062 
vn 0.5075422525405884 -0.8262468576431274 0.24437066912651062 
vn 0.5075422525405884 -0.8262468576431274 0.24437066912651062 
vn 0.5075422525405884 -0.8262468576431274 0.24437066912651062 
vn 0.5075422525405884 -0.8262468576431274 0.24437066912651062 
vn -0.5043218731880188 -0.8282164335250854 0.24437066912651062 
vn -0.5043218731880188 -0.8282164335250854 0.24437066912651062 
vn -0.5043218731880188 -0.8282164335250854 0.24437066912651062 
vn -0.5043218731880188 -0.8282164335250854 0.24437066912651062 
vn -0.5043218731880188 -0.8282164335250854 0.24437066912651062 
vn -0.5043218731880188 -0.8282164335250854 0.24437066912651062 
vn -0.5043218731880188 -0.8282164335250854 0.24437066912651062 
vn -0.5043218731880188 -0.8282164335250854 0.24437066912651062 
vn 0.5075422525405884 -0.8262468576431274 0.24437066912651062 
vn 0.5075422525405884 -0.8262468576431274 0.24437066912651062 
vn 0.5075422525405884 -0.8262468576431274 0.24437066912651062 
vn 0.5075422525405884 -0.8262468576431274 0.24437066912651062 
vn 0.5075422525405884 -0.8262468576431274 0.24437066912651062 
vn 0.5075422525405884 -0.8262468576431274 0.24437066912651062 
vn 0.5075422525405884 -0.8262468576431274 0.24437066912651062 
vn 0.5075422525405884 -0.8262468576431274 0.24437066912651062 
vn -0.5107548832893372 -0.8242647647857666 0.24437066912651062 
vn -0.5107548832893372 -0.8242647647857666 0.24437066912651062 
vn -0.5107548832893372 -0.8242647647857666 0.24437066912651062 
vn -0.5107548832893372 -0.8242647647857666 0.24437066912651062 
vn -0.5107548832893372 -0.8242647647857666 0.24437066912651062 
vn -0.5107548832893372 -0.8242647647857666 0.24437066912651062 
vn -0.5107548832893372 -0.8242647647857666 0.24437066912651062 
vn -0.5107548832893372 -0.8242647647857666 0.24437066912651062 
vn -0.5107548832893372 -0.8242647647857666 0.24437066912651062 
vn -0.5107548832893372 -0.8242647647857666 0.24437066912651062 
vn -0.5107548832893372 -0.8242647647857666 0.24437066912651062 
vn -0.5107548832893372 -0.8242647647857666 0.24437066912651062 
vn -0.5107548832893372 -0.8242647647857666 0.24437066912651062 
vn -0.5107548832893372 -0.8242647647857666 0.24437066912651062 
vn -0.5107548832893372 -0.8242647647857666 0.24437066912651062 
vn -0.5107548832893372 -0.8242647647857666 0.24437066912651062 
vn 0.07930958271026611 -0.1249719113111496 0.9889853596687317 
vn 0.34394311904907227 -0.5278953313827515 0.7765498161315918 
vn 0.3496590852737427 0.05995507165789604 0.9349566102027893 
vn 0.5151035189628601 -0.4180116355419159 0.7482877969741821 
vn 0.6230800747871399 0.1858094185590744 0.7597671151161194 
vn 0.6893811821937561 -0.3421556353569031 0.6385006904602051 
vn 0.8173498511314392 0.24535448849201202 0.5212872624397278 
vn 0.8136061429977417 -0.3170970380306244 0.48733407258987427 
vn 0.9754400849342346 0.1875348836183548 0.11553031951189041 
vn 0.9227043390274048 -0.31130707263946533 0.22738653421401978 
vn 0.9429394602775574 0.022646378725767136 -0.33219319581985474 
vn 0.8932101130485535 -0.4445176422595978 -0.06767380982637405 
vn 0.7928159236907959 -0.16491666436195374 -0.5867242813110352 
vn 0.7953649163246155 -0.560123085975647 -0.23163928091526031 
vn 0.5649042725563049 -0.3777409791946411 -0.7336177229881287 
vn 0.6438261866569519 -0.6932185888290405 -0.3239381015300751 
vn 0.30857595801353455 -0.5798103213310242 -0.7540562748908997 
vn 0.4788326919078827 -0.8092166185379028 -0.34042292833328247 
vn 0.06032862886786461 -0.7473041415214539 -0.661737859249115 
vn 0.32037803530693054 -0.902928352355957 -0.2864931523799896 
vn -0.163290873169899 -0.8705074787139893 -0.4642767012119293 
vn 0.1654077023267746 -0.9719093441963196 -0.16742929816246033 
vn -0.3470931649208069 -0.9119337201118469 -0.21886809170246124 
vn 0.06037835404276848 -0.998173177242279 -0.002184694167226553 
vn -0.4676092863082886 -0.8703296780586243 0.15449213981628418 
vn -0.07542770355939865 -0.9728347063064575 0.21886809170246124 
vn -0.44624319672584534 -0.732711672782898 0.5138099193572998 
vn -0.007543599233031273 -0.8836209774017334 0.46814218163490295 
vn -0.32727110385894775 -0.5618252158164978 0.7597671151161194 
vn 0.060283251106739044 -0.7755851745605469 0.6283578276634216 
vn -0.14977280795574188 -0.33947688341140747 0.9286137819290161 
vn 0.1859445422887802 -0.6502881050109863 0.736579954624176 
vn -0.9761455059051514 0.18382805585861206 0.11553031951189041 
vn -0.812228262424469 -0.3206098973751068 0.48733407258987427 
vn -0.8184259533882141 0.24174059927463531 0.5212872624397278 
vn -0.6910498142242432 -0.33877283334732056 0.6385006904602051 
vn -0.6230800747871399 0.1858094185590744 0.7597671151161194 
vn -0.5127204656600952 -0.4209311604499817 0.7482877969741821 
vn -0.3496590852737427 0.05995507165789604 0.9349566102027893 
vn -0.34077805280685425 -0.5299440026283264 0.7765498161315918 
vn -0.08242509514093399 -0.12293938547372818 0.9889853596687317 
vn -0.1859445422887802 -0.6502881050109863 0.736579954624176 
vn 0.14977280795574188 -0.33947688341140747 0.9286137819290161 
vn -0.060283251106739044 -0.7755851745605469 0.6283578276634216 
vn 0.32727110385894775 -0.5618252158164978 0.7597671151161194 
vn 0.007543599233031273 -0.8836209774017334 0.46814218163490295 
vn 0.44301947951316833 -0.7346652746200562 0.5138099193572998 
vn 0.07542770355939865 -0.9728347063064575 0.21886809170246124 
vn 0.4676092863082886 -0.8703296780586243 0.15449213981628418 
vn -0.06037835404276848 -0.998173177242279 -0.002184694167226553 
vn 0.3470931649208069 -0.9119337201118469 -0.21886809170246124 
vn -0.1654077023267746 -0.9719093441963196 -0.16742929816246033 
vn 0.16700007021427155 -0.8698034882545471 -0.4642767012119293 
vn -0.31681641936302185 -0.9041841626167297 -0.2864931523799896 
vn -0.06032862886786461 -0.7473041415214539 -0.661737859249115 
vn -0.4788326919078827 -0.8092166185379028 -0.34042292833328247 
vn -0.30857595801353455 -0.5798103213310242 -0.7540562748908997 
vn -0.6410537958145142 -0.6957830786705017 -0.3239381015300751 
vn -0.5627951622009277 -0.38087618350982666 -0.7336177229881287 
vn -0.7931838035583496 -0.5632075071334839 -0.23163928091526031 
vn -0.7928159236907959 -0.16491666436195374 -0.5867242813110352 
vn -0.8932101130485535 -0.4445176422595978 -0.06767380982637405 
vn -0.9428412914276123 0.026419857516884804 -0.33219319581985474 
vn -0.9214915037155151 -0.31487902998924255 0.22738653421401978 
vt 0.7942908406257629 0.3589972257614136 
vt 0.7925505638122559 0.3545795679092407 
vt 0.7963975667953491 0.36185571551322937 
vt 0.7916346192359924 0.34938234090805054 
vt 0.7915430068969727 0.34418508410453796 
vt 0.7923673391342163 0.3397674262523651 
vt 0.7939244508743286 0.3369089663028717 
vt 0.7960311770439148 0.33586952090263367 
vt 0.7983210682868958 0.3369089663028717 
vt 0.8005193471908569 0.3397674262523651 
vt 0.802259624004364 0.34418508410453796 
vt 0.8031756281852722 0.34938234090805054 
vt 0.8032671809196472 0.3545795679092407 
vt 0.8024428486824036 0.3589972257614136 
vt 0.8008857369422913 0.36185571551322937 
vt 0.7987790107727051 0.3628951609134674 
vt 0.8035419583320618 0.30624523758888245 
vt 0.8055570721626282 0.3100132346153259 
vt 0.8029924035072327 0.30078813433647156 
vt 0.8042747378349304 0.2968901991844177 
vt 0.8065646290779114 0.2968901991844177 
vt 0.8085797429084778 0.30078813433647156 
vt 0.8091292977333069 0.30624523758888245 
vt 0.8078469634056091 0.3100132346153259 
vt 0.8035419583320618 0.30624523758888245 
vt 0.8029924035072327 0.30078813433647156 
vt 0.8055570721626282 0.3100132346153259 
vt 0.8042747378349304 0.2968901991844177 
vt 0.8065646290779114 0.2968901991844177 
vt 0.8085797429084778 0.30078813433647156 
vt 0.8091292977333069 0.30624523758888245 
vt 0.8078469634056091 0.3100132346153259 
vt 0.7987790107727051 0.3628951609134674 
vt 0.8008857369422913 0.36185571551322937 
vt 0.7963975667953491 0.36185571551322937 
vt 0.8024428486824036 0.3589972257614136 
vt 0.8032671809196472 0.3545795679092407 
vt 0.8031756281852722 0.34938234090805054 
vt 0.802259624004364 0.34418508410453796 
vt 0.8005193471908569 0.3397674262523651 
vt 0.7983210682868958 0.3369089663028717 
vt 0.7960311770439148 0.33586952090263367 
vt 0.7939244508743286 0.3369089663028717 
vt 0.7923673391342163 0.3397674262523651 
vt 0.7915430068969727 0.34418508410453796 
vt 0.7916346192359924 0.34938234090805054 
vt 0.7925505638122559 0.3545795679092407 
vt 0.7942908406257629 0.3589972257614136 
vt 0.9630094170570374 0.19333520531654358 
vt 0.9499112963676453 0.1881379634141922 
vt 0.9705201983451843 0.1895672082901001 
vt 0.9562313556671143 0.1850196123123169 
vt 0.9761075377464294 0.17917272448539734 
vt 0.960994303226471 0.17618431150913239 
vt 0.9790385961532593 0.1635809987783432 
vt 0.9633758068084717 0.16306127607822418 
vt 0.9787638187408447 0.14513079822063446 
vt 0.9631925821304321 0.1475994884967804 
vt 0.9753747582435608 0.12668059766292572 
vt 0.9603531360626221 0.1321377009153366 
vt 0.9693294763565063 0.11108887940645218 
vt 0.9553154110908508 0.119014672935009 
vt 0.9616354703903198 0.10056446492671967 
vt 0.9488121271133423 0.1101793646812439 
vt 0.9533919095993042 0.09692639857530594 
vt 0.9418509006500244 0.10719095170497894 
vt 0.9458810687065125 0.10056446492671967 
vt 0.9355308413505554 0.1101793646812439 
vt 0.9402021765708923 0.11108887940645218 
vt 0.930767834186554 0.119014672935009 
vt 0.9372711181640625 0.12668059766292572 
vt 0.928386390209198 0.1321377009153366 
vt 0.937545895576477 0.14513079822063446 
vt 0.9285695552825928 0.1475994884967804 
vt 0.941026508808136 0.1635809987783432 
vt 0.9315006136894226 0.16306127607822418 
vt 0.9469802379608154 0.17917272448539734 
vt 0.9365383386611938 0.17618431150913239 
vt 0.954765796661377 0.1895672082901001 
vt 0.9430416226387024 0.1850196123123169 
vt 0.9787638187408447 0.14513079822063446 
vt 0.9633758068084717 0.16306127607822418 
vt 0.9790385961532593 0.1635809987783432 
vt 0.960994303226471 0.17618431150913239 
vt 0.9761075377464294 0.17917272448539734 
vt 0.9562313556671143 0.1850196123123169 
vt 0.9705201983451843 0.1895672082901001 
vt 0.9499112963676453 0.1881379634141922 
vt 0.9630094170570374 0.19333520531654358 
vt 0.9430416226387024 0.1850196123123169 
vt 0.954765796661377 0.1895672082901001 
vt 0.9365383386611938 0.17618431150913239 
vt 0.9469802379608154 0.17917272448539734 
vt 0.9315006136894226 0.16306127607822418 
vt 0.941026508808136 0.1635809987783432 
vt 0.9285695552825928 0.1475994884967804 
vt 0.937545895576477 0.14513079822063446 
vt 0.928386390209198 0.1321377009153366 
vt 0.9372711181640625 0.12668059766292572 
vt 0.930767834186554 0.119014672935009 
vt 0.9402021765708923 0.11108887940645218 
vt 0.9355308413505554 0.1101793646812439 
vt 0.9458810687065125 0.10056446492671967 
vt 0.9418509006500244 0.10719095170497894 
vt 0.9533919095993042 0.09692639857530594 
vt 0.9488121271133423 0.1101793646812439 
vt 0.9616354703903198 0.10056446492671967 
vt 0.9553154110908508 0.119014672935009 
vt 0.9693294763565063 0.11108887940645218 
vt 0.9603531360626221 0.1321377009153366 
vt 0.9753747582435608 0.12668059766292572 
vt 0.9631925821304321 0.1475994884967804 
s on 
f 1/1/1 2/2/2 3/3/3 
f 2/2/2 4/4/4 3/3/3 
f 3/3/3 4/4/4 5/5/5 
f 4/4/4 5/5/5 5/5/5 
f 5/5/5 5/5/5 5/5/5 
f 5/5/5 6/6/6 5/5/5 
f 5/5/5 6/6/6 3/3/3 
f 6/6/6 7/7/7 3/3/3 
f 3/3/3 7/7/7 8/8/8 
f 7/7/7 8/8/8 8/8/8 
f 8/8/8 8/8/8 8/8/8 
f 8/8/8 9/9/9 8/8/8 
f 8/8/8 9/9/9 3/3/3 
f 9/9/9 10/10/10 3/3/3 
f 3/3/3 10/10/10 11/11/11 
f 10/10/10 11/11/11 11/11/11 
f 11/11/11 11/11/11 11/11/11 
f 11/11/11 12/12/12 11/11/11 
f 11/11/11 12/12/12 3/3/3 
f 12/12/12 13/13/13 3/3/3 
f 3/3/3 13/13/13 14/14/14 
f 13/13/13 14/14/14 14/14/14 
f 14/14/14 14/14/14 14/14/14 
f 14/14/14 15/15/15 14/14/14 
f 14/14/14 15/15/15 3/3/3 
f 15/15/15 16/16/16 3/3/3 
f 3/3/3 16/16/16 16/16/16 
f 16/16/16 17/17/17 16/16/16 
f 16/16/16 17/17/17 17/17/17 
f 17/17/17 18/18/18 17/17/17 
f 17/17/17 18/18/18 19/19/19 
f 18/18/18 20/20/20 19/19/19 
f 19/19/19 20/20/20 20/20/20 
f 20/20/20 18/18/18 20/20/20 
f 20/20/20 18/18/18 21/21/21 
f 18/18/18 22/22/22 21/21/21 
f 21/21/21 22/22/22 22/22/22 
f 22/22/22 18/18/18 22/22/22 
f 22/22/22 18/18/18 23/23/23 
f 18/18/18 24/24/24 23/23/23 
f 23/23/23 24/24/24 24/24/24 
f 24/24/24 25/25/25 24/24/24 
f 24/24/24 25/25/25 25/25/25 
f 25/25/25 26/26/26 25/25/25 
f 25/25/25 26/26/26 27/27/27 
f 26/26/26 28/28/28 27/27/27 
f 27/27/27 28/28/28 29/29/29 
f 28/28/28 29/29/29 29/29/29 
f 29/29/29 29/29/29 29/29/29 
f 29/29/29 30/30/30 29/29/29 
f 29/29/29 30/30/30 27/27/27 
f 30/30/30 31/31/31 27/27/27 
f 27/27/27 31/31/31 32/32/32 
f 31/31/31 32/32/32 32/32/32 
f 32/32/32 32/32/32 33/33/33 
f 32/32/32 33/33/33 33/33/33 
f 33/33/33 33/33/33 33/33/33 
f 33/33/33 34/34/34 33/33/33 
f 33/33/33 34/34/34 35/35/35 
f 34/34/34 36/36/36 35/35/35 
f 35/35/35 36/36/36 37/37/37 
f 36/36/36 37/37/37 37/37/37 
f 37/37/37 37/37/37 37/37/37 
f 37/37/37 38/38/38 37/37/37 
f 37/37/37 38/38/38 35/35/35 
f 38/38/38 39/39/39 35/35/35 
f 35/35/35 39/39/39 40/40/40 
f 39/39/39 40/40/40 40/40/40 
f 40/40/40 40/40/40 40/40/40 
f 40/40/40 41/41/41 40/40/40 
f 40/40/40 41/41/41 35/35/35 
f 41/41/41 42/42/42 35/35/35 
f 35/35/35 42/42/42 43/43/43 
f 42/42/42 43/43/43 43/43/43 
f 43/43/43 43/43/43 43/43/43 
f 43/43/43 44/44/44 43/43/43 
f 43/43/43 44/44/44 35/35/35 
f 44/44/44 45/45/45 35/35/35 
f 35/35/35 45/45/45 46/46/46 
f 45/45/45 46/46/46 46/46/46 
f 46/46/46 46/46/46 46/46/46 
f 46/46/46 47/47/47 46/46/46 
f 46/46/46 47/47/47 35/35/35 
f 47/47/47 48/48/48 35/35/35 
f 35/35/35 48/48/48 48/48/48 
f 48/48/48 49/49/49 48/48/48 
f 48/48/48 49/49/49 49/49/49 
f 49/49/49 50/50/50 49/49/49 
f 49/49/49 50/50/50 51/51/51 
f 50/50/50 52/52/52 51/51/51 
f 51/51/51 52/52/52 53/53/53 
f 52/52/52 54/54/54 53/53/53 
f 53/53/53 54/54/54 55/55/55 
f 54/54/54 56/56/56 55/55/55 
f 55/55/55 56/56/56 57/57/57 
f 56/56/56 58/58/58 57/57/57 
f 57/57/57 58/58/58 59/59/59 
f 58/58/58 60/60/60 59/59/59 
f 59/59/59 60/60/60 61/61/61 
f 60/60/60 62/62/62 61/61/61 
f 61/61/61 62/62/62 63/63/63 
f 62/62/62 64/64/64 63/63/63 
f 63/63/63 64/64/64 65/65/65 
f 64/64/64 66/66/66 65/65/65 
f 65/65/65 66/66/66 67/67/67 
f 66/66/66 68/68/68 67/67/67 
f 67/67/67 68/68/68 69/69/69 
f 68/68/68 70/70/70 69/69/69 
f 69/69/69 70/70/70 71/71/71 
f 70/70/70 72/72/72 71/71/71 
f 71/71/71 72/72/72 73/73/73 
f 72/72/72 74/74/74 73/73/73 
f 73/73/73 74/74/74 75/75/75 
f 74/74/74 76/76/76 75/75/75 
f 75/75/75 76/76/76 77/77/77 
f 76/76/76 78/78/78 77/77/77 
f 77/77/77 78/78/78 79/79/79 
f 78/78/78 80/80/80 79/79/79 
f 79/79/79 80/80/80 49/49/49 
f 80/80/80 50/50/50 49/49/49 
f 49/49/49 50/50/50 50/50/50 
f 50/50/50 78/78/78 50/50/50 
f 50/50/50 78/78/78 78/78/78 
f 78/78/78 76/76/76 78/78/78 
f 78/78/78 76/76/76 80/80/80 
f 76/76/76 74/74/74 80/80/80 
f 80/80/80 74/74/74 72/72/72 
f 74/74/74 72/72/72 72/72/72 
f 72/72/72 72/72/72 72/72/72 
f 72/72/72 70/70/70 72/72/72 
f 72/72/72 70/70/70 80/80/80 
f 70/70/70 68/68/68 80/80/80 
f 80/80/80 68/68/68 66/66/66 
f 68/68/68 66/66/66 66/66/66 
f 66/66/66 66/66/66 66/66/66 
f 66/66/66 64/64/64 66/66/66 
f 66/66/66 64/64/64 80/80/80 
f 64/64/64 62/62/62 80/80/80 
f 80/80/80 62/62/62 60/60/60 
f 62/62/62 60/60/60 60/60/60 
f 60/60/60 60/60/60 60/60/60 
f 60/60/60 58/58/58 60/60/60 
f 60/60/60 58/58/58 80/80/80 
f 58/58/58 56/56/56 80/80/80 
f 80/80/80 56/56/56 54/54/54 
f 56/56/56 54/54/54 54/54/54 
f 54/54/54 54/54/54 54/54/54 
f 54/54/54 52/52/52 54/54/54 
f 54/54/54 52/52/52 80/80/80 
f 52/52/52 50/50/50 80/80/80 
f 80/80/80 50/50/50 50/50/50 
f 50/50/50 81/81/81 50/50/50 
f 50/50/50 81/81/81 81/81/81 
f 81/81/81 82/82/82 81/81/81 
f 81/81/81 82/82/82 83/83/83 
f 82/82/82 84/84/84 83/83/83 
f 83/83/83 84/84/84 85/85/85 
f 84/84/84 86/86/86 85/85/85 
f 85/85/85 86/86/86 87/87/87 
f 86/86/86 88/88/88 87/87/87 
f 87/87/87 88/88/88 89/89/89 
f 88/88/88 90/90/90 89/89/89 
f 89/89/89 90/90/90 91/91/91 
f 90/90/90 92/92/92 91/91/91 
f 91/91/91 92/92/92 93/93/93 
f 92/92/92 94/94/94 93/93/93 
f 93/93/93 94/94/94 95/95/95 
f 94/94/94 96/96/96 95/95/95 
f 95/95/95 96/96/96 97/97/97 
f 96/96/96 98/98/98 97/97/97 
f 97/97/97 98/98/98 99/99/99 
f 98/98/98 100/100/100 99/99/99 
f 99/99/99 100/100/100 101/101/101 
f 100/100/100 102/102/102 101/101/101 
f 101/101/101 102/102/102 103/103/103 
f 102/102/102 104/104/104 103/103/103 
f 103/103/103 104/104/104 105/105/105 
f 104/104/104 106/106/106 105/105/105 
f 105/105/105 106/106/106 107/107/107 
f 106/106/106 108/108/108 107/107/107 
f 107/107/107 108/108/108 109/109/109 
f 108/108/108 110/110/110 109/109/109 
f 109/109/109 110/110/110 111/111/111 
f 110/110/110 112/112/112 111/111/111 
f 111/111/111 112/112/112 81/81/81 
f 112/112/112 82/82/82 81/81/81 
f 81/81/81 82/82/82 82/82/82 
f 82/82/82 88/88/88 82/82/82 
f 82/82/82 88/88/88 88/88/88 
f 88/88/88 86/86/86 88/88/88 
f 88/88/88 86/86/86 90/90/90 
f 86/86/86 84/84/84 90/90/90 
f 90/90/90 84/84/84 82/82/82 
f 84/84/84 82/82/82 82/82/82 
f 82/82/82 82/82/82 82/82/82 
f 82/82/82 112/112/112 82/82/82 
f 82/82/82 112/112/112 90/90/90 
f 112/112/112 110/110/110 90/90/90 
f 90/90/90 110/110/110 108/108/108 
f 110/110/110 108/108/108 108/108/108 
f 108/108/108 108/108/108 108/108/108 
f 108/108/108 106/106/106 108/108/108 
f 108/108/108 106/106/106 90/90/90 
f 106/106/106 104/104/104 90/90/90 
f 90/90/90 104/104/104 102/102/102 
f 104/104/104 102/102/102 102/102/102 
f 102/102/102 102/102/102 102/102/102 
f 102/102/102 100/100/100 102/102/102 
f 102/102/102 100/100/100 90/90/90 
f 100/100/100 98/98/98 90/90/90 
f 90/90/90 98/98/98 96/96/96 
f 98/98/98 96/96/96 96/96/96 
f 96/96/96 96/96/96 96/96/96 
f 96/96/96 94/94/94 96/96/96 
f 96/96/96 94/94/94 90/90/90 
f 94/94/94 92/92/92 90/90/90 

